STARTFONT 2.3
FONT -FontForge-Rajdhani-Book-R-Normal--36-360-72-72-P-220-ISO10646-1
SIZE 36 72 72  4
FONTBOUNDINGBOX 88 44 -15 -12
COMMENT "Generated by fontforge, http://fontforge.sourceforge.net"
COMMENT "Copyright (c) 2014 Indian Type Foundry (info@indiantypefoundry.com)"
STARTPROPERTIES 41
FOUNDRY "FontForge"
FAMILY_NAME "Rajdhani"
WEIGHT_NAME "Book"
SLANT "R"
SETWIDTH_NAME "Normal"
ADD_STYLE_NAME ""
PIXEL_SIZE 36
POINT_SIZE 360
RESOLUTION_X 72
RESOLUTION_Y 72
SPACING "P"
AVERAGE_WIDTH 220
CHARSET_REGISTRY "ISO10646"
CHARSET_ENCODING "1"
FONTNAME_REGISTRY ""
CHARSET_COLLECTIONS "ISO8859-2 ISO8859-9 ISO8859-4 ISO10646-1"
BITS_PER_PIXEL 4
FONT_NAME "Rajdhani-Regular"
FACE_NAME "Rajdhani Regular"
COPYRIGHT "Copyright (c) 2014 Indian Type Foundry (info@indiantypefoundry.com)"
FONT_VERSION "1.201;PS 1.0;hotconv 1.0.78;makeotf.lib2.5.61930; ttfautohint (v1.1) -l 7 -r 28 -G 50 -x 13 -D latn -f deva -w G"
FONT_ASCENT 29
FONT_DESCENT 7
UNDERLINE_POSITION -4
UNDERLINE_THICKNESS 2
X_HEIGHT 17
CAP_HEIGHT 22
DEFAULT_CHAR 3
RAW_ASCENT 800
RAW_DESCENT 200
NORM_SPACE 10
RELATIVE_WEIGHT 40
RELATIVE_SETWIDTH 50
SUPERSCRIPT_X 0
SUPERSCRIPT_Y 12
SUPERSCRIPT_SIZE 21
SUBSCRIPT_X 0
SUBSCRIPT_Y 2
SUBSCRIPT_SIZE 21
AVG_LOWERCASE_WIDTH 163
AVG_UPPERCASE_WIDTH 187
ENDPROPERTIES
CHARS 1043
STARTCHAR NULL.dup1
ENCODING 0
SWIDTH 0 0
DWIDTH 0 0
BBX 1 1 0 0
BITMAP
00
ENDCHAR
STARTCHAR CR
ENCODING 13
SWIDTH 0 0
DWIDTH 0 0
BBX 1 1 0 0
BITMAP
00
ENDCHAR
STARTCHAR space
ENCODING 32
SWIDTH 267 0
DWIDTH 10 0
BBX 1 1 0 0
BITMAP
00
ENDCHAR
STARTCHAR exclam
ENCODING 33
SWIDTH 237 0
DWIDTH 9 0
BBX 3 23 3 0
BITMAP
BF40
CF50
CF50
CF50
BF50
BF40
BF40
BF40
AF30
AF20
9F20
9F10
8F00
7E00
5D00
0000
0000
0000
AF30
AF30
AF30
AF30
AF30
ENDCHAR
STARTCHAR quotedbl
ENCODING 34
SWIDTH 330 0
DWIDTH 12 0
BBX 8 7 2 16
BITMAP
AF1003F8
AF1002F8
9F0001F7
8E0000F6
7D0000E5
6C0000E4
5A0000C3
ENDCHAR
STARTCHAR numbersign
ENCODING 35
SWIDTH 677 0
DWIDTH 24 0
BBX 21 23 2 0
BITMAP
00000000AC0000004F4000
00000000E90000009F1000
00000004F5000000DB0000
00000008F1000002F70000
0000000DC0000006F30000
0000002F8000000AE00000
009FFFFFFFFFFFFFFFFF50
005888DE888888AFA88830
000000EA0000008F100000
000004F6000000CC000000
000008F1000002F8000000
00000CC0000006F3000000
00001F8000000AE0000000
00006F3000000EA0000000
0000AE0000003F50000000
8999ED999999CFA9980000
FFFFFFFFFFFFFFFFFE0000
0007F1000001F800000000
000CC0000005F400000000
001F80000009E000000000
005F4000000EA000000000
009E0000003F6000000000
00CA0000006F2000000000
ENDCHAR
STARTCHAR dollar
ENCODING 36
SWIDTH 504 0
DWIDTH 18 0
BBX 14 30 2 -4
BITMAP
0000004F400000
0000005F400000
0000005F400000
0029DFFFFEA300
03EFCA999CFF40
0DF50000004FE1
4FA000000008F5
7F6000000005F8
8F4000000003F9
8F4000000002A5
8F400000000000
7F500000000000
4FA00000000000
0DF93100000000
03DFFFFFFEB600
00047999ACFFA0
00000000002DF4
000000000005F8
000000000003FA
261000000002FA
8F4000000002FA
7F5000000003F9
5F9000000007F7
1EF40000003EF2
05FFCA999BFF60
003AEFFFFEB400
0000005F400000
0000005F400000
0000005F400000
00000027200000
ENDCHAR
STARTCHAR percent
ENCODING 37
SWIDTH 717 0
DWIDTH 26 0
BBX 23 23 1 0
BITMAP
006CFFEB40000001E6000000
07FDA9AEF4000007E1000000
0EB00001EA00000E90000000
2F600000AD00005F20000000
3F5000009E0000CB00000000
3F5000008E0004F400000000
3F5000009E000AD000000000
1F800000BC002F6000000000
0CE51017F8008E1000000000
03EFFFFFC101E80000000000
001689850007F20000000000
00000000000DA00000000000
00000000005F300000100000
0000000000BC0007DFFFD700
0000000003F5008F85459F60
0000000009D000EA00000BD0
000000001F7001F6000008F0
000000007F1002F6000007F0
00000000E90002F6000007F0
00000005F30001F7000008F0
0000000CB00000EC00001DC0
0000003F5000007FDA9AEF50
0000009C00000006CFFEC500
ENDCHAR
STARTCHAR ampersand
ENCODING 38
SWIDTH 597 0
DWIDTH 21 0
BBX 18 23 2 0
BITMAP
000018DFFEB5000000
0002EFDA9BEF800000
000BF700002DF30000
002FC0000005F90000
004F90000002FB0000
004F80000001FC0000
004F90000001EB0000
002FB0000000000000
000CF2000000000000
0004FC000000000000
0027EFA00000000000
04FFFFF80000000000
0DF824EFA999999993
4FB0005FFFFFFFFFF5
6F700006FE30000000
7F5000007FE2000000
7F50000008FC100000
7F500000009FB00000
6F600000000AF90000
4F9000000006FF7000
0DF40000002DDCF500
04EFCA999BFF42DE30
0029DFFFFDA3002EE1
ENDCHAR
STARTCHAR quotesingle
ENCODING 39
SWIDTH 186 0
DWIDTH 7 0
BBX 3 7 2 16
BITMAP
8F30
8F30
7F20
6F10
5F00
4E00
2D00
ENDCHAR
STARTCHAR parenleft
ENCODING 40
SWIDTH 283 0
DWIDTH 10 0
BBX 6 27 2 -4
BITMAP
005BEB
08FEA6
4FB100
BF2000
EC0000
FA0000
FA0000
FA0000
FA0000
FA0000
FA0000
FA0000
FA0000
FA0000
FA0000
FA0000
FA0000
FA0000
FA0000
FA0000
FA0000
EB0000
DD0000
9F5000
2EE620
03DFFB
000586
ENDCHAR
STARTCHAR parenright
ENCODING 41
SWIDTH 283 0
DWIDTH 10 0
BBX 6 27 2 -4
BITMAP
EEA300
8BEF50
002DF2
0004F7
0000FB
0000DC
0000DC
0000DC
0000DC
0000DC
0000DC
0000DC
0000DC
0000DC
0000DC
0000DC
0000DC
0000DC
0000DC
0000DC
0000DC
0000EB
0001FA
0007F5
028FC0
EFFC20
884000
ENDCHAR
STARTCHAR asterisk
ENCODING 42
SWIDTH 406 0
DWIDTH 15 0
BBX 11 10 2 13
BITMAP
00007F100000
00006F100000
01005E000100
6FA41C06DF10
28BD98CEB710
000067300000
0008B3E30000
006F40BE2000
00EA002E9000
002100020000
ENDCHAR
STARTCHAR plus
ENCODING 43
SWIDTH 523 0
DWIDTH 19 0
BBX 15 14 2 4
BITMAP
0000006F30000000
0000007F40000000
0000007F40000000
0000007F40000000
0000007F40000000
0000007F40000000
499999CFB9999920
7FFFFFFFFFFFFF40
0000007F40000000
0000007F40000000
0000007F40000000
0000007F40000000
0000007F40000000
0000006F30000000
ENDCHAR
STARTCHAR comma
ENCODING 44
SWIDTH 191 0
DWIDTH 7 0
BBX 3 9 2 -4
BITMAP
8F60
9F60
9F60
9F60
9F30
9E00
9900
9500
6100
ENDCHAR
STARTCHAR hyphen
ENCODING 45
SWIDTH 312 0
DWIDTH 11 0
BBX 9 2 1 11
BITMAP
4999999960
8FFFFFFFB0
ENDCHAR
STARTCHAR period
ENCODING 46
SWIDTH 191 0
DWIDTH 7 0
BBX 3 5 2 0
BITMAP
8F60
9F60
9F60
9F60
8F60
ENDCHAR
STARTCHAR slash
ENCODING 47
SWIDTH 396 0
DWIDTH 14 0
BBX 10 23 2 0
BITMAP
00000000CE
00000003FA
00000008F5
0000000EE0
0000004F90
000000AF40
000001ED00
000005F800
00000BF300
00001FC000
00006F7000
0000CF2000
0002FB0000
0008F60000
000DE10000
003FA00000
009F500000
00EE000000
04F9000000
0AF3000000
1ED0000000
6F80000000
AE20000000
ENDCHAR
STARTCHAR zero
ENCODING 48
SWIDTH 514 0
DWIDTH 19 0
BBX 15 23 2 0
BITMAP
003AEFFFFEC70000
05FFC9999AEFC100
1EE40000001AF800
6F8000000001ED00
9F5000000000CF10
9F3000000000BF10
9F3000000000BF10
9F3000000000BF10
9F3000000000BF10
9F3000000000BF10
9F3000000000BF10
9F3000000000BF10
9F3000000000BF10
9F3000000000BF10
9F3000000000BF10
9F3000000000BF10
9F3000000000BF10
9F3000000000BF10
9F5000000000CF10
6F8000000001ED00
1EE40000001AF800
05FFC9999AEFC100
003AEFFFFFC70000
ENDCHAR
STARTCHAR one
ENCODING 49
SWIDTH 317 0
DWIDTH 11 0
BBX 8 23 1 0
BITMAP
00004CF5
001AFFF5
06EFCAF5
8FD507F5
971007F5
000007F5
000007F5
000007F5
000007F5
000007F5
000007F5
000007F5
000007F5
000007F5
000007F5
000007F5
000007F5
000007F5
000007F5
000007F5
000007F5
000007F5
000006F5
ENDCHAR
STARTCHAR two
ENCODING 50
SWIDTH 478 0
DWIDTH 17 0
BBX 14 23 2 0
BITMAP
006CEFFFEC7000
0BFEB999AEFC10
7FB1000001AF80
CF200000001FD0
EE000000000CF0
FD000000000BF1
ED000000000CF0
11000000000EE0
00000000005FA0
0000000003EF30
000000005EF500
00000009FE4000
000002CFB10000
00005EF8000000
0008FE40000000
01BFC200000000
0CF90000000000
6FA00000000000
BF400000000000
CF200000000000
DF200000000000
DFA99999999991
CFFFFFFFFFFFF2
ENDCHAR
STARTCHAR three
ENCODING 51
SWIDTH 496 0
DWIDTH 18 0
BBX 14 23 2 0
BITMAP
004BEFFFFD9200
07FFB999ACFE30
2FD20000004FD0
8F5000000009F4
AF2000000006F7
BF1000000005F7
9D1000000005F7
000000000005F7
000000000007F5
00000000000CF2
0000000013AF70
000004FFFFD500
000002999CFB20
00000000004FD0
000000000008F4
000000000006F7
8C0000000005F7
BF1000000005F7
BF2000000006F7
9F5000000008F5
4FD20000004FE1
08FEB9999CFF50
005BEFFFFEA300
ENDCHAR
STARTCHAR four
ENCODING 52
SWIDTH 520 0
DWIDTH 19 0
BBX 17 23 1 0
BITMAP
00000000008FF50000
0000000003FEF60000
000000000CE7F60000
000000006F75F60000
00000001ED05F60000
00000009F405F60000
0000003FB005F60000
000000BF2005F60000
000005F80005F60000
00001DE10005F60000
00008F500005F60000
0002FC000005F60000
000AF3000005F60000
004F90000005F60000
00DE10000005F60000
07F700000005F60000
1ED000000005F60000
5FFFFFFFFFFFFFFF70
29999999999BFB9940
000000000005F60000
000000000005F60000
000000000005F60000
000000000005F50000
ENDCHAR
STARTCHAR five
ENCODING 53
SWIDTH 482 0
DWIDTH 17 0
BBX 14 23 2 0
BITMAP
8FFFFFFFFFFFD0
9FA99999999970
9F300000000000
9F300000000000
9F300000000000
9F300000000000
9F300000000000
9F300000000000
9F338999973000
9F8FFFFFFFFA10
9FE5100014CF90
7D500000001EF1
000000000009F4
000000000007F5
000000000007F5
000000000007F5
7C1000000007F5
AF2000000007F5
9F3000000008F4
7F700000000CF2
2FE30000007FB0
06FFB999ADFE20
004BEFFFFD9100
ENDCHAR
STARTCHAR six
ENCODING 54
SWIDTH 497 0
DWIDTH 18 0
BBX 14 23 2 0
BITMAP
006CEFFFFFFF50
09FEB999999930
5FC20000000000
BF400000000000
DF000000000000
EE000000000000
EE000000000000
EE000000000000
EE000000000000
EF999999984000
EFFFFFFFFFFC10
EE00000003AFC0
EE000000000BF4
EE0000000006F8
EE0000000004F9
EE0000000004F9
EE0000000004F9
EE0000000004F9
DF0000000005F8
BF3000000008F6
5FC20000004FE1
09FEB9999CFF50
006CEFFFFEA300
ENDCHAR
STARTCHAR seven
ENCODING 55
SWIDTH 380 0
DWIDTH 14 0
BBX 13 23 0 0
BITMAP
6FFFFFFFFFFFE0
39999999999FD0
00000000005F90
0000000000BF40
0000000001FD00
0000000007F800
000000000DF200
000000003FB000
000000009F6000
00000001EE1000
00000005F90000
0000000BF40000
0000002FD00000
0000007F700000
000000DF200000
000004FB000000
000009F5000000
00001EE0000000
00006F90000000
0000BF30000000
0002FD00000000
0008F700000000
000CE100000000
ENDCHAR
STARTCHAR eight
ENCODING 56
SWIDTH 519 0
DWIDTH 19 0
BBX 15 23 2 0
BITMAP
003AEFFFFFD81000
05FFB9999ADFD200
1EE300000007FB00
6F8000000000CF10
9F50000000009F30
9F30000000007F40
9F30000000007F40
9F40000000008F40
8F5000000000AF20
3FB000000001ED00
0AF92000014CF500
008FFFFFFFFE5000
04DFB9999ACFB100
1EE300000006FA00
6F7000000000BF10
9F40000000008F30
9F30000000007F40
9F30000000007F40
9F40000000008F40
7F7000000000BF20
2FE300000006FC00
07FFB9999ACFE300
004BEFFFFFD92000
ENDCHAR
STARTCHAR nine
ENCODING 57
SWIDTH 497 0
DWIDTH 18 0
BBX 14 23 2 0
BITMAP
006CEFFFFDA200
0AFEB999ACFE40
6FC10000005FE0
CF3000000009F5
EE0000000006F7
FD0000000004F8
FD0000000004F8
FD0000000004F8
FD0000000004F8
EE0000000004F8
CF3000000004F8
6FC100000004F8
0AFEB999999BF8
006CEFFFFFFFF8
000000000005F8
000000000005F8
000000000005F8
000000000005F8
000000000006F7
000000000009F5
00000000004FE1
079999999CFE40
0DFFFFFFFEA300
ENDCHAR
STARTCHAR colon
ENCODING 58
SWIDTH 191 0
DWIDTH 7 0
BBX 3 18 2 0
BITMAP
8F60
9F60
9F60
9F60
8F60
0000
0000
0000
0000
0000
0000
0000
0000
8F60
9F60
9F60
9F60
8F60
ENDCHAR
STARTCHAR semicolon
ENCODING 59
SWIDTH 191 0
DWIDTH 7 0
BBX 3 22 2 -4
BITMAP
8F60
9F60
9F60
9F60
8F60
0000
0000
0000
0000
0000
0000
0000
0000
8F60
9F60
9F60
9F60
9F30
9E00
9900
9500
6000
ENDCHAR
STARTCHAR less
ENCODING 60
SWIDTH 513 0
DWIDTH 18 0
BBX 15 13 2 5
BITMAP
0000000000002710
00000000016BFF20
000000049EFE9300
000027DFEA400000
005BFFB610000000
6EFD720000000000
AF91000000000000
4BFFA50000000000
0028DFE930000000
000004AFFD720000
000000016CFFC600
000000000039EF20
0000000000000500
ENDCHAR
STARTCHAR equal
ENCODING 61
SWIDTH 531 0
DWIDTH 19 0
BBX 15 8 2 7
BITMAP
4FFFFFFFFFFFFF60
2999999999999930
0000000000000000
0000000000000000
0000000000000000
0000000000000000
2999999999999930
5FFFFFFFFFFFFF60
ENDCHAR
STARTCHAR greater
ENCODING 62
SWIDTH 531 0
DWIDTH 19 0
BBX 15 13 2 5
BITMAP
3610000000000000
5FFA500000000000
049EFE8200000000
00015BFFC6100000
00000017CFFA4000
00000000038DFD30
000000000002BF70
0000000016BFFA20
0000004AEFC71000
00038EFE93000000
17DFFB5100000000
5FD8200000000000
2400000000000000
ENDCHAR
STARTCHAR question
ENCODING 63
SWIDTH 473 0
DWIDTH 17 0
BBX 13 23 2 0
BITMAP
0029DFFFD92000
03EFCA9ACFE400
0DF5000004FD00
4FA00000009F40
6F700000006F60
7F600000005F70
6F500000006F60
0000000000BF30
0000000008FA00
000000009FA000
0000000AF80000
0000008F700000
000000EC000000
000001FA000000
000002FA000000
00000196000000
00000000000000
00000000000000
000003FB000000
000004FB000000
000004FB000000
000004FB000000
000003FB000000
ENDCHAR
STARTCHAR at
ENCODING 64
SWIDTH 753 0
DWIDTH 27 0
BBX 22 24 3 -2
BITMAP
0000004789999999861000
00007EFFFFFFFFFFFFE500
002CFC620000000015CF40
01DE500000000000001DC0
0AF40000000000000006F1
3F700001589999950004F3
9E00003EFFFFFFF90003F3
DA0001EE620001F90003F3
E70008F6000000F90003F3
F6000BF0000000F90003F3
F6000CD0000000F90003F3
F6000CD0000000F90003F3
F6000CD0000000F90003F3
F6000CD0000000F90003F3
F6000CE0000002F90005F2
F70009F3000006F90008F1
D80004FB10003DF9004FA0
BC00009FEBACF6FD9CFD20
6F400006CEEC50AFFD9100
1DC1000000000000000000
05FB100000000000000000
006FD60000000000000000
0003DFEB99999998000000
000005ADEFFFFFFD000000
ENDCHAR
STARTCHAR A
ENCODING 65
SWIDTH 533 0
DWIDTH 19 0
BBX 18 23 1 0
BITMAP
0000000BFE00000000
0000002FFF40000000
0000006F9F90000000
000000BF1EE0000000
000001FB09F4000000
000006F704F9000000
00000BF200ED000000
00001FC000AF300000
00005F80005F800000
0000AF30001FD00000
0001FD00000BF30000
0005F9000006F80000
000AF4000001FD0000
000EE0000000CF3000
005FA00000007F7000
00AFB9999999AFC000
00EFFFFFFFFFFFF200
04FA0000000008F700
09F50000000003FC00
0EE10000000000DF20
4FA000000000007F70
9F4000000000002FB0
DD0000000000000BF1
ENDCHAR
STARTCHAR B
ENCODING 66
SWIDTH 546 0
DWIDTH 20 0
BBX 15 23 3 0
BITMAP
EFFFFFFFFEC60000
EE9999999BEFA000
ED000000001BF500
ED0000000003FB00
ED0000000000FD00
ED0000000000ED00
ED0000000000ED00
ED0000000000FD00
ED0000000003FA00
ED000000002CF300
EE9999999BED5000
EFFFFFFFFFFA3000
ED000000026DE300
ED0000000003FC00
ED0000000000CF10
ED0000000000AF20
ED0000000000AF20
ED0000000000AF20
ED0000000000BF10
ED0000000000EE00
ED0000000009F900
EF9999999ADFC100
EFFFFFFFFFC71000
ENDCHAR
STARTCHAR C
ENCODING 67
SWIDTH 542 0
DWIDTH 20 0
BBX 16 23 2 0
BITMAP
0019DFFFFFFD9100
02EFDA9999ADFE20
0BF8000000008FB0
1FC0000000000CF2
4F900000000009F4
4F800000000007F5
4F800000000007F5
4F80000000000141
4F80000000000000
4F80000000000000
4F80000000000000
4F80000000000000
4F80000000000000
4F80000000000000
4F80000000000000
4F80000000000141
4F800000000007F5
4F800000000007F5
4F900000000009F4
1FC0000000000CF2
0BF7000000007FB0
02EFDA9999ADFE20
0019DFFFFFFD9100
ENDCHAR
STARTCHAR D
ENCODING 68
SWIDTH 557 0
DWIDTH 20 0
BBX 15 23 3 0
BITMAP
EFFFFFFFFFD92000
EF9999999ADFE200
ED0000000007FC00
ED0000000000CF20
ED00000000008F50
ED00000000007F50
ED00000000007F50
ED00000000007F50
ED00000000007F50
ED00000000007F50
ED00000000007F50
ED00000000007F50
ED00000000007F50
ED00000000007F50
ED00000000007F50
ED00000000007F50
ED00000000007F50
ED00000000007F50
ED00000000008F50
ED0000000000CF20
ED0000000007FC00
EF9999999ADFE200
EFFFFFFFFFD92000
ENDCHAR
STARTCHAR E
ENCODING 69
SWIDTH 481 0
DWIDTH 17 0
BBX 12 23 3 0
BITMAP
EFFFFFFFFFFE
EE9999999998
ED0000000000
ED0000000000
ED0000000000
ED0000000000
ED0000000000
ED0000000000
ED0000000000
ED0000000000
EE9999999980
EFFFFFFFFFD0
ED0000000000
ED0000000000
ED0000000000
ED0000000000
ED0000000000
ED0000000000
ED0000000000
ED0000000000
ED0000000000
EF9999999998
EFFFFFFFFFFE
ENDCHAR
STARTCHAR F
ENCODING 70
SWIDTH 459 0
DWIDTH 17 0
BBX 12 23 3 0
BITMAP
EFFFFFFFFFFD
EF9999999998
ED0000000000
ED0000000000
ED0000000000
ED0000000000
ED0000000000
ED0000000000
ED0000000000
ED0000000000
ED0000000000
EFFFFFFFFFE0
EE9999999980
ED0000000000
ED0000000000
ED0000000000
ED0000000000
ED0000000000
ED0000000000
ED0000000000
ED0000000000
ED0000000000
EC0000000000
ENDCHAR
STARTCHAR G
ENCODING 71
SWIDTH 539 0
DWIDTH 19 0
BBX 15 23 2 0
BITMAP
0019DFFFFFEB4000
02EFDA9999BFF600
0BF800000003EF20
1FC0000000007F80
4F90000000003FA0
4F80000000001FB0
4F80000000001FB0
4F80000000000320
4F80000000000000
4F80000000000000
4F80000000000000
4F80000089999950
4F800000EFFFFFB0
4F80000000002FB0
4F80000000001FB0
4F80000000001FB0
4F80000000001FB0
4F80000000001FB0
4F90000000003FA0
1FC0000000006F80
0BF700000003EF30
02EFDA9999BFF700
0019DFFFFFEB4000
ENDCHAR
STARTCHAR H
ENCODING 72
SWIDTH 570 0
DWIDTH 21 0
BBX 15 23 3 0
BITMAP
EC00000000005F60
ED00000000005F70
ED00000000005F70
ED00000000005F70
ED00000000005F70
ED00000000005F70
ED00000000005F70
ED00000000005F70
ED00000000005F70
ED00000000005F70
EE9999999999BF70
EFFFFFFFFFFFFF70
ED00000000006F70
ED00000000005F70
ED00000000005F70
ED00000000005F70
ED00000000005F70
ED00000000005F70
ED00000000005F70
ED00000000005F70
ED00000000005F70
ED00000000005F70
EC00000000005F60
ENDCHAR
STARTCHAR I
ENCODING 73
SWIDTH 230 0
DWIDTH 8 0
BBX 3 23 3 0
BITMAP
BF00
CF10
CF10
CF10
CF10
CF10
CF10
CF10
CF10
CF10
CF10
CF10
CF10
CF10
CF10
CF10
CF10
CF10
CF10
CF10
CF10
CF10
BF00
ENDCHAR
STARTCHAR J
ENCODING 74
SWIDTH 499 0
DWIDTH 18 0
BBX 15 23 1 0
BITMAP
000000000000AF10
000000000000BF10
000000000000BF10
000000000000BF10
000000000000BF10
000000000000BF10
000000000000BF10
000000000000BF10
000000000000BF10
000000000000BF10
000000000000BF10
000000000000BF10
000000000000BF10
000000000000BF10
461000000000BF10
9F3000000000BF10
9F3000000000BF10
9F3000000000BF10
9F4000000000CF00
6F8000000001ED00
1EE30000001AF800
05FFC9999AEFC100
003AEFFFFFC70000
ENDCHAR
STARTCHAR K
ENCODING 75
SWIDTH 530 0
DWIDTH 19 0
BBX 16 23 3 0
BITMAP
EC0000000004ED00
ED000000001EF300
ED00000000BF6000
ED00000008FA0000
ED0000004FD10000
ED000002EF300000
ED00000BF7000000
ED00008FB0000000
ED0004FE10000000
ED002EF400000000
ED00CFD100000000
ED08FDF900000000
ED4FB1CF40000000
EDDD102FD1000000
EFE20007F9000000
EF400000BF400000
ED0000002ED10000
ED00000006FA0000
ED00000000BF5000
ED000000002EE100
ED0000000005FA00
ED0000000000AF50
EC00000000001DE1
ENDCHAR
STARTCHAR L
ENCODING 76
SWIDTH 451 0
DWIDTH 16 0
BBX 13 23 3 0
BITMAP
EC000000000000
ED000000000000
ED000000000000
ED000000000000
ED000000000000
ED000000000000
ED000000000000
ED000000000000
ED000000000000
ED000000000000
ED000000000000
ED000000000000
ED000000000000
ED000000000000
ED000000000000
ED000000000000
ED000000000000
ED000000000000
ED000000000000
ED000000000000
ED000000000000
EF999999999920
EFFFFFFFFFFF40
ENDCHAR
STARTCHAR M
ENCODING 77
SWIDTH 696 0
DWIDTH 25 0
BBX 19 23 3 0
BITMAP
EFC0000000000000BFE0
EFF4000000000003FFF0
EFFA000000000009FFF0
ECCF20000000001FCCF0
EC5F80000000007F6CF0
EC0DE100000000DE0CF0
EC07F600000005F80CF0
EC01EC0000000CF10CF0
EC009F4000003FA00CF0
EC002FA000009F300CF0
EC000AF20001FC000CF0
EC0004F80007F5000CF0
EC0000CE100ED0000CF0
EC00005F605F70000CF0
EC00000DC0CE10000CF0
EC000007F7F900000CF0
EC000001EFF200000CF0
EC0000008FA000000CF0
EC000000000000000CF0
EC000000000000000CF0
EC000000000000000CF0
EC000000000000000CF0
EC000000000000000BE0
ENDCHAR
STARTCHAR N
ENCODING 78
SWIDTH 579 0
DWIDTH 21 0
BBX 15 23 3 0
BITMAP
ED10000000000EC0
EF90000000000FC0
EFF3000000000FC0
EFFB000000000FC0
EDBF500000000FC0
ED3FD00000000FC0
ED09F70000000FC0
ED01EE2000000FC0
ED006FA000000FC0
ED000CF400000FC0
ED0003FC00000FC0
ED00009F60000FC0
ED00001EE1000FC0
ED000006F9000FC0
ED000000CF300FC0
ED0000003FB00FC0
ED00000009F50FC0
ED00000001ED1FC0
ED000000007F7FC0
ED000000000CFFC0
ED0000000004FFC0
ED0000000000AFC0
EC00000000002EC0
ENDCHAR
STARTCHAR O
ENCODING 79
SWIDTH 553 0
DWIDTH 20 0
BBX 16 23 2 0
BITMAP
0019DFFFFFFD8100
02EFDA9999ADFD10
0BF8000000009FA0
1FC0000000000DF0
4F90000000000AF2
4F800000000009F3
4F800000000009F3
4F800000000009F3
4F800000000009F3
4F800000000009F3
4F800000000009F3
4F800000000009F3
4F800000000009F3
4F800000000009F3
4F800000000009F3
4F800000000009F3
4F800000000009F3
4F800000000009F3
4F90000000000AF2
1FC0000000000DF0
0BF7000000009FA0
02EFDA9999ADFD10
0019DFFFFFFD8100
ENDCHAR
STARTCHAR P
ENCODING 80
SWIDTH 524 0
DWIDTH 19 0
BBX 14 23 3 0
BITMAP
EFFFFFFFFEB400
EF9999999BFF70
ED000000003EF3
ED0000000006F8
ED0000000002FB
ED0000000001FC
ED0000000001FC
ED0000000001FC
ED0000000001FC
ED0000000001FC
ED0000000003FA
ED0000000009F7
ED000000028FD1
EFFFFFFFFFFD30
EE999999985000
ED000000000000
ED000000000000
ED000000000000
ED000000000000
ED000000000000
ED000000000000
ED000000000000
EC000000000000
ENDCHAR
STARTCHAR Q
ENCODING 81
SWIDTH 556 0
DWIDTH 20 0
BBX 16 28 2 -5
BITMAP
0018DFFFFFFD8100
02DFDA9999ADFD20
0AF8000000008FA0
1FD0000000000DF1
3FA00000000009F3
4F900000000008F4
4F900000000008F4
4F900000000008F4
4F900000000008F4
4F900000000008F4
4F900000000008F4
4F900000000008F4
4F900000000008F4
4F900000000008F4
4F900000000008F4
4F900000000008F4
4F900000000008F4
4F900000000008F4
3FA00000000009F4
1FD0000000000DF1
0AF8000000008FB0
02DFDA9999ADFE20
0018DFFFFFFE9200
000000002FC00000
0000000008F60000
0000000001EE1000
00000000006F9000
00000000000BF200
ENDCHAR
STARTCHAR R
ENCODING 82
SWIDTH 534 0
DWIDTH 19 0
BBX 15 23 3 0
BITMAP
EFFFFFFFFEB40000
EF9999999BFF6000
ED000000003EF200
ED0000000007F700
ED0000000003FA00
ED0000000001FB00
ED0000000001FB00
ED0000000001FB00
ED0000000002FA00
ED0000000004F900
ED000000000AF600
ED000000029FD000
EFFFFFFFFFFC1000
EF999999FF400000
ED000000AF500000
ED0000003FC00000
ED0000000BF40000
ED00000004FB0000
ED00000000CF3000
ED000000005FB000
ED000000000CF300
ED0000000005FA00
EC0000000000CF10
ENDCHAR
STARTCHAR S
ENCODING 83
SWIDTH 562 0
DWIDTH 20 0
BBX 16 23 2 0
BITMAP
0007CEFFFFFD8100
00CFEB9999ADFD10
08FA100000008FA0
0DF1000000000DF1
1FD0000000000AF3
1FB00000000009F4
1FB0000000000471
1FC0000000000000
0DF4000000000000
05FF810000000000
005EFFC952000000
00016BEFFFD93000
000000036AEFF700
000000000007EF80
0000000000003EF1
0000000000000AF4
1B800000000008F5
1FB00000000008F5
1FD00000000009F4
0DF1000000000CF2
08FA100000008FB0
01CFEB9999ADFD20
0007CFFFFFFD9100
ENDCHAR
STARTCHAR T
ENCODING 84
SWIDTH 420 0
DWIDTH 15 0
BBX 15 23 0 0
BITMAP
5FFFFFFFFFFFFF60
399999BFC9999940
0000005F70000000
0000005F70000000
0000005F70000000
0000005F70000000
0000005F70000000
0000005F70000000
0000005F70000000
0000005F70000000
0000005F70000000
0000005F70000000
0000005F70000000
0000005F70000000
0000005F70000000
0000005F70000000
0000005F70000000
0000005F70000000
0000005F70000000
0000005F70000000
0000005F70000000
0000005F70000000
0000005F60000000
ENDCHAR
STARTCHAR U
ENCODING 85
SWIDTH 552 0
DWIDTH 20 0
BBX 15 23 2 0
BITMAP
1FA0000000000CE0
2FA0000000000CF0
2FA0000000000CF0
2FA0000000000CF0
2FA0000000000CF0
2FA0000000000CF0
2FA0000000000CF0
2FA0000000000CF0
2FA0000000000CF0
2FA0000000000CF0
2FA0000000000CF0
2FA0000000000CF0
2FA0000000000CF0
2FA0000000000CF0
2FA0000000000CF0
2FA0000000000CF0
2FA0000000000CF0
2FA0000000000CF0
1FC0000000000EE0
0EE1000000002FC0
08FA10000001BF60
01CFDA9999BEFB00
0018DFFFFFEC7000
ENDCHAR
STARTCHAR V
ENCODING 86
SWIDTH 500 0
DWIDTH 18 0
BBX 16 23 1 0
BITMAP
ED000000000000DE
AF400000000004FA
5F800000000008F5
1FC0000000000CF1
0BF2000000002FB0
07F6000000006F70
02FB00000000BF20
00DE10000001FD00
008F40000005F800
004F90000009F400
000ED000000DE000
000AF300003FA000
0005F700007F5000
0001FC0000CF1000
0000BF1001FB0000
00007F5005F60000
00002FA00AF20000
00000DE00EC00000
000008F44F800000
000003F88F300000
000000EDDE000000
0000009FF9000000
0000004FF4000000
ENDCHAR
STARTCHAR W
ENCODING 87
SWIDTH 794 0
DWIDTH 29 0
BBX 27 23 1 0
BITMAP
CF2000000000DF60000000009F60
9F6000000003FFB000000000DF30
6F9000000007FEF000000001FE00
2FC00000000BE7F400000004FB00
0EF10000000EB2F800000007F800
0BF30000004F70DC0000000AF500
07F70000008F309F1000000DF100
04FA000000CE005F5000001FD000
01FD000001FA001F9000004FA000
00CF100005F6000CD000008F6000
009F400009F20008F20000BF3000
006F70000DD00004F60000EE0000
002FA0002F900001FA0002FB0000
000ED0006F400000BE0005F80000
000BF100AF1000007F3008F40000
0007F500EB0000003F700BF10000
0004F803F70000000EB00ED00000
0001FB07F30000000AF12F900000
0000CE0BE000000006F45F600000
00009F2EA000000002F89F300000
00006F9F6000000000DCCE000000
00002FFF20000000009FFB000000
00000DFD00000000004FF7000000
ENDCHAR
STARTCHAR X
ENCODING 88
SWIDTH 504 0
DWIDTH 18 0
BBX 16 23 1 0
BITMAP
4FA00000000007F7
0BF4000000002FD1
03FC00000000AF50
009F60000004FB00
001EE100000CF300
0006F800006F9000
0000CF2001DE1000
00003FB008F60000
00000AF42EC00000
000002EDAF300000
0000007FF9000000
0000006FF9000000
000001EECF300000
000008F64FB00000
00002FC00AF50000
0000BF4002FD0000
0004FA00008F7000
000CF200001EE100
006F90000006F900
01EE10000000DF20
08F7000000005FB0
2FD0000000000BF4
AF400000000003EC
ENDCHAR
STARTCHAR Y
ENCODING 89
SWIDTH 493 0
DWIDTH 18 0
BBX 16 23 1 0
BITMAP
EE100000000005FA
8F80000000000CF4
1EE1000000005FB0
08F800000000CF40
01EE10000004FB00
008F7000000BF300
001EE100004FB000
0008F70000BF3000
0001EE1003FB0000
00008F700AF30000
00001ED03FB00000
000008F6AF300000
000001EEFB000000
0000008FF3000000
0000001FC0000000
0000001FB0000000
0000001FB0000000
0000001FB0000000
0000001FB0000000
0000001FB0000000
0000001FB0000000
0000001FB0000000
0000000FB0000000
ENDCHAR
STARTCHAR Z
ENCODING 90
SWIDTH 482 0
DWIDTH 17 0
BBX 15 23 1 0
BITMAP
1FFFFFFFFFFFFF70
099999999999DF70
000000000002FF20
00000000000BF800
00000000005FD000
0000000001DF4000
0000000008FA0000
000000003FE20000
00000000BF700000
00000005FD000000
0000001EF4000000
0000009FA0000000
000003FE10000000
00000CF700000000
00006FC000000000
0001EF3000000000
0009F90000000000
003FE10000000000
00CF600000000000
06FC000000000000
1EF3000000000000
7FE9999999999970
7FFFFFFFFFFFFFC0
ENDCHAR
STARTCHAR bracketleft
ENCODING 91
SWIDTH 287 0
DWIDTH 10 0
BBX 6 27 2 -4
BITMAP
AFFFFC
BF9997
BE0000
BE0000
BE0000
BE0000
BE0000
BE0000
BE0000
BE0000
BE0000
BE0000
BE0000
BE0000
BE0000
BE0000
BE0000
BE0000
BE0000
BE0000
BE0000
BE0000
BE0000
BE0000
BE0000
BFFFFC
699997
ENDCHAR
STARTCHAR backslash
ENCODING 92
SWIDTH 396 0
DWIDTH 14 0
BBX 10 23 2 0
BITMAP
AE20000000
6F70000000
1FD0000000
0AF3000000
05F9000000
00EE000000
009F500000
004FA00000
000DF10000
0008F60000
0002FB0000
0000CF2000
00007F7000
00001FC000
00000BF300
000006F800
000001ED00
000000AF40
0000004F90
0000000EE0
00000009F5
00000003FA
00000000CE
ENDCHAR
STARTCHAR bracketright
ENCODING 93
SWIDTH 287 0
DWIDTH 10 0
BBX 6 27 2 -4
BITMAP
CFFFFA
7999FB
0000DB
0000DB
0000DB
0000DB
0000DB
0000DB
0000DB
0000DB
0000DB
0000DB
0000DB
0000DB
0000DB
0000DB
0000DB
0000DB
0000DB
0000DB
0000DB
0000DB
0000DB
0000DB
0000DB
CFFFFB
799996
ENDCHAR
STARTCHAR asciicircum
ENCODING 94
SWIDTH 465 0
DWIDTH 17 0
BBX 13 10 2 13
BITMAP
00002EFC000000
0000AFAF600000
0003FA1EE10000
000BF206F70000
004F9000DE1000
00CE20005F8000
05F800000CE100
0CE1000004F800
5F70000000BF20
CC000000003E80
ENDCHAR
STARTCHAR underscore
ENCODING 95
SWIDTH 372 0
DWIDTH 13 0
BBX 14 2 0 -3
BITMAP
89999999999993
EFFFFFFFFFFFF5
ENDCHAR
STARTCHAR grave
ENCODING 96
SWIDTH 269 0
DWIDTH 10 0
BBX 6 5 2 20
BITMAP
6FD100
09F900
00BF40
001CD0
000171
ENDCHAR
STARTCHAR a
ENCODING 97
SWIDTH 502 0
DWIDTH 18 0
BBX 14 18 2 0
BITMAP
004BEFFFFFFFF5
06FFB999999CF6
2FE300000006F6
7F7000000006F6
9F3000000006F6
AF2000000006F6
AF2000000006F6
AF2000000006F6
AF2000000006F6
AF2000000006F6
AF2000000006F6
AF2000000006F6
AF2000000006F6
9F3000000008F6
7F700000000CF6
2FE30000008FF6
06FFB999ADFAF6
004BEFFFEB36F5
ENDCHAR
STARTCHAR b
ENCODING 98
SWIDTH 504 0
DWIDTH 18 0
BBX 14 25 2 0
BITMAP
4F700000000000
4F800000000000
4F800000000000
4F800000000000
4F800000000000
4F800000000000
4F800000000000
4F82AEFFFEB500
4F9EEA999BFF90
4FF80000002DF4
4FC000000005F9
4F9000000001FB
4F8000000000FC
4F8000000000FC
4F8000000000FC
4F8000000000FC
4F8000000000FC
4F8000000000FC
4F8000000000FC
4F8000000000FC
4F8000000001FB
4F8000000005F9
4F800000002DF4
4FC999999BEF90
4FFFFFFFFEB500
ENDCHAR
STARTCHAR c
ENCODING 99
SWIDTH 394 0
DWIDTH 14 0
BBX 11 18 2 0
BITMAP
004BEFFFFFE0
06FFB9999980
2FE300000000
7F7000000000
9F3000000000
AF2000000000
AF2000000000
AF2000000000
AF2000000000
AF2000000000
AF2000000000
AF2000000000
AF2000000000
9F3000000000
7F7000000000
2FE300000000
06FFB9999980
004BEFFFFFE0
ENDCHAR
STARTCHAR d
ENCODING 100
SWIDTH 504 0
DWIDTH 18 0
BBX 14 25 2 0
BITMAP
000000000005F6
000000000005F7
000000000005F7
000000000005F7
000000000005F7
000000000005F7
000000000005F7
004BEFFFEA35F7
06FFB999ADE8F7
2FE30000007FF7
7F700000000BF7
9F3000000007F7
AF2000000005F7
AF2000000005F7
AF2000000005F7
AF2000000005F7
AF2000000005F7
AF2000000005F7
AF2000000005F7
AF2000000005F7
9F3000000007F7
7F700000000BF7
2FE30000007FF7
06FFB999ADF9F7
004BEFFFEB45F6
ENDCHAR
STARTCHAR e
ENCODING 101
SWIDTH 492 0
DWIDTH 18 0
BBX 14 18 2 0
BITMAP
004BEFFFFEA300
06FFB9999CFF40
2FE30000004FE1
7F6000000008F5
9F3000000005F8
AF2000000004F8
AF2000000004F8
AF2000000004F8
AFA99999999BF8
AFFFFFFFFFFFF8
AF200000000000
AF200000000000
AF200000000000
9F300000000000
7F600000000000
2FE30000000000
06FFB999999992
004BEFFFFFFFF4
ENDCHAR
STARTCHAR f
ENCODING 102
SWIDTH 303 0
DWIDTH 11 0
BBX 10 25 1 0
BITMAP
000007DFF2
0000AFEA91
0004FC1000
0008F60000
000AF30000
000AF20000
000BF30000
AFFFFFFFF2
699DFA9991
000AF20000
000AF20000
000AF20000
000AF20000
000AF20000
000AF20000
000AF20000
000AF20000
000AF20000
000AF20000
000AF20000
000AF20000
000AF20000
000AF20000
000AF20000
000AF20000
ENDCHAR
STARTCHAR g
ENCODING 103
SWIDTH 506 0
DWIDTH 18 0
BBX 14 23 2 -5
BITMAP
003AEFFFFFFFF8
04FFC999999BF8
1EF400000004F8
5F9000000004F8
7F5000000004F8
8F4000000004F8
8F4000000004F8
8F4000000004F8
8F4000000004F8
8F4000000004F8
8F4000000004F8
8F4000000004F8
7F5000000006F8
5F9000000009F8
1EF40000006FF8
04FFC999ADF9F8
003AEFFFEB54F8
000000000004F8
000000000006F8
000000000009F5
00000000004FE1
049999999CFF40
06FFFFFFFEA300
ENDCHAR
STARTCHAR h
ENCODING 104
SWIDTH 507 0
DWIDTH 18 0
BBX 14 25 2 0
BITMAP
4F700000000000
4F800000000000
4F800000000000
4F800000000000
4F800000000000
4F800000000000
4F800000000000
4F829EFFFEB500
4F9DEB999BFF70
4FF91000003EF3
4FD000000006F8
4F9000000002FA
4F8000000001FB
4F8000000001FB
4F8000000001FB
4F8000000001FB
4F8000000001FB
4F8000000001FB
4F8000000001FB
4F8000000001FB
4F8000000001FB
4F8000000001FB
4F8000000001FB
4F8000000001FB
4F7000000001FA
ENDCHAR
STARTCHAR i
ENCODING 105
SWIDTH 210 0
DWIDTH 8 0
BBX 3 25 2 0
BITMAP
1FA0
2FA0
2FA0
1FA0
0000
0000
0000
1FA0
2FA0
2FA0
2FA0
2FA0
2FA0
2FA0
2FA0
2FA0
2FA0
2FA0
2FA0
2FA0
2FA0
2FA0
2FA0
2FA0
1FA0
ENDCHAR
STARTCHAR j
ENCODING 106
SWIDTH 210 0
DWIDTH 8 0
BBX 7 30 -2 -5
BITMAP
00001FA0
00002FA0
00002FA0
00001FA0
00000000
00000000
00000000
00001FA0
00002FA0
00002FA0
00002FA0
00002FA0
00002FA0
00002FA0
00002FA0
00002FA0
00002FA0
00002FA0
00002FA0
00002FA0
00002FA0
00002FA0
00002FA0
00002FA0
00002FA0
00003FA0
00007F70
0003EF20
79CFF600
DFEB4000
ENDCHAR
STARTCHAR k
ENCODING 107
SWIDTH 431 0
DWIDTH 16 0
BBX 13 25 2 0
BITMAP
4F700000000000
4F800000000000
4F800000000000
4F800000000000
4F800000000000
4F800000000000
4F800000000000
4F80000000BF40
4F80000007FA00
4F8000002FE100
4F800000CF5000
4F800007FA0000
4F80002FE10000
4F8000CF500000
4F8007FA000000
4F801FE1000000
4F800BF4000000
4F8002EE100000
4F80005FB00000
4F80000AF60000
4F800001EE2000
4F8000004FC000
4F80000009F800
4F80000001DF40
4F700000003ED0
ENDCHAR
STARTCHAR l
ENCODING 108
SWIDTH 210 0
DWIDTH 8 0
BBX 3 25 2 0
BITMAP
1FA0
2FA0
2FA0
2FA0
2FA0
2FA0
2FA0
2FA0
2FA0
2FA0
2FA0
2FA0
2FA0
2FA0
2FA0
2FA0
2FA0
2FA0
2FA0
2FA0
2FA0
2FA0
2FA0
2FA0
1FA0
ENDCHAR
STARTCHAR m
ENCODING 109
SWIDTH 769 0
DWIDTH 28 0
BBX 24 18 2 0
BITMAP
4F719DFFEB50007CEFFD8100
4F9DEB99BEF81CFC99ADFD10
4FF9100002DFBD300000AF90
4FD00000004FF40000001EE0
4F900000001FF00000000BF2
4F800000000FD00000000AF2
4F800000000FD00000000AF2
4F800000000FD00000000AF2
4F800000000FD00000000AF2
4F800000000FD00000000AF2
4F800000000FD00000000AF2
4F800000000FD00000000AF2
4F800000000FD00000000AF2
4F800000000FD00000000AF2
4F800000000FD00000000AF2
4F800000000FD00000000AF2
4F800000000FD00000000AF2
4F700000000ED000000009F2
ENDCHAR
STARTCHAR n
ENCODING 110
SWIDTH 507 0
DWIDTH 18 0
BBX 14 18 2 0
BITMAP
4F729EFFFEB500
4F9DEB999BFF70
4FF91000003EF3
4FD000000006F8
4F9000000002FA
4F8000000001FB
4F8000000001FB
4F8000000001FB
4F8000000001FB
4F8000000001FB
4F8000000001FB
4F8000000001FB
4F8000000001FB
4F8000000001FB
4F8000000001FB
4F8000000001FB
4F8000000001FB
4F7000000001FA
ENDCHAR
STARTCHAR o
ENCODING 111
SWIDTH 496 0
DWIDTH 18 0
BBX 14 18 2 0
BITMAP
004BEFFFFEA300
06FFB9999CFF40
2FE30000004FE1
7F7000000008F5
9F3000000005F8
AF2000000004F8
AF2000000004F8
AF2000000004F8
AF2000000004F8
AF2000000004F8
AF2000000004F8
AF2000000004F8
AF2000000004F8
9F3000000005F8
7F7000000008F5
2FE30000004FE1
06FFB9999CFF50
004BEFFFFEA300
ENDCHAR
STARTCHAR p
ENCODING 112
SWIDTH 504 0
DWIDTH 18 0
BBX 14 23 2 -5
BITMAP
4F72AEFFFEB500
4F9DEB999BFF80
4FF91000002DF4
4FD000000005F9
4F9000000001FB
4F8000000000FC
4F8000000000FC
4F8000000000FC
4F8000000000FC
4F8000000000FC
4F8000000000FC
4F8000000000FC
4F8000000000FC
4F9000000001FB
4FC000000005F9
4FF90000002DF4
4FAEEA999BFF80
4F82AEFFFEC500
4F800000000000
4F800000000000
4F800000000000
4F800000000000
4F700000000000
ENDCHAR
STARTCHAR q
ENCODING 113
SWIDTH 502 0
DWIDTH 18 0
BBX 14 23 2 -5
BITMAP
004BEFFFFFFFF5
06FFB999999CF6
2FE300000006F6
7F7000000006F6
9F3000000006F6
AF2000000006F6
AF2000000006F6
AF2000000006F6
AF2000000006F6
AF2000000006F6
AF2000000006F6
AF2000000006F6
AF2000000006F6
9F3000000008F6
7F700000000CF6
2FE30000019FF6
06FFB999BEE9F6
004BEFFFFB36F6
000000000006F6
000000000006F6
000000000006F6
000000000006F6
000000000006F5
ENDCHAR
STARTCHAR r
ENCODING 114
SWIDTH 313 0
DWIDTH 11 0
BBX 9 18 2 0
BITMAP
4F718DFF40
4F8CEA9920
4FFA100000
4FE1000000
4FA0000000
4F80000000
4F80000000
4F80000000
4F80000000
4F80000000
4F80000000
4F80000000
4F80000000
4F80000000
4F80000000
4F80000000
4F80000000
4F70000000
ENDCHAR
STARTCHAR s
ENCODING 115
SWIDTH 431 0
DWIDTH 16 0
BBX 13 18 1 0
BITMAP
005BEFFFFFF900
06FFB999999500
0EF40000000000
2FB00000000000
2FA00000000000
0FD00000000000
08FB3000000000
008FFB61000000
00028EFE930000
0000004AFFB200
0000000019FD00
0000000000AF40
00000000006F70
00000000004F80
00000000006F80
0000000001DF50
08999999BEFB00
0FFFFFFFEC7100
ENDCHAR
STARTCHAR t
ENCODING 116
SWIDTH 347 0
DWIDTH 12 0
BBX 11 22 0 0
BITMAP
000174000000
0003FA000000
0003FA000000
0003FA000000
1FFFFFFFFF90
099AFD999950
0003FA000000
0003FA000000
0003FA000000
0003FA000000
0003FA000000
0003FA000000
0003FA000000
0003FA000000
0003FA000000
0003FA000000
0003FA000000
0002FB000000
0001FE100000
0000AFA10000
00001CFEA980
0000017CEFF0
ENDCHAR
STARTCHAR u
ENCODING 117
SWIDTH 507 0
DWIDTH 18 0
BBX 14 18 2 0
BITMAP
7F4000000003F8
7F5000000004F8
7F5000000004F8
7F5000000004F8
7F5000000004F8
7F5000000004F8
7F5000000004F8
7F5000000004F8
7F5000000004F8
7F5000000004F8
7F5000000004F8
7F5000000004F8
7F5000000004F8
7F6000000005F8
4F9000000009F8
0EF50000006FF8
04FFC999ADF9F8
003AEFFFEC53F8
ENDCHAR
STARTCHAR v
ENCODING 118
SWIDTH 416 0
DWIDTH 15 0
BBX 15 18 0 0
BITMAP
3F9000000000AF20
0EE000000000ED00
09F300000004F800
05F800000009F400
00ED0000000EE000
00AF2000003F9000
005F7000008F4000
001FC00000CE0000
000BF10002FA0000
0006F60007F50000
0001FB000BF10000
0000CF101FB00000
00007F505F600000
00002FA0AF100000
00000CE1EB000000
000008F8F7000000
000003FFF2000000
000000CFC0000000
ENDCHAR
STARTCHAR w
ENCODING 119
SWIDTH 683 0
DWIDTH 25 0
BBX 24 18 0 0
BITMAP
3FA00000000BF500000002FB
0EE00000001FF900000006F7
0AF30000005FFD0000000AF3
05F80000009F8F2000000ED0
01FC000000DB3F6000004F90
00BF100002F70EA000008F50
007F500006F30AE00000CF10
003F90000AE006F30001FB00
000DD0000EA002F70005F700
0009F2003F6000DB000AF200
0004F7007F20009F000ED000
0000EB00BD00005F403F9000
0000BE01F900001F807F4000
00006F44F500000CC0BE0000
00002F88F1000007F2FA0000
00000CDDB0000003FAF60000
000008FF70000000EFF20000
000003FF30000000AFC00000
ENDCHAR
STARTCHAR x
ENCODING 120
SWIDTH 413 0
DWIDTH 15 0
BBX 13 18 1 0
BITMAP
BF500000009F60
3FD0000002FD00
09F700000AF500
01EE10003FB000
006F8000BF3000
000CF204F90000
0004FA0CE10000
0000AF8F600000
00002EFD000000
00002FFE100000
0000BF7F900000
0005F90AF40000
001EE102FC0000
008F70008F7000
03FD00001EE200
0CF4000006FA00
6FB0000000CF40
EE200000003FD0
ENDCHAR
STARTCHAR y
ENCODING 121
SWIDTH 459 0
DWIDTH 17 0
BBX 15 23 1 -5
BITMAP
DD00000000005F60
9F5000000000BF20
3FA000000002FC00
0DE100000007F600
07F50000000CF100
02FB0000002FB000
00CF1000008F5000
006F600000DE1000
001FC00003FA0000
000BF20009F40000
0005F7000EE00000
0001ED004F900000
00009F30AF300000
00004F81ED000000
00000DD5F8000000
000008FEF2000000
000002CFC0000000
0000005F70000000
000000CF10000000
000004FA00000000
00003EE200000000
199BFF5000000000
2FFEA30000000000
ENDCHAR
STARTCHAR z
ENCODING 122
SWIDTH 405 0
DWIDTH 15 0
BBX 13 18 1 0
BITMAP
7FFFFFFFFFFF10
499999999AFE10
000000000BF700
000000005FC000
00000001EF3000
00000009F80000
0000004FD10000
000000DF400000
000008FA000000
00003FE1000000
0000CF60000000
0006FB00000000
002EF200000000
00AF7000000000
05FC0000000000
1EF30000000000
8FE99999999930
BFFFFFFFFFFF50
ENDCHAR
STARTCHAR braceleft
ENCODING 123
SWIDTH 298 0
DWIDTH 11 0
BBX 8 27 1 -4
BITMAP
00003BE9
0002EEA5
000AF300
000EB000
000F9000
001F8000
001F8000
001F8000
001F8000
001F8000
002F7000
007F4000
6BFA0000
AFE40000
02CE2000
003F6000
001F8000
001F8000
001F8000
001F8000
001F8000
001F8000
000FA000
000CD000
0007F810
0000BFF9
00000585
ENDCHAR
STARTCHAR bar
ENCODING 124
SWIDTH 207 0
DWIDTH 7 0
BBX 3 23 2 0
BITMAP
0F60
1F70
1F70
1F70
1F70
1F70
1F70
1F70
1F70
1F70
1F70
1F70
1F70
1F70
1F70
1F70
1F70
1F70
1F70
1F70
1F70
1F70
0F60
ENDCHAR
STARTCHAR braceright
ENCODING 125
SWIDTH 298 0
DWIDTH 11 0
BBX 8 27 1 -4
BITMAP
AEB30000
6BFE2000
004F8000
000CC000
000AE000
000AF000
000AF000
000AF000
000AF000
000AF000
0009F100
0005F600
0000BFB5
00005EF9
0003FB20
0008F200
0009F000
000AF000
000AF000
000AF000
000AF000
000AE000
000BE000
000EB000
029F6000
AFFA0000
68400000
ENDCHAR
STARTCHAR asciitilde
ENCODING 126
SWIDTH 523 0
DWIDTH 19 0
BBX 15 3 2 10
BITMAP
0268874100000620
5FFFFFFFDB9AEF40
7B510258BDFEC600
ENDCHAR
STARTCHAR uni00A0
ENCODING 160
SWIDTH 267 0
DWIDTH 10 0
BBX 1 1 0 0
BITMAP
00
ENDCHAR
STARTCHAR exclamdown
ENCODING 161
SWIDTH 237 0
DWIDTH 9 0
BBX 3 23 3 0
BITMAP
AF30
AF30
AF30
AF30
AF30
0000
0000
0000
5C00
7E00
8F00
9F10
9F20
AF20
AF30
BF40
BF40
BF40
BF50
CF50
CF50
CF50
BF40
ENDCHAR
STARTCHAR cent
ENCODING 162
SWIDTH 414 0
DWIDTH 15 0
BBX 12 25 2 -3
BITMAP
000000371000
0000008F2000
0000008F2000
0000008F2000
004BEFFFFFF8
06FFB9999995
2FE300000000
7F7000000000
9F3000000000
AF2000000000
AF2000000000
AF2000000000
AF2000000000
AF2000000000
AF2000000000
AF2000000000
AF2000000000
9F3000000000
7F7000000000
2FE300000000
06FFB9999995
004BEFFFFFF9
0000008F2000
0000008F2000
0000007F2000
ENDCHAR
STARTCHAR sterling
ENCODING 163
SWIDTH 528 0
DWIDTH 19 0
BBX 16 23 1 0
BITMAP
000007CEFFFD9200
0000CFDA99ACFE30
0008FA1000006FC0
000DE10000000BF3
001FC000000008F5
001FB000000006F6
001FB00000000393
001FB00000000000
001FB00000000000
001FB00000000000
001FB00000000000
001FB00000000000
AFFFFFFFFFE00000
699FD99999800000
001FB00000000000
001FB00000000000
001FB00000000000
001FB00000000000
001FB00000000000
002FA00000000000
008F600000000000
6BFE999999999994
AFFFFFFFFFFFFFF7
ENDCHAR
STARTCHAR yen
ENCODING 165
SWIDTH 499 0
DWIDTH 18 0
BBX 16 23 1 0
BITMAP
DF200000000003FC
6F90000000000BF5
0EF2000000003FD0
07F900000000AF60
01EE10000002FD00
007F80000009F600
001EE100001FE000
0008F700008F7000
0001EE0001EE1000
00008F6007F80000
12223FD01EF32221
AFFFFFF56FFFFFF9
244445EDDE544442
0000007FF6000000
0000000FE0000000
6999999FE9999995
AFFFFFFFFFFFFFF9
0000000ED0000000
0000000ED0000000
0000000ED0000000
0000000ED0000000
0000000ED0000000
0000000DC0000000
ENDCHAR
STARTCHAR brokenbar
ENCODING 166
SWIDTH 201 0
DWIDTH 7 0
BBX 3 23 2 0
BITMAP
2F50
3F60
3F60
3F60
3F60
3F60
3F60
3F60
2F50
0000
0000
0000
0000
0000
2F50
3F60
3F60
3F60
3F60
3F60
3F60
3F60
2F50
ENDCHAR
STARTCHAR section
ENCODING 167
SWIDTH 454 0
DWIDTH 16 0
BBX 13 23 2 0
BITMAP
019DFFFFFFF100
1DFDA999999000
8FA00000000000
BF200000000000
DF000000000000
DF200000000000
DFB10000000000
DFFFB853000000
DD5BFFFFEA3000
DD001369DFF400
DD00000005FD00
BF00000000BF10
7F800000009F30
1CFB6310009F30
007CFFFDA59F30
00001369DFFF30
0000000006FF30
0000000000CF30
0000000000AF20
0000000000DF10
0000000005FC00
59999999CFE300
8FFFFFFFDA2000
ENDCHAR
STARTCHAR dieresis
ENCODING 168
SWIDTH 345 0
DWIDTH 12 0
BBX 8 5 2 20
BITMAP
9F2000AF
9F2000BF
9F2000BF
9F2000BF
9F2000AE
ENDCHAR
STARTCHAR copyright
ENCODING 169
SWIDTH 723 0
DWIDTH 26 0
BBX 22 23 2 0
BITMAP
003AEFFFFFFFFFFFFEA300
04FFB999999999999BFF40
0EE3000000000000003EE0
4F600000000000000006F4
6F200000000000000002F6
6F100004BEFFEA300001F6
6F10004FEA99BEE20001F6
6F1000BE100003F80001F6
6F1000DA000000CB0001F6
6F1000E8000000AB0001F6
6F1000E8000000000001F6
6F1000E8000000000001F6
6F1000E8000000000001F6
6F1000E8000000780001F6
6F1000D9000000BC0001F6
6F1000CB000000DA0001F6
6F10006F821129F40001F6
6F100007EFFFFE600001F6
6F200000023320000002F6
4F600000000000000006F4
0EE3000000000000003EE0
04FFB999999999999BFF50
003AEFFFFFFFFFFFFEA300
ENDCHAR
STARTCHAR guillemotleft
ENCODING 171
SWIDTH 431 0
DWIDTH 16 0
BBX 12 13 2 3
BITMAP
000002000010
00002D2002D3
0002EC002DC1
003EC102DC10
03EC102DC100
3EB102EC1000
9C1008D10000
8E3007F40000
0AE400AF5000
00AE4009F500
000AE4009F50
0000AE1009F2
000009100082
ENDCHAR
STARTCHAR registered
ENCODING 174
SWIDTH 439 0
DWIDTH 16 0
BBX 12 12 2 13
BITMAP
019EFFFFD800
0CFB9999BFA0
5E21FFF905F2
8901F9AF10D5
8701E00D20B5
8701E00E20B5
8701FDEA00B5
8801E06900B5
7B01C00B20E4
3F8200002AE1
08FFFFFFFF50
003899997200
ENDCHAR
STARTCHAR macron
ENCODING 175
SWIDTH 358 0
DWIDTH 13 0
BBX 9 2 2 21
BITMAP
9FFFFFFF70
5999999940
ENDCHAR
STARTCHAR degree
ENCODING 176
SWIDTH 298 0
DWIDTH 11 0
BBX 6 8 2 17
BITMAP
0AFFE5
2FB9DC
3F005D
3F004D
3F004D
3F307D
1FFFFB
049981
ENDCHAR
STARTCHAR plusminus
ENCODING 177
SWIDTH 523 0
DWIDTH 19 0
BBX 15 14 2 4
BITMAP
0000006F30000000
0000007F40000000
0000007F40000000
0000007F40000000
7FFFFFFFFFFFFF40
499999CFB9999920
0000007F40000000
0000007F40000000
0000007F40000000
0000006F30000000
0000000000000000
0000000000000000
7FFFFFFFFFFFFF40
4999999999999920
ENDCHAR
STARTCHAR acute
ENCODING 180
SWIDTH 269 0
DWIDTH 10 0
BBX 6 5 2 20
BITMAP
005FE1
01DF40
08F600
3F8000
460000
ENDCHAR
STARTCHAR paragraph
ENCODING 182
SWIDTH 513 0
DWIDTH 18 0
BBX 15 23 1 0
BITMAP
005BEFFFFFFFFF50
06FFFFE99999BF50
0EFFFFC000004F50
2FFFFFC000004F50
3FFFFFC000004F50
3FFFFFC000004F50
3FFFFFC000004F50
3FFFFFC000004F50
1FFFFFC000004F50
0BFFFFC000004F50
02DFFFC000004F50
00046EC000004F50
00000DC000004F50
00000DC000004F50
00000DC000004F50
00000DC000004F50
00000DC000004F50
00000DC000004F50
00000DC000004F50
00000DC000004F50
00000DC000004F50
00000DC000004F50
00000CB000004F50
ENDCHAR
STARTCHAR periodcentered
ENCODING 183
SWIDTH 207 0
DWIDTH 7 0
BBX 3 5 2 9
BITMAP
4FA0
4FB0
4FB0
4FB0
4FA0
ENDCHAR
STARTCHAR cedilla
ENCODING 184
SWIDTH 257 0
DWIDTH 9 0
BBX 5 7 2 -6
BITMAP
01CA00
1C8000
8FFB20
134BA0
0007C0
39AFA0
5FEB20
ENDCHAR
STARTCHAR guillemotright
ENCODING 187
SWIDTH 431 0
DWIDTH 16 0
BBX 12 13 2 3
BITMAP
200002000000
A70009800000
5F8004F80000
06F8005F9000
006F8005F900
0006F8005F90
00006F2005F2
0000BE100AE1
001BE300AE40
01BE300AE400
1BE300AE3000
9E3007E30000
830007300000
ENDCHAR
STARTCHAR questiondown
ENCODING 191
SWIDTH 473 0
DWIDTH 17 0
BBX 13 23 2 0
BITMAP
00000AF4000000
00000BF4000000
00000BF4000000
00000BF4000000
00000AF4000000
00000000000000
00000000000000
00000591000000
000009F2000000
00000AF1000000
00000CE0000000
00007F80000000
0008FB00000000
00AFA000000000
09F90000000000
2FC00000000000
6F600000005F60
7F500000005F70
6F600000007F60
4F900000009F40
0DF4000004FD00
04EFB989BFE400
0029DFFFDA2000
ENDCHAR
STARTCHAR Agrave
ENCODING 192
SWIDTH 532 0
DWIDTH 19 0
BBX 18 30 1 0
BITMAP
000068400000000000
00004FE20000000000
000006FA0000000000
0000008F5000000000
0000000AD000000000
000000000000000000
000000000000000000
0000000BFE00000000
0000002FFF40000000
0000006F9F90000000
000000BF1EE0000000
000001FB09F4000000
000006F704F9000000
00000BF200ED000000
00001FC000AF300000
00005F80005F800000
0000AF30001FD00000
0001FD00000BF30000
0005F9000006F80000
000AF4000001FD0000
000EE0000000CF3000
005FA00000007F7000
00AFB9999999AFC000
00EFFFFFFFFFFFF200
04FA0000000008F700
09F50000000003FC00
0EE10000000000DF20
4FA000000000007F70
9F4000000000002FB0
DD0000000000000BF1
ENDCHAR
STARTCHAR Aacute
ENCODING 193
SWIDTH 532 0
DWIDTH 19 0
BBX 18 30 1 0
BITMAP
000000000037700000
0000000001DF600000
0000000008F8000000
000000003FA0000000
00000000BB00000000
000000000000000000
000000000000000000
0000000BFE00000000
0000002FFF40000000
0000006F9F90000000
000000BF1EE0000000
000001FB09F4000000
000006F704F9000000
00000BF200ED000000
00001FC000AF300000
00005F80005F800000
0000AF30001FD00000
0001FD00000BF30000
0005F9000006F80000
000AF4000001FD0000
000EE0000000CF3000
005FA00000007F7000
00AFB9999999AFC000
00EFFFFFFFFFFFF200
04FA0000000008F700
09F50000000003FC00
0EE10000000000DF20
4FA000000000007F70
9F4000000000002FB0
DD0000000000000BF1
ENDCHAR
STARTCHAR Acircumflex
ENCODING 194
SWIDTH 532 0
DWIDTH 19 0
BBX 18 30 1 0
BITMAP
000000037400000000
0000001DCF20000000
0000008E1CA0000000
000002F604F4000000
00000BC000AD000000
000000000000000000
000000000000000000
0000000BFE00000000
0000002FFF40000000
0000006F9F90000000
000000BF1EE0000000
000001FB09F4000000
000006F704F9000000
00000BF200ED000000
00001FC000AF300000
00005F80005F800000
0000AF30001FD00000
0001FD00000BF30000
0005F9000006F80000
000AF4000001FD0000
000EE0000000CF3000
005FA00000007F7000
00AFB9999999AFC000
00EFFFFFFFFFFFF200
04FA0000000008F700
09F50000000003FC00
0EE10000000000DF20
4FA000000000007F70
9F4000000000002FB0
DD0000000000000BF1
ENDCHAR
STARTCHAR Atilde
ENCODING 195
SWIDTH 532 0
DWIDTH 19 0
BBX 18 30 1 0
BITMAP
000027000684000000
00004D007FFF200000
00003D00D71D500000
00002F25E10B600000
00000AFF600A600000
000000110001100000
000000000000000000
0000000BFE00000000
0000002FFF40000000
0000006F9F90000000
000000BF1EE0000000
000001FB09F4000000
000006F704F9000000
00000BF200ED000000
00001FC000AF300000
00005F80005F800000
0000AF30001FD00000
0001FD00000BF30000
0005F9000006F80000
000AF4000001FD0000
000EE0000000CF3000
005FA00000007F7000
00AFB9999999AFC000
00EFFFFFFFFFFFF200
04FA0000000008F700
09F50000000003FC00
0EE10000000000DF20
4FA000000000007F70
9F4000000000002FB0
DD0000000000000BF1
ENDCHAR
STARTCHAR Adieresis
ENCODING 196
SWIDTH 532 0
DWIDTH 19 0
BBX 18 30 1 0
BITMAP
00003F70005F500000
00004F80006F600000
00004F80006F600000
00004F80006F600000
00003F70005F500000
000000000000000000
000000000000000000
0000000BFE00000000
0000002FFF40000000
0000006F9F90000000
000000BF1EE0000000
000001FB09F4000000
000006F704F9000000
00000BF200ED000000
00001FC000AF300000
00005F80005F800000
0000AF30001FD00000
0001FD00000BF30000
0005F9000006F80000
000AF4000001FD0000
000EE0000000CF3000
005FA00000007F7000
00AFB9999999AFC000
00EFFFFFFFFFFFF200
04FA0000000008F700
09F50000000003FC00
0EE10000000000DF20
4FA000000000007F70
9F4000000000002FB0
DD0000000000000BF1
ENDCHAR
STARTCHAR Aring
ENCODING 197
SWIDTH 532 0
DWIDTH 19 0
BBX 18 31 1 0
BITMAP
0000006DFD60000000
000002FC9CF3000000
000005D000C7000000
000006A00098000000
000006B000A8000000
000004E303E6000000
000000DFFFE1000000
000000179710000000
0000000BFE00000000
0000002FFF40000000
0000006F9F90000000
000000BF1EE0000000
000001FB09F4000000
000006F704F9000000
00000BF200ED000000
00001FC000AF300000
00005F80005F800000
0000AF30001FD00000
0001FD00000BF30000
0005F9000006F80000
000AF4000001FD0000
000EE0000000CF3000
005FA00000007F7000
00AFB9999999AFC000
00EFFFFFFFFFFFF200
04FA0000000008F700
09F50000000003FC00
0EE10000000000DF20
4FA000000000007F70
9F4000000000002FB0
DD0000000000000BF1
ENDCHAR
STARTCHAR AE
ENCODING 198
SWIDTH 773 0
DWIDTH 28 0
BBX 26 23 0 0
BITMAP
000000000000BFFFFFFFFFFFF7
000000000005FFFC9999999994
00000000000DF9F60000000000
00000000006F96F60000000000
0000000001EE16F60000000000
0000000008F806F60000000000
000000002EE106F60000000000
000000009F6006F60000000000
00000003FD0006F60000000000
0000000BF50006F60000000000
0000004FC00006FC9999999940
000000CF400006FFFFFFFFFF70
000006FB000006F60000000000
00001DF3000006F60000000000
00007F90000006F60000000000
0001EFA999999BF60000000000
0009FFFFFFFFFFF60000000000
002FE100000006F60000000000
00AF6000000006F60000000000
03FD0000000006F60000000000
0CF40000000006F60000000000
5FB00000000006FC9999999994
CE200000000006FFFFFFFFFFF7
ENDCHAR
STARTCHAR Ccedilla
ENCODING 199
SWIDTH 542 0
DWIDTH 20 0
BBX 16 30 2 -7
BITMAP
0019DFFFFFFD9100
02EFDA9999ADFE20
0BF8000000008FB0
1FC0000000000CF2
4F900000000009F4
4F800000000007F5
4F800000000007F5
4F80000000000141
4F80000000000000
4F80000000000000
4F80000000000000
4F80000000000000
4F80000000000000
4F80000000000000
4F80000000000000
4F80000000000141
4F800000000007F5
4F800000000007F5
4F900000000009F4
1FC0000000000CF2
0BF7000000007FB0
02EFDA9999ADFE20
0019DFFFFFFD9100
00000007D2000000
0000007F51000000
0000007CDE300000
000000000A900000
000000001BA00000
0000007FFF500000
0000004984000000
ENDCHAR
STARTCHAR Egrave
ENCODING 200
SWIDTH 481 0
DWIDTH 17 0
BBX 12 30 3 0
BITMAP
006730000000
005FE1000000
0007F9000000
00009F400000
00000BC00000
000000000000
000000000000
EFFFFFFFFFFE
EE9999999998
ED0000000000
ED0000000000
ED0000000000
ED0000000000
ED0000000000
ED0000000000
ED0000000000
ED0000000000
EE9999999980
EFFFFFFFFFD0
ED0000000000
ED0000000000
ED0000000000
ED0000000000
ED0000000000
ED0000000000
ED0000000000
ED0000000000
ED0000000000
EF9999999998
EFFFFFFFFFFE
ENDCHAR
STARTCHAR Eacute
ENCODING 201
SWIDTH 481 0
DWIDTH 17 0
BBX 12 30 3 0
BITMAP
000000037700
0000001DF600
0000008F8000
000003FA0000
00000BB00000
000000000000
000000000000
EFFFFFFFFFFE
EE9999999998
ED0000000000
ED0000000000
ED0000000000
ED0000000000
ED0000000000
ED0000000000
ED0000000000
ED0000000000
EE9999999980
EFFFFFFFFFD0
ED0000000000
ED0000000000
ED0000000000
ED0000000000
ED0000000000
ED0000000000
ED0000000000
ED0000000000
ED0000000000
EF9999999998
EFFFFFFFFFFE
ENDCHAR
STARTCHAR Ecircumflex
ENCODING 202
SWIDTH 481 0
DWIDTH 17 0
BBX 12 30 3 0
BITMAP
000017700000
00008EE70000
0002F66F2000
000BC00CB000
005F3004F400
000000000000
000000000000
EFFFFFFFFFFE
EE9999999998
ED0000000000
ED0000000000
ED0000000000
ED0000000000
ED0000000000
ED0000000000
ED0000000000
ED0000000000
EE9999999980
EFFFFFFFFFD0
ED0000000000
ED0000000000
ED0000000000
ED0000000000
ED0000000000
ED0000000000
ED0000000000
ED0000000000
ED0000000000
EF9999999998
EFFFFFFFFFFE
ENDCHAR
STARTCHAR Edieresis
ENCODING 203
SWIDTH 481 0
DWIDTH 17 0
BBX 12 30 3 0
BITMAP
00CE0000EC00
00CE0000EC00
00CE0000EC00
00CE0000EC00
00CE0000EC00
000000000000
000000000000
EFFFFFFFFFFE
EE9999999998
ED0000000000
ED0000000000
ED0000000000
ED0000000000
ED0000000000
ED0000000000
ED0000000000
ED0000000000
EE9999999980
EFFFFFFFFFD0
ED0000000000
ED0000000000
ED0000000000
ED0000000000
ED0000000000
ED0000000000
ED0000000000
ED0000000000
ED0000000000
EF9999999998
EFFFFFFFFFFE
ENDCHAR
STARTCHAR Igrave
ENCODING 204
SWIDTH 230 0
DWIDTH 8 0
BBX 6 30 0 0
BITMAP
772000
7FC000
0AF600
00CE10
001D90
000000
000000
000BF0
000CF1
000CF1
000CF1
000CF1
000CF1
000CF1
000CF1
000CF1
000CF1
000CF1
000CF1
000CF1
000CF1
000CF1
000CF1
000CF1
000CF1
000CF1
000CF1
000CF1
000CF1
000BF0
ENDCHAR
STARTCHAR Iacute
ENCODING 205
SWIDTH 231 0
DWIDTH 8 0
BBX 6 30 3 0
BITMAP
000782
008FB0
02FD10
0BE200
5E4000
000000
000000
BF0000
CF1000
CF1000
CF1000
CF1000
CF1000
CF1000
CF1000
CF1000
CF1000
CF1000
CF1000
CF1000
CF1000
CF1000
CF1000
CF1000
CF1000
CF1000
CF1000
CF1000
CF1000
BF0000
ENDCHAR
STARTCHAR Icircumflex
ENCODING 206
SWIDTH 229 0
DWIDTH 8 0
BBX 8 30 0 0
BITMAP
00067100
006FDA00
01E84F40
09E10AD0
2F5002E6
00000000
00000000
000BF000
000CF100
000CF100
000CF100
000CF100
000CF100
000CF100
000CF100
000CF100
000CF100
000CF100
000CF100
000CF100
000CF100
000CF100
000CF100
000CF100
000CF100
000CF100
000CF100
000CF100
000CF100
000BF000
ENDCHAR
STARTCHAR Idieresis
ENCODING 207
SWIDTH 230 0
DWIDTH 8 0
BBX 8 30 0 0
BITMAP
AF1000CE
AF1000CE
AF1000CE
AF1000CE
9F1000CE
00000000
00000000
000BF000
000CF100
000CF100
000CF100
000CF100
000CF100
000CF100
000CF100
000CF100
000CF100
000CF100
000CF100
000CF100
000CF100
000CF100
000CF100
000CF100
000CF100
000CF100
000CF100
000CF100
000CF100
000BF000
ENDCHAR
STARTCHAR Eth
ENCODING 208
SWIDTH 514 0
DWIDTH 19 0
BBX 18 23 0 0
BITMAP
000CFFFFFFFFFDA200
000CF9999999ACFE40
000CF0000000006FD0
000CF0000000000AF4
000CF00000000007F6
000CF00000000005F7
000CF00000000005F7
000CF00000000005F7
000CF00000000005F7
000CF00000000005F7
000DF00000000005F7
1FFFFFFFFFF00005F7
099EF99999800005F7
000CF00000000005F7
000CF00000000005F7
000CF00000000005F7
000CF00000000005F7
000CF00000000005F7
000CF00000000007F6
000CF0000000000AF4
000CF0000000005FD0
000CF9999999ACFE40
000CFFFFFFFFFEA200
ENDCHAR
STARTCHAR Ntilde
ENCODING 209
SWIDTH 579 0
DWIDTH 21 0
BBX 15 30 3 0
BITMAP
0003600178300000
0006B009FFE00000
0006B01F62F30000
0005E18D00D40000
0001FFF700C40000
0000486000720000
0000000000000000
ED10000000000EC0
EF90000000000FC0
EFF3000000000FC0
EFFB000000000FC0
EDBF500000000FC0
ED3FD00000000FC0
ED09F70000000FC0
ED01EE2000000FC0
ED006FA000000FC0
ED000CF400000FC0
ED0003FC00000FC0
ED00009F60000FC0
ED00001EE1000FC0
ED000006F9000FC0
ED000000CF300FC0
ED0000003FB00FC0
ED00000009F50FC0
ED00000001ED1FC0
ED000000007F7FC0
ED000000000CFFC0
ED0000000004FFC0
ED0000000000AFC0
EC00000000002EC0
ENDCHAR
STARTCHAR Ograve
ENCODING 210
SWIDTH 553 0
DWIDTH 20 0
BBX 16 30 2 0
BITMAP
0001772000000000
00009FB000000000
00000BF500000000
000001CE10000000
0000002D80000000
0000000000000000
0000000000000000
0019DFFFFFFD8100
02EFDA9999ADFD10
0BF8000000009FA0
1FC0000000000DF0
4F90000000000AF2
4F800000000009F3
4F800000000009F3
4F800000000009F3
4F800000000009F3
4F800000000009F3
4F800000000009F3
4F800000000009F3
4F800000000009F3
4F800000000009F3
4F800000000009F3
4F800000000009F3
4F800000000009F3
4F800000000009F3
4F90000000000AF2
1FC0000000000DF0
0BF7000000009FA0
02EFDA9999ADFD10
0019DFFFFFFD8100
ENDCHAR
STARTCHAR Oacute
ENCODING 211
SWIDTH 553 0
DWIDTH 20 0
BBX 16 30 2 0
BITMAP
0000000003760000
000000001EF50000
000000009F700000
00000003FA000000
0000000CB0000000
0000000000000000
0000000000000000
0019DFFFFFFD8100
02EFDA9999ADFD10
0BF8000000009FA0
1FC0000000000DF0
4F90000000000AF2
4F800000000009F3
4F800000000009F3
4F800000000009F3
4F800000000009F3
4F800000000009F3
4F800000000009F3
4F800000000009F3
4F800000000009F3
4F800000000009F3
4F800000000009F3
4F800000000009F3
4F800000000009F3
4F800000000009F3
4F90000000000AF2
1FC0000000000DF0
0BF7000000009FA0
02EFDA9999ADFD10
0019DFFFFFFD8100
ENDCHAR
STARTCHAR Ocircumflex
ENCODING 212
SWIDTH 553 0
DWIDTH 20 0
BBX 16 30 2 0
BITMAP
0000001770000000
0000008DE7000000
000003F56E200000
00000BC00DA00000
00005F3004F40000
0000000000000000
0000000000000000
0019DFFFFFFD8100
02EFDA9999ADFD10
0BF8000000009FA0
1FC0000000000DF0
4F90000000000AF2
4F800000000009F3
4F800000000009F3
4F800000000009F3
4F800000000009F3
4F800000000009F3
4F800000000009F3
4F800000000009F3
4F800000000009F3
4F800000000009F3
4F800000000009F3
4F800000000009F3
4F800000000009F3
4F800000000009F3
4F90000000000AF2
1FC0000000000DF0
0BF7000000009FA0
02EFDA9999ADFD10
0019DFFFFFFD8100
ENDCHAR
STARTCHAR Otilde
ENCODING 213
SWIDTH 553 0
DWIDTH 20 0
BBX 16 30 2 0
BITMAP
0000810048600000
0000E302EFF60000
0000E308D19A0000
0000D72E605C0000
00009FFE105C0000
0000178300260000
0000000000000000
0019DFFFFFFD8100
02EFDA9999ADFD10
0BF8000000009FA0
1FC0000000000DF0
4F90000000000AF2
4F800000000009F3
4F800000000009F3
4F800000000009F3
4F800000000009F3
4F800000000009F3
4F800000000009F3
4F800000000009F3
4F800000000009F3
4F800000000009F3
4F800000000009F3
4F800000000009F3
4F800000000009F3
4F800000000009F3
4F90000000000AF2
1FC0000000000DF0
0BF7000000009FA0
02EFDA9999ADFD10
0019DFFFFFFD8100
ENDCHAR
STARTCHAR Odieresis
ENCODING 214
SWIDTH 553 0
DWIDTH 20 0
BBX 16 30 2 0
BITMAP
0000DD0000EB0000
0000DD0000FB0000
0000DD0000FB0000
0000DD0000FB0000
0000CD0000EB0000
0000000000000000
0000000000000000
0019DFFFFFFD8100
02EFDA9999ADFD10
0BF8000000009FA0
1FC0000000000DF0
4F90000000000AF2
4F800000000009F3
4F800000000009F3
4F800000000009F3
4F800000000009F3
4F800000000009F3
4F800000000009F3
4F800000000009F3
4F800000000009F3
4F800000000009F3
4F800000000009F3
4F800000000009F3
4F800000000009F3
4F800000000009F3
4F90000000000AF2
1FC0000000000DF0
0BF7000000009FA0
02EFDA9999ADFD10
0019DFFFFFFD8100
ENDCHAR
STARTCHAR multiply
ENCODING 215
SWIDTH 493 0
DWIDTH 18 0
BBX 12 11 3 6
BITMAP
3D30000006C1
4FE300006FD1
05FE3006FD20
005FE36FD200
0005FEFD2000
00009FF50000
0007FDFE3000
006FD25FE300
06FD2005FE30
5FD200005FE2
2B20000005A0
ENDCHAR
STARTCHAR Oslash
ENCODING 216
SWIDTH 559 0
DWIDTH 20 0
BBX 18 23 1 0
BITMAP
00018DFFFFFFD81061
001DFDA9999ACFC6F4
00AF9000000006FF90
01FD0000000001EF20
03FA000000000BFF40
03F9000000007FCF50
04F900000003FA7F50
04F90000001DD17F50
04F90000009F307F50
04F9000005F7007F50
04F900002EB0007F50
04F90000BE10007F50
04F90007F400007F50
04F9003F8000007F50
04F901DC0000007F50
04F909E20000007F50
04F95F500000007F50
03FAE9000000007F50
03FFC0000000009F50
01FF3000000000CF20
04FF8000000007FC00
1EBDFDA9999ADFE200
2B118DFFFFFFD92000
ENDCHAR
STARTCHAR Ugrave
ENCODING 217
SWIDTH 552 0
DWIDTH 20 0
BBX 15 30 2 0
BITMAP
0000773000000000
00005FD100000000
000008F800000000
000000AF30000000
0000000BB0000000
0000000000000000
0000000000000000
1FA0000000000CE0
2FA0000000000CF0
2FA0000000000CF0
2FA0000000000CF0
2FA0000000000CF0
2FA0000000000CF0
2FA0000000000CF0
2FA0000000000CF0
2FA0000000000CF0
2FA0000000000CF0
2FA0000000000CF0
2FA0000000000CF0
2FA0000000000CF0
2FA0000000000CF0
2FA0000000000CF0
2FA0000000000CF0
2FA0000000000CF0
2FA0000000000CF0
1FC0000000000EE0
0EE1000000002FC0
08FA10000001BF60
01CFDA9999BEFB00
0018DFFFFFEC7000
ENDCHAR
STARTCHAR Uacute
ENCODING 218
SWIDTH 552 0
DWIDTH 20 0
BBX 15 30 2 0
BITMAP
0000000003770000
000000001DF60000
000000008F800000
00000003FA000000
0000000BB0000000
0000000000000000
0000000000000000
1FA0000000000CE0
2FA0000000000CF0
2FA0000000000CF0
2FA0000000000CF0
2FA0000000000CF0
2FA0000000000CF0
2FA0000000000CF0
2FA0000000000CF0
2FA0000000000CF0
2FA0000000000CF0
2FA0000000000CF0
2FA0000000000CF0
2FA0000000000CF0
2FA0000000000CF0
2FA0000000000CF0
2FA0000000000CF0
2FA0000000000CF0
2FA0000000000CF0
1FC0000000000EE0
0EE1000000002FC0
08FA10000001BF60
01CFDA9999BEFB00
0018DFFFFFEC7000
ENDCHAR
STARTCHAR Ucircumflex
ENCODING 219
SWIDTH 552 0
DWIDTH 20 0
BBX 15 30 2 0
BITMAP
0000001770000000
0000008DE7000000
000003F57E200000
00000CB00DA00000
00005F3004F40000
0000000000000000
0000000000000000
1FA0000000000CE0
2FA0000000000CF0
2FA0000000000CF0
2FA0000000000CF0
2FA0000000000CF0
2FA0000000000CF0
2FA0000000000CF0
2FA0000000000CF0
2FA0000000000CF0
2FA0000000000CF0
2FA0000000000CF0
2FA0000000000CF0
2FA0000000000CF0
2FA0000000000CF0
2FA0000000000CF0
2FA0000000000CF0
2FA0000000000CF0
2FA0000000000CF0
1FC0000000000EE0
0EE1000000002FC0
08FA10000001BF60
01CFDA9999BEFB00
0018DFFFFFEC7000
ENDCHAR
STARTCHAR Udieresis
ENCODING 220
SWIDTH 552 0
DWIDTH 20 0
BBX 15 30 2 0
BITMAP
0000DD0000EB0000
0000DD0000FB0000
0000DD0000FB0000
0000DD0000FB0000
0000CD0000EB0000
0000000000000000
0000000000000000
1FA0000000000CE0
2FA0000000000CF0
2FA0000000000CF0
2FA0000000000CF0
2FA0000000000CF0
2FA0000000000CF0
2FA0000000000CF0
2FA0000000000CF0
2FA0000000000CF0
2FA0000000000CF0
2FA0000000000CF0
2FA0000000000CF0
2FA0000000000CF0
2FA0000000000CF0
2FA0000000000CF0
2FA0000000000CF0
2FA0000000000CF0
2FA0000000000CF0
1FC0000000000EE0
0EE1000000002FC0
08FA10000001BF60
01CFDA9999BEFB00
0018DFFFFFEC7000
ENDCHAR
STARTCHAR Yacute
ENCODING 221
SWIDTH 493 0
DWIDTH 18 0
BBX 16 30 1 0
BITMAP
0000000003770000
000000001DF60000
000000008F800000
00000003FA000000
0000000BC1000000
0000000000000000
0000000000000000
EE100000000005FA
8F80000000000CF4
1EE1000000005FB0
08F800000000CF40
01EE10000004FB00
008F7000000BF300
001EE100004FB000
0008F70000BF3000
0001EE1003FB0000
00008F700AF30000
00001ED03FB00000
000008F6AF300000
000001EEFB000000
0000008FF3000000
0000001FC0000000
0000001FB0000000
0000001FB0000000
0000001FB0000000
0000001FB0000000
0000001FB0000000
0000001FB0000000
0000001FB0000000
0000000FB0000000
ENDCHAR
STARTCHAR Thorn
ENCODING 222
SWIDTH 501 0
DWIDTH 18 0
BBX 12 23 4 0
BITMAP
CE0000000000
DF0000000000
DF0000000000
DF0000000000
DF0000000000
DFFFFFFEA300
DF9999ACFE40
DF0000005FE0
DF00000009F5
DF00000006F7
DF00000004F8
DF00000004F8
DF00000004F8
DF00000005F8
DF00000007F6
DF0000000CF3
DF000013BFB0
DFFFFFFFFB10
DF9999984000
DF0000000000
DF0000000000
DF0000000000
CE0000000000
ENDCHAR
STARTCHAR germandbls
ENCODING 223
SWIDTH 540 0
DWIDTH 19 0
BBX 15 23 2 0
BITMAP
0018DFFFFFEA3000
01CFDA9999CFF400
09F900000005FE10
0EE1000000009F50
2FB0000000005F80
2FA0000000004F80
2FA0000000004F80
2FA0000000004F80
2FA0000000006F60
2FA000000000DF20
2FA00000014CF800
2FA0003FFFFF6000
2FA000199ACFE400
2FA000000003DF30
2FA0000000003FA0
2FA0000000000ED0
2FA0000000000DE0
2FA0000000000DE0
2FA0000000000ED0
2FA0000000002FB0
2FA000000001BF60
2FA0008999BEFB00
2F9000DFFFEC7000
ENDCHAR
STARTCHAR agrave
ENCODING 224
SWIDTH 502 0
DWIDTH 18 0
BBX 14 25 2 0
BITMAP
0000DF70000000
00002EE2000000
000005FA000000
0000007F400000
00000008700000
00000000000000
00000000000000
004BEFFFFFFFF5
06FFB999999CF6
2FE300000006F6
7F7000000006F6
9F3000000006F6
AF2000000006F6
AF2000000006F6
AF2000000006F6
AF2000000006F6
AF2000000006F6
AF2000000006F6
AF2000000006F6
AF2000000006F6
9F3000000008F6
7F700000000CF6
2FE30000008FF6
06FFB999ADFAF6
004BEFFFEB36F5
ENDCHAR
STARTCHAR aacute
ENCODING 225
SWIDTH 502 0
DWIDTH 18 0
BBX 14 25 2 0
BITMAP
000000002EF400
00000000BF7000
00000004FA0000
0000000DC10000
0000003A200000
00000000000000
00000000000000
004BEFFFFFFFF5
06FFB999999CF6
2FE300000006F6
7F7000000006F6
9F3000000006F6
AF2000000006F6
AF2000000006F6
AF2000000006F6
AF2000000006F6
AF2000000006F6
AF2000000006F6
AF2000000006F6
AF2000000006F6
9F3000000008F6
7F700000000CF6
2FE30000008FF6
06FFB999ADFAF6
004BEFFFEB36F5
ENDCHAR
STARTCHAR acircumflex
ENCODING 226
SWIDTH 502 0
DWIDTH 18 0
BBX 14 25 2 0
BITMAP
000000AF900000
000005F7F30000
00000DA0BC0000
00007E203F6000
00009600079000
00000000000000
00000000000000
004BEFFFFFFFF5
06FFB999999CF6
2FE300000006F6
7F7000000006F6
9F3000000006F6
AF2000000006F6
AF2000000006F6
AF2000000006F6
AF2000000006F6
AF2000000006F6
AF2000000006F6
AF2000000006F6
AF2000000006F6
9F3000000008F6
7F700000000CF6
2FE30000008FF6
06FFB999ADFAF6
004BEFFFEB36F5
ENDCHAR
STARTCHAR atilde
ENCODING 227
SWIDTH 504 0
DWIDTH 18 0
BBX 14 25 2 0
BITMAP
0001F101CFC200
0001F108E9E700
0000E32E509900
00008FFA008900
00000110001100
00000000000000
00000000000000
004BEFFFFFFFF5
06FFB999999CF6
2FE300000006F6
7F7000000006F6
9F3000000006F6
AF2000000006F6
AF2000000006F6
AF2000000006F6
AF2000000006F6
AF2000000006F6
AF2000000006F6
AF2000000006F6
AF2000000006F6
9F3000000008F6
7F700000000CF6
2FE30000008FF6
06FFB999ADFAF6
004BEFFFEB36F5
ENDCHAR
STARTCHAR adieresis
ENCODING 228
SWIDTH 502 0
DWIDTH 18 0
BBX 14 25 2 0
BITMAP
0003F80005F600
0003F80005F600
0003F80005F600
0003F80005F600
0002F80004F600
00000000000000
00000000000000
004BEFFFFFFFF5
06FFB999999CF6
2FE300000006F6
7F7000000006F6
9F3000000006F6
AF2000000006F6
AF2000000006F6
AF2000000006F6
AF2000000006F6
AF2000000006F6
AF2000000006F6
AF2000000006F6
AF2000000006F6
9F3000000008F6
7F700000000CF6
2FE30000008FF6
06FFB999ADFAF6
004BEFFFEB36F5
ENDCHAR
STARTCHAR aring
ENCODING 229
SWIDTH 502 0
DWIDTH 18 0
BBX 14 26 2 0
BITMAP
00002BFFD50000
00009D99CE0000
0000B4000F1000
0000B5000F1000
00009D99CE0000
00002BFFD50000
00000000000000
00000000000000
004BEFFFFFFFF5
06FFB999999CF6
2FE300000006F6
7F7000000006F6
9F3000000006F6
AF2000000006F6
AF2000000006F6
AF2000000006F6
AF2000000006F6
AF2000000006F6
AF2000000006F6
AF2000000006F6
AF2000000006F6
9F3000000008F6
7F700000000CF6
2FE30000008FF6
06FFB999ADFAF6
004BEFFFEB36F5
ENDCHAR
STARTCHAR ae
ENCODING 230
SWIDTH 795 0
DWIDTH 29 0
BBX 25 18 2 0
BITMAP
00DFFFFFEC81018DEFFFD92000
00799999ADFC2DFCA99ACFE200
00000000007FEF50000005FC00
00000000000CF900000000AF20
000000000009F5000000006F40
000000000008F4000000005F50
000000000008F4000000005F50
004BEFFFFFFFF4000000005F50
07FFB999999CF5000000006F50
2FD200000008FFFFFFFFFFFF50
8F5000000008FB999999999920
AF2000000008F4000000000000
BF1000000008F4000000000000
AF2000000009F6000000000000
8F500000000DF9000000000000
2FD20000009FEF400000000000
07FFB999AEF84FFC9999999920
004BEFFFEB5003AEFFFFFFFF40
ENDCHAR
STARTCHAR ccedilla
ENCODING 231
SWIDTH 394 0
DWIDTH 14 0
BBX 11 25 2 -7
BITMAP
004BEFFFFFE0
06FFB9999980
2FE300000000
7F7000000000
9F3000000000
AF2000000000
AF2000000000
AF2000000000
AF2000000000
AF2000000000
AF2000000000
AF2000000000
AF2000000000
9F3000000000
7F7000000000
2FE300000000
06FFB9999980
004BEFFFFFE0
000001D80000
00000DC30000
00001ACEC000
00000001F300
00000004F400
00000DFFD100
000008971000
ENDCHAR
STARTCHAR egrave
ENCODING 232
SWIDTH 492 0
DWIDTH 18 0
BBX 14 25 2 0
BITMAP
000BF900000000
0001DF30000000
00003FC0000000
000005F6000000
00000079000000
00000000000000
00000000000000
004BEFFFFEA300
06FFB9999CFF40
2FE30000004FE1
7F6000000008F5
9F3000000005F8
AF2000000004F8
AF2000000004F8
AF2000000004F8
AFA99999999BF8
AFFFFFFFFFFFF8
AF200000000000
AF200000000000
AF200000000000
9F300000000000
7F600000000000
2FE30000000000
06FFB999999992
004BEFFFFFFFF4
ENDCHAR
STARTCHAR eacute
ENCODING 233
SWIDTH 492 0
DWIDTH 18 0
BBX 14 25 2 0
BITMAP
00000001DF6000
00000008FA0000
0000002FC10000
000000BE200000
000001A3000000
00000000000000
00000000000000
004BEFFFFEA300
06FFB9999CFF40
2FE30000004FE1
7F6000000008F5
9F3000000005F8
AF2000000004F8
AF2000000004F8
AF2000000004F8
AFA99999999BF8
AFFFFFFFFFFFF8
AF200000000000
AF200000000000
AF200000000000
9F300000000000
7F600000000000
2FE30000000000
06FFB999999992
004BEFFFFFFFF4
ENDCHAR
STARTCHAR ecircumflex
ENCODING 234
SWIDTH 492 0
DWIDTH 18 0
BBX 14 25 2 0
BITMAP
000003EE300000
00000CABB00000
00006F23F50000
0001E900AD1000
0004A1002A4000
00000000000000
00000000000000
004BEFFFFEA300
06FFB9999CFF40
2FE30000004FE1
7F6000000008F5
9F3000000005F8
AF2000000004F8
AF2000000004F8
AF2000000004F8
AFA99999999BF8
AFFFFFFFFFFFF8
AF200000000000
AF200000000000
AF200000000000
9F300000000000
7F600000000000
2FE30000000000
06FFB999999992
004BEFFFFFFFF4
ENDCHAR
STARTCHAR edieresis
ENCODING 235
SWIDTH 492 0
DWIDTH 18 0
BBX 14 25 2 0
BITMAP
000CD0000EB000
000DE0000EC000
000DE0000EC000
000DE0000EC000
000CD0000EB000
00000000000000
00000000000000
004BEFFFFEA300
06FFB9999CFF40
2FE30000004FE1
7F6000000008F5
9F3000000005F8
AF2000000004F8
AF2000000004F8
AF2000000004F8
AFA99999999BF8
AFFFFFFFFFFFF8
AF200000000000
AF200000000000
AF200000000000
9F300000000000
7F600000000000
2FE30000000000
06FFB999999992
004BEFFFFFFFF4
ENDCHAR
STARTCHAR igrave
ENCODING 236
SWIDTH 210 0
DWIDTH 8 0
BBX 6 25 -1 0
BITMAP
4FE200
08FA00
00AF40
001DC0
0002A3
000000
000000
0001FA
0002FA
0002FA
0002FA
0002FA
0002FA
0002FA
0002FA
0002FA
0002FA
0002FA
0002FA
0002FA
0002FA
0002FA
0002FA
0002FA
0001FA
ENDCHAR
STARTCHAR iacute
ENCODING 237
SWIDTH 208 0
DWIDTH 7 0
BBX 6 25 2 0
BITMAP
0008FC
003FE2
00BF40
05F600
087000
000000
000000
1FA000
2FA000
2FA000
2FA000
2FA000
2FA000
2FA000
2FA000
2FA000
2FA000
2FA000
2FA000
2FA000
2FA000
2FA000
2FA000
2FA000
1FA000
ENDCHAR
STARTCHAR icircumflex
ENCODING 238
SWIDTH 210 0
DWIDTH 8 0
BBX 8 25 0 0
BITMAP
006FD100
01E8E800
08E16F20
2F600DA0
690004A1
00000000
00000000
001FA000
002FA000
002FA000
002FA000
002FA000
002FA000
002FA000
002FA000
002FA000
002FA000
002FA000
002FA000
002FA000
002FA000
002FA000
002FA000
002FA000
001FA000
ENDCHAR
STARTCHAR idieresis
ENCODING 239
SWIDTH 210 0
DWIDTH 8 0
BBX 8 25 0 0
BITMAP
FA0002F8
FB0003F9
FB0003F9
FB0003F9
FA0002F8
00000000
00000000
001FA000
002FA000
002FA000
002FA000
002FA000
002FA000
002FA000
002FA000
002FA000
002FA000
002FA000
002FA000
002FA000
002FA000
002FA000
002FA000
002FA000
001FA000
ENDCHAR
STARTCHAR eth
ENCODING 240
SWIDTH 488 0
DWIDTH 18 0
BBX 14 25 2 0
BITMAP
000A7000005600
000AF50008F900
0001CF40AF8000
00001DECE50000
000005FF500000
00005ECED20000
0007FA14FD1000
007F80005FC100
0035000007FB00
00000000009F80
00048999841DE0
02CFFFFFFFC9F3
0DFA300015DEF5
5FA00000002EF5
9F400000000AF5
AF2000000008F5
AF2000000008F5
AF2000000008F5
AF2000000008F5
AF2000000008F5
9F3000000009F5
7F700000000CF2
2FE30000007FC0
06FFB999ADFE20
004BEFFFFD9200
ENDCHAR
STARTCHAR ntilde
ENCODING 241
SWIDTH 507 0
DWIDTH 18 0
BBX 14 25 2 0
BITMAP
000A6007EE5000
000B602FBCC000
000A708D03E000
0008EAF602F000
0002CEA001E000
00000000000000
00000000000000
4F729EFFFEB500
4F9DEB999BFF70
4FF91000003EF3
4FD000000006F8
4F9000000002FA
4F8000000001FB
4F8000000001FB
4F8000000001FB
4F8000000001FB
4F8000000001FB
4F8000000001FB
4F8000000001FB
4F8000000001FB
4F8000000001FB
4F8000000001FB
4F8000000001FB
4F8000000001FB
4F7000000001FA
ENDCHAR
STARTCHAR ograve
ENCODING 242
SWIDTH 496 0
DWIDTH 18 0
BBX 14 25 2 0
BITMAP
001EF500000000
0005FE10000000
00007F80000000
00000AF2000000
00000196000000
00000000000000
00000000000000
004BEFFFFEA300
06FFB9999CFF40
2FE30000004FE1
7F7000000008F5
9F3000000005F8
AF2000000004F8
AF2000000004F8
AF2000000004F8
AF2000000004F8
AF2000000004F8
AF2000000004F8
AF2000000004F8
AF2000000004F8
9F3000000005F8
7F7000000008F5
2FE30000004FE1
06FFB9999CFF50
004BEFFFFEA300
ENDCHAR
STARTCHAR oacute
ENCODING 243
SWIDTH 496 0
DWIDTH 18 0
BBX 14 25 2 0
BITMAP
000000006FD100
00000001EF3000
00000009F60000
0000003F800000
00000079000000
00000000000000
00000000000000
004BEFFFFEA300
06FFB9999CFF40
2FE30000004FE1
7F7000000008F5
9F3000000005F8
AF2000000004F8
AF2000000004F8
AF2000000004F8
AF2000000004F8
AF2000000004F8
AF2000000004F8
AF2000000004F8
AF2000000004F8
9F3000000005F8
7F7000000008F5
2FE30000004FE1
06FFB9999CFF50
004BEFFFFEA300
ENDCHAR
STARTCHAR ocircumflex
ENCODING 244
SWIDTH 496 0
DWIDTH 18 0
BBX 14 25 2 0
BITMAP
000004FE200000
00000DACA00000
00006F24F40000
0001E800BC0000
0005A1002A3000
00000000000000
00000000000000
004BEFFFFEA300
06FFB9999CFF40
2FE30000004FE1
7F7000000008F5
9F3000000005F8
AF2000000004F8
AF2000000004F8
AF2000000004F8
AF2000000004F8
AF2000000004F8
AF2000000004F8
AF2000000004F8
AF2000000004F8
9F3000000005F8
7F7000000008F5
2FE30000004FE1
06FFB9999CFF50
004BEFFFFEA300
ENDCHAR
STARTCHAR otilde
ENCODING 245
SWIDTH 496 0
DWIDTH 18 0
BBX 14 25 2 0
BITMAP
000E100AEC2000
000F206FAE8000
000E30C807A000
000CCBF206B000
0004EE7006A000
00000000000000
00000000000000
004BEFFFFEA300
06FFB9999CFF40
2FE30000004FE1
7F7000000008F5
9F3000000005F8
AF2000000004F8
AF2000000004F8
AF2000000004F8
AF2000000004F8
AF2000000004F8
AF2000000004F8
AF2000000004F8
AF2000000004F8
9F3000000005F8
7F7000000008F5
2FE30000004FE1
06FFB9999CFF50
004BEFFFFEA300
ENDCHAR
STARTCHAR odieresis
ENCODING 246
SWIDTH 496 0
DWIDTH 18 0
BBX 14 25 2 0
BITMAP
000DD0000FB000
000DD0000FB000
000DD0000FB000
000DD0000FB000
000DC0000EB000
00000000000000
00000000000000
004BEFFFFEA300
06FFB9999CFF40
2FE30000004FE1
7F7000000008F5
9F3000000005F8
AF2000000004F8
AF2000000004F8
AF2000000004F8
AF2000000004F8
AF2000000004F8
AF2000000004F8
AF2000000004F8
AF2000000004F8
9F3000000005F8
7F7000000008F5
2FE30000004FE1
06FFB9999CFF50
004BEFFFFEA300
ENDCHAR
STARTCHAR divide
ENCODING 247
SWIDTH 510 0
DWIDTH 18 0
BBX 14 13 2 5
BITMAP
0000008D000000
0000009E000000
0000008D000000
00000000000000
00000000000000
00000000000000
4FFFFFFFFFFFFA
29999999999996
00000000000000
00000000000000
0000008D000000
0000009E000000
0000008E000000
ENDCHAR
STARTCHAR oslash
ENCODING 248
SWIDTH 521 0
DWIDTH 19 0
BBX 17 18 1 0
BITMAP
00018DFFFFEC600000
001DFDA999AEF90B90
00AF80000001CFDE30
01FD000000003FE300
03FA00000001CFE000
04F90000001CEEF000
04F9000001CD2DF000
04F900001DD20DF000
04F90002DD200DF000
04F9002DD1000DF000
04F902DC10000DF000
04F93EC100000DF000
04FBEC1000000DF000
03FFB10000000EE000
04FE100000002FC000
4EEF80000001BF7000
DB2DFDA999BEFB0000
20018DFFFFEC700000
ENDCHAR
STARTCHAR ugrave
ENCODING 249
SWIDTH 507 0
DWIDTH 18 0
BBX 14 25 2 0
BITMAP
000DF700000000
0003EF20000000
00005FA0000000
000007F4000000
00000087000000
00000000000000
00000000000000
7F4000000003F8
7F5000000004F8
7F5000000004F8
7F5000000004F8
7F5000000004F8
7F5000000004F8
7F5000000004F8
7F5000000004F8
7F5000000004F8
7F5000000004F8
7F5000000004F8
7F5000000004F8
7F5000000004F8
7F6000000005F8
4F9000000009F8
0EF50000006FF8
04FFC999ADF9F8
003AEFFFEC53F8
ENDCHAR
STARTCHAR uacute
ENCODING 250
SWIDTH 507 0
DWIDTH 18 0
BBX 14 25 2 0
BITMAP
000000005FE100
00000001EF4000
00000008F60000
0000002F900000
00000069000000
00000000000000
00000000000000
7F4000000003F8
7F5000000004F8
7F5000000004F8
7F5000000004F8
7F5000000004F8
7F5000000004F8
7F5000000004F8
7F5000000004F8
7F5000000004F8
7F5000000004F8
7F5000000004F8
7F5000000004F8
7F5000000004F8
7F6000000005F8
4F9000000009F8
0EF50000006FF8
04FFC999ADF9F8
003AEFFFEC53F8
ENDCHAR
STARTCHAR ucircumflex
ENCODING 251
SWIDTH 507 0
DWIDTH 18 0
BBX 14 25 2 0
BITMAP
000002EE400000
00000BBAC00000
00005F32F60000
0000DA009E1000
0003A2001A4000
00000000000000
00000000000000
7F4000000003F8
7F5000000004F8
7F5000000004F8
7F5000000004F8
7F5000000004F8
7F5000000004F8
7F5000000004F8
7F5000000004F8
7F5000000004F8
7F5000000004F8
7F5000000004F8
7F5000000004F8
7F5000000004F8
7F6000000005F8
4F9000000009F8
0EF50000006FF8
04FFC999ADF9F8
003AEFFFEC53F8
ENDCHAR
STARTCHAR udieresis
ENCODING 252
SWIDTH 507 0
DWIDTH 18 0
BBX 14 25 2 0
BITMAP
000BE0000DC000
000CF0000ED000
000CF0000ED000
000CF0000ED000
000BE0000DC000
00000000000000
00000000000000
7F4000000003F8
7F5000000004F8
7F5000000004F8
7F5000000004F8
7F5000000004F8
7F5000000004F8
7F5000000004F8
7F5000000004F8
7F5000000004F8
7F5000000004F8
7F5000000004F8
7F5000000004F8
7F5000000004F8
7F6000000005F8
4F9000000009F8
0EF50000006FF8
04FFC999ADF9F8
003AEFFFEC53F8
ENDCHAR
STARTCHAR yacute
ENCODING 253
SWIDTH 459 0
DWIDTH 17 0
BBX 15 30 1 -5
BITMAP
000000001EF50000
00000000AF800000
00000003FB000000
0000000CD1000000
0000002A20000000
0000000000000000
0000000000000000
DD00000000005F60
9F5000000000BF20
3FA000000002FC00
0DE100000007F600
07F50000000CF100
02FB0000002FB000
00CF1000008F5000
006F600000DE1000
001FC00003FA0000
000BF20009F40000
0005F7000EE00000
0001ED004F900000
00009F30AF300000
00004F81ED000000
00000DD5F8000000
000008FEF2000000
000002CFC0000000
0000005F70000000
000000CF10000000
000004FA00000000
00003EE200000000
199BFF5000000000
2FFEA30000000000
ENDCHAR
STARTCHAR thorn
ENCODING 254
SWIDTH 508 0
DWIDTH 18 0
BBX 14 30 2 -5
BITMAP
2F900000000000
2FA00000000000
2FA00000000000
2FA00000000000
2FA00000000000
2FA00000000000
2FA00000000000
2FA19DFFFEC600
2FACEB999BEFA0
2FFA1000001CF6
2FE100000003FB
2FB000000000EE
2FA000000000DE
2FA000000000DE
2FA000000000DE
2FA000000000DE
2FA000000000DE
2FA000000000DE
2FA000000000DE
2FA000000000DE
2FB000000000EE
2FE100000003FB
2FFA1000001BF6
2FBDEB999BEFA0
2FA29DFFFEC600
2FA00000000000
2FA00000000000
2FA00000000000
2FA00000000000
2F900000000000
ENDCHAR
STARTCHAR ydieresis
ENCODING 255
SWIDTH 459 0
DWIDTH 17 0
BBX 15 30 1 -5
BITMAP
0007F30009F10000
0008F4000AF10000
0008F4000AF10000
0008F4000AF10000
0007F30009F10000
0000000000000000
0000000000000000
DD00000000005F60
9F5000000000BF20
3FA000000002FC00
0DE100000007F600
07F50000000CF100
02FB0000002FB000
00CF1000008F5000
006F600000DE1000
001FC00003FA0000
000BF20009F40000
0005F7000EE00000
0001ED004F900000
00009F30AF300000
00004F81ED000000
00000DD5F8000000
000008FEF2000000
000002CFC0000000
0000005F70000000
000000CF10000000
000004FA00000000
00003EE200000000
199BFF5000000000
2FFEA30000000000
ENDCHAR
STARTCHAR Amacron
ENCODING 256
SWIDTH 532 0
DWIDTH 19 0
BBX 18 28 1 0
BITMAP
00007FFFFFFF900000
000049999999500000
000000000000000000
000000000000000000
000000000000000000
0000000BFE00000000
0000002FFF40000000
0000006F9F90000000
000000BF1EE0000000
000001FB09F4000000
000006F704F9000000
00000BF200ED000000
00001FC000AF300000
00005F80005F800000
0000AF30001FD00000
0001FD00000BF30000
0005F9000006F80000
000AF4000001FD0000
000EE0000000CF3000
005FA00000007F7000
00AFB9999999AFC000
00EFFFFFFFFFFFF200
04FA0000000008F700
09F50000000003FC00
0EE10000000000DF20
4FA000000000007F70
9F4000000000002FB0
DD0000000000000BF1
ENDCHAR
STARTCHAR amacron
ENCODING 257
SWIDTH 502 0
DWIDTH 18 0
BBX 14 23 2 0
BITMAP
0001FFFFFFFE00
00019999999800
00000000000000
00000000000000
00000000000000
004BEFFFFFFFF5
06FFB999999CF6
2FE300000006F6
7F7000000006F6
9F3000000006F6
AF2000000006F6
AF2000000006F6
AF2000000006F6
AF2000000006F6
AF2000000006F6
AF2000000006F6
AF2000000006F6
AF2000000006F6
9F3000000008F6
7F700000000CF6
2FE30000008FF6
06FFB999ADFAF6
004BEFFFEB36F5
ENDCHAR
STARTCHAR Abreve
ENCODING 258
SWIDTH 532 0
DWIDTH 19 0
BBX 18 30 1 0
BITMAP
000007200017100000
00000F50002F200000
00000D70004F000000
000008D202BA000000
0000019FFFA1000000
000000002000000000
000000000000000000
0000000BFE00000000
0000002FFF40000000
0000006F9F90000000
000000BF1EE0000000
000001FB09F4000000
000006F704F9000000
00000BF200ED000000
00001FC000AF300000
00005F80005F800000
0000AF30001FD00000
0001FD00000BF30000
0005F9000006F80000
000AF4000001FD0000
000EE0000000CF3000
005FA00000007F7000
00AFB9999999AFC000
00EFFFFFFFFFFFF200
04FA0000000008F700
09F50000000003FC00
0EE10000000000DF20
4FA000000000007F70
9F4000000000002FB0
DD0000000000000BF1
ENDCHAR
STARTCHAR abreve
ENCODING 259
SWIDTH 502 0
DWIDTH 18 0
BBX 14 25 2 0
BITMAP
0000D60000E400
0000D70000F400
0000B90002F200
00005E401AB000
000008FFFC2000
00000012100000
00000000000000
004BEFFFFFFFF5
06FFB999999CF6
2FE300000006F6
7F7000000006F6
9F3000000006F6
AF2000000006F6
AF2000000006F6
AF2000000006F6
AF2000000006F6
AF2000000006F6
AF2000000006F6
AF2000000006F6
AF2000000006F6
9F3000000008F6
7F700000000CF6
2FE30000008FF6
06FFB999ADFAF6
004BEFFFEB36F5
ENDCHAR
STARTCHAR Aogonek
ENCODING 260
SWIDTH 532 0
DWIDTH 19 0
BBX 18 27 1 -4
BITMAP
0000000BFE00000000
0000002FFF40000000
0000006F9F90000000
000000BF1EE0000000
000001FB09F4000000
000006F704F9000000
00000BF200ED000000
00001FC000AF300000
00005F80005F800000
0000AF30001FD00000
0001FD00000BF30000
0005F9000006F80000
000AF4000001FD0000
000EE0000000CF3000
005FA00000007F7000
00AFB9999999AFC000
00EFFFFFFFFFFFF200
04FA0000000008F700
09F50000000003FC00
0EE10000000000DF20
4FA000000000007F70
9F4000000000002FB0
DD0000000000001EF1
00000000000000A800
00000000000006B000
0000000000002EA930
0000000000004EEB20
ENDCHAR
STARTCHAR aogonek
ENCODING 261
SWIDTH 502 0
DWIDTH 18 0
BBX 14 22 2 -4
BITMAP
004BEFFFFFFFF5
06FFB999999CF6
2FE300000006F6
7F7000000006F6
9F3000000006F6
AF2000000006F6
AF2000000006F6
AF2000000006F6
AF2000000006F6
AF2000000006F6
AF2000000006F6
AF2000000006F6
AF2000000006F6
9F3000000008F6
7F700000000CF6
2FE30000008FF6
06FFB999ADFAF6
004BEFFFEB38F5
00000000004D10
0000000002D300
000000000BD960
000000000AFC40
ENDCHAR
STARTCHAR Cacute
ENCODING 262
SWIDTH 542 0
DWIDTH 20 0
BBX 16 30 2 0
BITMAP
0000000003770000
000000001DF60000
000000008F800000
00000003FA000000
0000000BC1000000
0000000000000000
0000000000000000
0019DFFFFFFD9100
02EFDA9999ADFE20
0BF8000000008FB0
1FC0000000000CF2
4F900000000009F4
4F800000000007F5
4F800000000007F5
4F80000000000141
4F80000000000000
4F80000000000000
4F80000000000000
4F80000000000000
4F80000000000000
4F80000000000000
4F80000000000000
4F80000000000141
4F800000000007F5
4F800000000007F5
4F900000000009F4
1FC0000000000CF2
0BF7000000007FB0
02EFDA9999ADFE20
0019DFFFFFFD9100
ENDCHAR
STARTCHAR cacute
ENCODING 263
SWIDTH 394 0
DWIDTH 14 0
BBX 11 25 2 0
BITMAP
00000005FE10
0000001EF400
0000008F6000
000002F90000
000006900000
000000000000
000000000000
004BEFFFFFE0
06FFB9999980
2FE300000000
7F7000000000
9F3000000000
AF2000000000
AF2000000000
AF2000000000
AF2000000000
AF2000000000
AF2000000000
AF2000000000
AF2000000000
9F3000000000
7F7000000000
2FE300000000
06FFB9999980
004BEFFFFFE0
ENDCHAR
STARTCHAR Cdotaccent
ENCODING 266
SWIDTH 542 0
DWIDTH 20 0
BBX 16 29 2 0
BITMAP
0000000DD0000000
0000000DE0000000
0000000DE0000000
0000000DD0000000
0000000000000000
0000000000000000
0019DFFFFFFD9100
02EFDA9999ADFE20
0BF8000000008FB0
1FC0000000000CF2
4F900000000009F4
4F800000000007F5
4F800000000007F5
4F80000000000141
4F80000000000000
4F80000000000000
4F80000000000000
4F80000000000000
4F80000000000000
4F80000000000000
4F80000000000000
4F80000000000141
4F800000000007F5
4F800000000007F5
4F900000000009F4
1FC0000000000CF2
0BF7000000007FB0
02EFDA9999ADFE20
0019DFFFFFFD9100
ENDCHAR
STARTCHAR cdotaccent
ENCODING 267
SWIDTH 394 0
DWIDTH 14 0
BBX 11 25 2 0
BITMAP
000009F20000
000009F30000
000009F30000
000009F20000
000000000000
000000000000
000000000000
004BEFFFFFE0
06FFB9999980
2FE300000000
7F7000000000
9F3000000000
AF2000000000
AF2000000000
AF2000000000
AF2000000000
AF2000000000
AF2000000000
AF2000000000
AF2000000000
9F3000000000
7F7000000000
2FE300000000
06FFB9999980
004BEFFFFFE0
ENDCHAR
STARTCHAR Ccaron
ENCODING 268
SWIDTH 542 0
DWIDTH 20 0
BBX 16 30 2 0
BITMAP
0000371001730000
00001E8007E20000
000006F21E700000
000000CA9C000000
0000003EE4000000
0000000000000000
0000000000000000
0019DFFFFFFD9100
02EFDA9999ADFE20
0BF8000000008FB0
1FC0000000000CF2
4F900000000009F4
4F800000000007F5
4F800000000007F5
4F80000000000141
4F80000000000000
4F80000000000000
4F80000000000000
4F80000000000000
4F80000000000000
4F80000000000000
4F80000000000000
4F80000000000141
4F800000000007F5
4F800000000007F5
4F900000000009F4
1FC0000000000CF2
0BF7000000007FB0
02EFDA9999ADFE20
0019DFFFFFFD9100
ENDCHAR
STARTCHAR ccaron
ENCODING 269
SWIDTH 394 0
DWIDTH 14 0
BBX 11 25 2 0
BITMAP
000CA000BC00
0004F304F400
0000BB0DA000
00002FAE2000
000006B60000
000000000000
000000000000
004BEFFFFFE0
06FFB9999980
2FE300000000
7F7000000000
9F3000000000
AF2000000000
AF2000000000
AF2000000000
AF2000000000
AF2000000000
AF2000000000
AF2000000000
AF2000000000
9F3000000000
7F7000000000
2FE300000000
06FFB9999980
004BEFFFFFE0
ENDCHAR
STARTCHAR Dcaron
ENCODING 270
SWIDTH 557 0
DWIDTH 20 0
BBX 15 30 3 0
BITMAP
0004700017200000
0003F600AD000000
00008E13F4000000
00001D8CA0000000
000005FE20000000
0000000000000000
0000000000000000
EFFFFFFFFFD92000
EF9999999ADFE200
ED0000000007FC00
ED0000000000CF20
ED00000000008F50
ED00000000007F50
ED00000000007F50
ED00000000007F50
ED00000000007F50
ED00000000007F50
ED00000000007F50
ED00000000007F50
ED00000000007F50
ED00000000007F50
ED00000000007F50
ED00000000007F50
ED00000000007F50
ED00000000007F50
ED00000000008F50
ED0000000000CF20
ED0000000007FC00
EF9999999ADFE200
EFFFFFFFFFD92000
ENDCHAR
STARTCHAR dcaron
ENCODING 271
SWIDTH 534 0
DWIDTH 19 0
BBX 18 25 2 0
BITMAP
000000000005F606F6
000000000005F707F7
000000000005F707F6
000000000005F707F5
000000000005F707F1
000000000005F707C0
000000000005F70780
004BEFFFEC65F70630
06F9300015DDF70000
2FA00000001EF70000
7F4000000008F70000
9F2000000006F70000
AF2000000005F70000
AF2000000005F70000
AF2000000005F70000
AF2000000005F70000
AF2000000005F70000
AF2000000005F70000
AF2000000005F70000
AF2000000005F70000
9F4000000007F70000
7F700000000BF70000
2FE30000008FF70000
06FFB999ADF9F70000
004BEFFFEB35F60000
ENDCHAR
STARTCHAR Dcroat
ENCODING 272
SWIDTH 514 0
DWIDTH 19 0
BBX 18 23 0 0
BITMAP
000CFFFFFFFFFDA200
000CF9999999ACFE40
000CF0000000006FD0
000CF0000000000AF4
000CF00000000007F6
000CF00000000005F7
000CF00000000005F7
000CF00000000005F7
000DF00000000005F7
1FFFFFFFFFF00005F7
099EF99999800005F7
000CF00000000005F7
000CF00000000005F7
000CF00000000005F7
000CF00000000005F7
000CF00000000005F7
000CF00000000005F7
000CF00000000005F7
000CF00000000007F6
000CF0000000000AF4
000CF0000000005FD0
000CF9999999ACFE40
000CFFFFFFFFFEA200
ENDCHAR
STARTCHAR dcroat
ENCODING 273
SWIDTH 539 0
DWIDTH 19 0
BBX 17 25 2 0
BITMAP
000000000005F60000
000000000005F70000
000000000005F70000
000000000006F70000
00000DFFFFFFFFFF70
00000799999CFC9940
000000000005F70000
000000000005F70000
000000000005F70000
000589998405F70000
02CFFFFFFFB6F70000
0DF9200014CDF70000
5FA00000001DF70000
9F4000000008F70000
AF2000000006F70000
AF2000000005F70000
AF2000000005F70000
AF2000000005F70000
AF2000000005F70000
AF2000000005F70000
9F3000000007F70000
7F700000000BF70000
2FE30000007FF70000
06FFB999ADF9F70000
004BEFFFEB45F60000
ENDCHAR
STARTCHAR Emacron
ENCODING 274
SWIDTH 481 0
DWIDTH 17 0
BBX 12 28 3 0
BITMAP
01FFFFFFFF00
009999999800
000000000000
000000000000
000000000000
EFFFFFFFFFFE
EE9999999998
ED0000000000
ED0000000000
ED0000000000
ED0000000000
ED0000000000
ED0000000000
ED0000000000
ED0000000000
EE9999999980
EFFFFFFFFFD0
ED0000000000
ED0000000000
ED0000000000
ED0000000000
ED0000000000
ED0000000000
ED0000000000
ED0000000000
ED0000000000
EF9999999998
EFFFFFFFFFFE
ENDCHAR
STARTCHAR emacron
ENCODING 275
SWIDTH 492 0
DWIDTH 18 0
BBX 14 23 2 0
BITMAP
001FFFFFFFF000
00099999998000
00000000000000
00000000000000
00000000000000
004BEFFFFEA300
06FFB9999CFF40
2FE30000004FE1
7F6000000008F5
9F3000000005F8
AF2000000004F8
AF2000000004F8
AF2000000004F8
AFA99999999BF8
AFFFFFFFFFFFF8
AF200000000000
AF200000000000
AF200000000000
9F300000000000
7F600000000000
2FE30000000000
06FFB999999992
004BEFFFFFFFF4
ENDCHAR
STARTCHAR Ebreve
ENCODING 276
SWIDTH 481 0
DWIDTH 17 0
BBX 12 30 3 0
BITMAP
005400006200
00B90000E500
009A0001F300
004F4019D000
0007EFFC3000
000001100000
000000000000
EFFFFFFFFFFE
EE9999999998
ED0000000000
ED0000000000
ED0000000000
ED0000000000
ED0000000000
ED0000000000
ED0000000000
ED0000000000
EE9999999980
EFFFFFFFFFD0
ED0000000000
ED0000000000
ED0000000000
ED0000000000
ED0000000000
ED0000000000
ED0000000000
ED0000000000
ED0000000000
EF9999999998
EFFFFFFFFFFE
ENDCHAR
STARTCHAR ebreve
ENCODING 277
SWIDTH 492 0
DWIDTH 18 0
BBX 14 25 2 0
BITMAP
000B80000C6000
000B90000D6000
0009B0001F4000
0004F5019D0000
00007EFFD30000
00000021000000
00000000000000
004BEFFFFEA300
06FFB9999CFF40
2FE30000004FE1
7F6000000008F5
9F3000000005F8
AF2000000004F8
AF2000000004F8
AF2000000004F8
AFA99999999BF8
AFFFFFFFFFFFF8
AF200000000000
AF200000000000
AF200000000000
9F300000000000
7F600000000000
2FE30000000000
06FFB999999992
004BEFFFFFFFF4
ENDCHAR
STARTCHAR Edotaccent
ENCODING 278
SWIDTH 496 0
DWIDTH 18 0
BBX 12 29 3 0
BITMAP
00000DD00000
00000EE00000
00000EE00000
00000DD00000
000000000000
000000000000
EFFFFFFFFFFE
EE9999999998
ED0000000000
ED0000000000
ED0000000000
ED0000000000
ED0000000000
ED0000000000
ED0000000000
ED0000000000
EE9999999980
EFFFFFFFFFD0
ED0000000000
ED0000000000
ED0000000000
ED0000000000
ED0000000000
ED0000000000
ED0000000000
ED0000000000
ED0000000000
EF9999999998
EFFFFFFFFFFE
ENDCHAR
STARTCHAR edotaccent
ENCODING 279
SWIDTH 492 0
DWIDTH 18 0
BBX 14 25 2 0
BITMAP
000000ED000000
000000EE000000
000000EE000000
000000ED000000
00000000000000
00000000000000
00000000000000
004BEFFFFEA300
06FFB9999CFF40
2FE30000004FE1
7F6000000008F5
9F3000000005F8
AF2000000004F8
AF2000000004F8
AF2000000004F8
AFA99999999BF8
AFFFFFFFFFFFF8
AF200000000000
AF200000000000
AF200000000000
9F300000000000
7F600000000000
2FE30000000000
06FFB999999992
004BEFFFFFFFF4
ENDCHAR
STARTCHAR Eogonek
ENCODING 280
SWIDTH 481 0
DWIDTH 17 0
BBX 12 27 3 -4
BITMAP
EFFFFFFFFFFE
EE9999999998
ED0000000000
ED0000000000
ED0000000000
ED0000000000
ED0000000000
ED0000000000
ED0000000000
ED0000000000
EE9999999980
EFFFFFFFFFD0
ED0000000000
ED0000000000
ED0000000000
ED0000000000
ED0000000000
ED0000000000
ED0000000000
ED0000000000
ED0000000000
EF9999999998
EFFFFFFFFFFE
00000001D500
0000000A8000
0000005F9810
0000006EEA00
ENDCHAR
STARTCHAR eogonek
ENCODING 281
SWIDTH 492 0
DWIDTH 18 0
BBX 14 22 2 -4
BITMAP
004BEFFFFEA300
06FFB9999CFF40
2FE30000004FE1
7F6000000008F5
9F3000000005F8
AF2000000004F8
AF2000000004F8
AF2000000004F8
AFA99999999BF8
AFFFFFFFFFFFF8
AF200000000000
AF200000000000
AF200000000000
9F300000000000
7F600000000000
2FE30000000000
06FFB999999992
004BEFFFFFFFF4
000000000C6000
00000000990000
00000004F99100
00000003EE9000
ENDCHAR
STARTCHAR Ecaron
ENCODING 282
SWIDTH 481 0
DWIDTH 17 0
BBX 12 30 3 0
BITMAP
003710007300
001E9007E200
0006F21E7000
0000BA9D0000
00003EE40000
000000000000
000000000000
EFFFFFFFFFFE
EE9999999998
ED0000000000
ED0000000000
ED0000000000
ED0000000000
ED0000000000
ED0000000000
ED0000000000
ED0000000000
EE9999999980
EFFFFFFFFFD0
ED0000000000
ED0000000000
ED0000000000
ED0000000000
ED0000000000
ED0000000000
ED0000000000
ED0000000000
ED0000000000
EF9999999998
EFFFFFFFFFFE
ENDCHAR
STARTCHAR ecaron
ENCODING 283
SWIDTH 492 0
DWIDTH 18 0
BBX 14 25 2 0
BITMAP
0005F3004F4000
0000CB00CB0000
00003F45F30000
000009CD900000
000001AA100000
00000000000000
00000000000000
004BEFFFFEA300
06FFB9999CFF40
2FE30000004FE1
7F6000000008F5
9F3000000005F8
AF2000000004F8
AF2000000004F8
AF2000000004F8
AFA99999999BF8
AFFFFFFFFFFFF8
AF200000000000
AF200000000000
AF200000000000
9F300000000000
7F600000000000
2FE30000000000
06FFB999999992
004BEFFFFFFFF4
ENDCHAR
STARTCHAR Gcircumflex
ENCODING 284
SWIDTH 539 0
DWIDTH 19 0
BBX 15 30 2 0
BITMAP
0000002750000000
000000CCF4000000
000006F2AC000000
00001E802F700000
00008E1008E10000
0000000000000000
0000000000000000
0019DFFFFFEB4000
02EFDA9999BFF600
0BF800000003EF20
1FC0000000007F80
4F90000000003FA0
4F80000000001FB0
4F80000000001FB0
4F80000000000320
4F80000000000000
4F80000000000000
4F80000000000000
4F80000089999950
4F800000EFFFFFB0
4F80000000002FB0
4F80000000001FB0
4F80000000001FB0
4F80000000001FB0
4F80000000001FB0
4F90000000003FA0
1FC0000000006F80
0BF700000003EF30
02EFDA9999BFF700
0019DFFFFFEB4000
ENDCHAR
STARTCHAR gcircumflex
ENCODING 285
SWIDTH 506 0
DWIDTH 18 0
BBX 14 30 2 -5
BITMAP
0000007FC00000
000002F7E70000
00000AC08E1000
00004F401E9000
0000780005A100
00000000000000
00000000000000
003AEFFFFFFFF8
04FFC999999BF8
1EF400000004F8
5F9000000004F8
7F5000000004F8
8F4000000004F8
8F4000000004F8
8F4000000004F8
8F4000000004F8
8F4000000004F8
8F4000000004F8
8F4000000004F8
7F5000000006F8
5F9000000009F8
1EF40000006FF8
04FFC999ADF9F8
003AEFFFEB54F8
000000000004F8
000000000006F8
000000000009F5
00000000004FE1
049999999CFF40
06FFFFFFFEA300
ENDCHAR
STARTCHAR Gbreve
ENCODING 286
SWIDTH 539 0
DWIDTH 19 0
BBX 15 30 2 0
BITMAP
0000630000720000
0000D70000F40000
0000B90002F20000
00006E301AC00000
000008EFFC200000
0000000210000000
0000000000000000
0019DFFFFFEB4000
02EFDA9999BFF600
0BF800000003EF20
1FC0000000007F80
4F90000000003FA0
4F80000000001FB0
4F80000000001FB0
4F80000000000320
4F80000000000000
4F80000000000000
4F80000000000000
4F80000089999950
4F800000EFFFFFB0
4F80000000002FB0
4F80000000001FB0
4F80000000001FB0
4F80000000001FB0
4F80000000001FB0
4F90000000003FA0
1FC0000000006F80
0BF700000003EF30
02EFDA9999BFF700
0019DFFFFFEB4000
ENDCHAR
STARTCHAR gbreve
ENCODING 287
SWIDTH 506 0
DWIDTH 18 0
BBX 14 30 2 -5
BITMAP
00008B0000A900
00008B0000B900
00006D0000D600
00002F7017F200
000005EFFE5000
00000002200000
00000000000000
003AEFFFFFFFF8
04FFC999999BF8
1EF400000004F8
5F9000000004F8
7F5000000004F8
8F4000000004F8
8F4000000004F8
8F4000000004F8
8F4000000004F8
8F4000000004F8
8F4000000004F8
8F4000000004F8
7F5000000006F8
5F9000000009F8
1EF40000006FF8
04FFC999ADF9F8
003AEFFFEB54F8
000000000004F8
000000000006F8
000000000009F5
00000000004FE1
049999999CFF40
06FFFFFFFEA300
ENDCHAR
STARTCHAR Gdotaccent
ENCODING 288
SWIDTH 539 0
DWIDTH 19 0
BBX 15 29 2 0
BITMAP
0000003F80000000
0000003F90000000
0000003F90000000
0000003F80000000
0000000000000000
0000000000000000
0019DFFFFFEB4000
02EFDA9999BFF600
0BF800000003EF20
1FC0000000007F80
4F90000000003FA0
4F80000000001FB0
4F80000000001FB0
4F80000000000320
4F80000000000000
4F80000000000000
4F80000000000000
4F80000089999950
4F800000EFFFFFB0
4F80000000002FB0
4F80000000001FB0
4F80000000001FB0
4F80000000001FB0
4F80000000001FB0
4F90000000003FA0
1FC0000000006F80
0BF700000003EF30
02EFDA9999BFF700
0019DFFFFFEB4000
ENDCHAR
STARTCHAR gdotaccent
ENCODING 289
SWIDTH 506 0
DWIDTH 18 0
BBX 14 30 2 -5
BITMAP
0000000FB00000
0000000FC00000
0000000FC00000
0000000FB00000
00000000000000
00000000000000
00000000000000
003AEFFFFFFFF8
04FFC999999BF8
1EF400000004F8
5F9000000004F8
7F5000000004F8
8F4000000004F8
8F4000000004F8
8F4000000004F8
8F4000000004F8
8F4000000004F8
8F4000000004F8
8F4000000004F8
7F5000000006F8
5F9000000009F8
1EF40000006FF8
04FFC999ADF9F8
003AEFFFEB54F8
000000000004F8
000000000006F8
000000000009F5
00000000004FE1
049999999CFF40
06FFFFFFFEA300
ENDCHAR
STARTCHAR uni0122
ENCODING 290
SWIDTH 539 0
DWIDTH 19 0
BBX 15 31 2 -8
BITMAP
0019DFFFFFEB4000
02EFDA9999BFF600
0BF800000003EF20
1FC0000000007F80
4F90000000003FA0
4F80000000001FB0
4F80000000001FB0
4F80000000000320
4F80000000000000
4F80000000000000
4F80000000000000
4F80000089999950
4F800000EFFFFFB0
4F80000000002FB0
4F80000000001FB0
4F80000000001FB0
4F80000000001FB0
4F80000000001FB0
4F90000000003FA0
1FC0000000006F80
0BF700000003EF30
02EFDA9999BFF700
0019DFFFFFEB4000
0000000000000000
00000009F3000000
0000000AF4000000
0000000AF3000000
0000000AE0000000
0000000AA0000000
0000000A60000000
0000000910000000
ENDCHAR
STARTCHAR uni0123
ENCODING 291
SWIDTH 506 0
DWIDTH 18 0
BBX 14 32 2 -5
BITMAP
00000000900000
00000004B00000
00000009B00000
0000000DB00000
0000002FB00000
0000003FB00000
0000002FB00000
00000000000000
00000000000000
003AEFFFFFFFF8
04FFC999999BF8
1EF400000004F8
5F9000000004F8
7F5000000004F8
8F4000000004F8
8F4000000004F8
8F4000000004F8
8F4000000004F8
8F4000000004F8
8F4000000004F8
8F4000000004F8
7F5000000006F8
5F9000000009F8
1EF40000006FF8
04FFC999ADF9F8
003AEFFFEB54F8
000000000004F8
000000000006F8
000000000009F5
00000000004FE1
049999999CFF40
06FFFFFFFEA300
ENDCHAR
STARTCHAR hcircumflex
ENCODING 293
SWIDTH 507 0
DWIDTH 18 0
BBX 14 27 2 0
BITMAP
0000005ED20000
000001E7BA0000
4F7009D03F5000
4F804F4009E100
4F803400015100
4F800000000000
4F800000000000
4F800000000000
4F800000000000
4F829EFFFEB500
4F9DEB999BFF70
4FF91000003EF3
4FD000000006F8
4F9000000002FA
4F8000000001FB
4F8000000001FB
4F8000000001FB
4F8000000001FB
4F8000000001FB
4F8000000001FB
4F8000000001FB
4F8000000001FB
4F8000000001FB
4F8000000001FB
4F8000000001FB
4F8000000001FB
4F7000000001FA
ENDCHAR
STARTCHAR Hbar
ENCODING 294
SWIDTH 523 0
DWIDTH 19 0
BBX 20 23 0 0
BITMAP
000BF00000000002F900
000CF10000000003FA00
000CF10000000003FA00
000CF10000000003FA00
000CF10000000003FA00
1FFFFFFFFFFFFFFFFFFD
099EFA999999999BFD98
000CF10000000003FA00
000CF10000000003FA00
000CF10000000003FA00
000CF10000000003FA00
000CFFFFFFFFFFFFFA00
000CFA999999999BFA00
000CF10000000003FA00
000CF10000000003FA00
000CF10000000003FA00
000CF10000000003FA00
000CF10000000003FA00
000CF10000000003FA00
000CF10000000003FA00
000CF10000000003FA00
000CF10000000003FA00
000BF00000000003F900
ENDCHAR
STARTCHAR hbar
ENCODING 295
SWIDTH 544 0
DWIDTH 20 0
BBX 18 25 0 0
BITMAP
0001FB000000000000
0001FC000000000000
0001FC000000000000
0002FC000000000000
1FFFFFFFFFFF400000
099AFE999999200000
0001FC000000000000
0001FC000000000000
0001FC000000000000
0001FC037999861000
0001FC7FFFFFFFF600
0001FEE7200026EF40
0001FF500000004FB0
0001FE000000000EF0
0001FC000000000CF1
0001FC000000000CF1
0001FC000000000CF1
0001FC000000000CF1
0001FC000000000CF1
0001FC000000000CF1
0001FC000000000CF1
0001FC000000000CF1
0001FC000000000CF1
0001FC000000000CF1
0001FB000000000BF1
ENDCHAR
STARTCHAR Itilde
ENCODING 296
SWIDTH 230 0
DWIDTH 8 0
BBX 8 30 0 0
BITMAP
63002871
B600DFF9
B605E26D
9A1C902F
5FFF302F
06840018
00000000
000BF000
000CF100
000CF100
000CF100
000CF100
000CF100
000CF100
000CF100
000CF100
000CF100
000CF100
000CF100
000CF100
000CF100
000CF100
000CF100
000CF100
000CF100
000CF100
000CF100
000CF100
000CF100
000BF000
ENDCHAR
STARTCHAR itilde
ENCODING 297
SWIDTH 210 0
DWIDTH 8 0
BBX 9 25 -1 0
BITMAP
1F001BFB10
1F107FAE60
0F20D70990
0DCBE10790
05EE600790
0000000000
0000000000
0001FA0000
0002FA0000
0002FA0000
0002FA0000
0002FA0000
0002FA0000
0002FA0000
0002FA0000
0002FA0000
0002FA0000
0002FA0000
0002FA0000
0002FA0000
0002FA0000
0002FA0000
0002FA0000
0002FA0000
0001FA0000
ENDCHAR
STARTCHAR Imacron
ENCODING 298
SWIDTH 230 0
DWIDTH 8 0
BBX 9 28 0 0
BITMAP
DFFFFFFF20
8999999910
0000000000
0000000000
0000000000
000BF00000
000CF10000
000CF10000
000CF10000
000CF10000
000CF10000
000CF10000
000CF10000
000CF10000
000CF10000
000CF10000
000CF10000
000CF10000
000CF10000
000CF10000
000CF10000
000CF10000
000CF10000
000CF10000
000CF10000
000CF10000
000CF10000
000BF00000
ENDCHAR
STARTCHAR imacron
ENCODING 299
SWIDTH 208 0
DWIDTH 7 0
BBX 9 23 -1 0
BITMAP
4FFFFFFFC0
2999999960
0000000000
0000000000
0000000000
0001FA0000
0002FA0000
0002FA0000
0002FA0000
0002FA0000
0002FA0000
0002FA0000
0002FA0000
0002FA0000
0002FA0000
0002FA0000
0002FA0000
0002FA0000
0002FA0000
0002FA0000
0002FA0000
0002FA0000
0001FA0000
ENDCHAR
STARTCHAR Ibreve
ENCODING 300
SWIDTH 231 0
DWIDTH 8 0
BBX 8 30 0 0
BITMAP
36000035
6E00008B
4F1000A9
1D8104F3
03CFFE60
00011000
00000000
000BF000
000CF100
000CF100
000CF100
000CF100
000CF100
000CF100
000CF100
000CF100
000CF100
000CF100
000CF100
000CF100
000CF100
000CF100
000CF100
000CF100
000CF100
000CF100
000CF100
000CF100
000CF100
000BF000
ENDCHAR
STARTCHAR ibreve
ENCODING 301
SWIDTH 211 0
DWIDTH 8 0
BBX 8 25 0 0
BITMAP
B80000D5
B90000E5
9B0001F3
4F5019D0
07EFFC20
00021000
00000000
001FA000
002FA000
002FA000
002FA000
002FA000
002FA000
002FA000
002FA000
002FA000
002FA000
002FA000
002FA000
002FA000
002FA000
002FA000
002FA000
002FA000
001FA000
ENDCHAR
STARTCHAR Iogonek
ENCODING 302
SWIDTH 230 0
DWIDTH 8 0
BBX 5 27 1 -4
BITMAP
00BF00
00CF10
00CF10
00CF10
00CF10
00CF10
00CF10
00CF10
00CF10
00CF10
00CF10
00CF10
00CF10
00CF10
00CF10
00CF10
00CF10
00CF10
00CF10
00CF10
00CF10
00CF10
00BF00
04D100
1D4000
AD9700
BFD700
ENDCHAR
STARTCHAR iogonek
ENCODING 303
SWIDTH 210 0
DWIDTH 8 0
BBX 5 29 0 -4
BITMAP
001FA0
002FA0
002FA0
001FA0
000000
000000
000000
001FA0
002FA0
002FA0
002FA0
002FA0
002FA0
002FA0
002FA0
002FA0
002FA0
002FA0
002FA0
002FA0
002FA0
002FA0
002FA0
002FA0
002FA0
009900
05C000
1EB930
1DEA20
ENDCHAR
STARTCHAR Idotaccent
ENCODING 304
SWIDTH 230 0
DWIDTH 8 0
BBX 3 28 3 0
BITMAP
BF00
CF10
CF10
BF00
0000
BF00
CF10
CF10
CF10
CF10
CF10
CF10
CF10
CF10
CF10
CF10
CF10
CF10
CF10
CF10
CF10
CF10
CF10
CF10
CF10
CF10
CF10
BF00
ENDCHAR
STARTCHAR dotlessi
ENCODING 305
SWIDTH 212 0
DWIDTH 8 0
BBX 3 18 2 0
BITMAP
1FA0
1FB0
1FB0
1FB0
1FB0
1FB0
1FB0
1FB0
1FB0
1FB0
1FB0
1FB0
1FB0
1FB0
1FB0
1FB0
1FB0
1FA0
ENDCHAR
STARTCHAR IJ
ENCODING 306
SWIDTH 721 0
DWIDTH 26 0
BBX 21 23 3 0
BITMAP
AF10000000000000009F20
BF10000000000000009F30
BF10000000000000009F30
BF10000000000000009F30
BF10000000000000009F30
BF10000000000000009F30
BF10000000000000009F30
BF10000000000000009F30
BF10000000000000009F30
BF10000000000000009F30
BF10000000000000009F30
BF10000000000000009F30
BF10000000000000009F30
BF10000000000000009F30
BF10003710000000009F30
BF10008F40000000009F30
BF10008F40000000009F30
BF10008F40000000009F30
BF10007F6000000000BF20
BF10005F9000000000EE00
BF10001EF400000009F900
BF100004FFC9999ADFD100
AF1000003AEFFFFFD81000
ENDCHAR
STARTCHAR ij
ENCODING 307
SWIDTH 419 0
DWIDTH 15 0
BBX 11 30 2 -5
BITMAP
1FA000008F30
2FA000009F30
2FA000009F30
1FA000008F30
000000000000
000000000000
000000000000
1FA000008F30
2FA000009F30
2FA000009F30
2FA000009F30
2FA000009F30
2FA000009F30
2FA000009F30
2FA000009F30
2FA000009F30
2FA000009F30
2FA000009F30
2FA000009F30
2FA000009F30
2FA000009F30
2FA000009F30
2FA000009F30
2FA000009F30
1FA000009F30
00000000BF20
00000000DF10
00000009FA00
00029ADFD100
0005FFD81000
ENDCHAR
STARTCHAR Jcircumflex
ENCODING 308
SWIDTH 494 0
DWIDTH 18 0
BBX 17 30 1 0
BITMAP
000000000000771000
000000000007ED9000
00000000002E75F300
0000000000AD00BC00
0000000003F4003F50
000000000000000000
000000000000000000
000000000000AF1000
000000000000BF1000
000000000000BF1000
000000000000BF1000
000000000000BF1000
000000000000BF1000
000000000000BF1000
000000000000BF1000
000000000000BF1000
000000000000BF1000
000000000000BF1000
000000000000BF1000
000000000000BF1000
000000000000BF1000
461000000000BF1000
9F3000000000BF1000
9F3000000000BF1000
9F3000000000BF1000
9F4000000000CF0000
6F8000000001ED0000
1EE30000001AF80000
05FFC9999AEFC10000
003AEFFFFFC7000000
ENDCHAR
STARTCHAR jcircumflex
ENCODING 309
SWIDTH 209 0
DWIDTH 8 0
BBX 10 30 -2 -5
BITMAP
00006FD100
0001E8E800
0009D16F20
003F600DA0
00690004B1
0000000000
0000000000
00001FA000
00002FA000
00002FA000
00002FA000
00002FA000
00002FA000
00002FA000
00002FA000
00002FA000
00002FA000
00002FA000
00002FA000
00002FA000
00002FA000
00002FA000
00002FA000
00002FA000
00002FA000
00003FA000
00007F7000
0003EF2000
79CFF60000
DFEB400000
ENDCHAR
STARTCHAR uni0136
ENCODING 310
SWIDTH 530 0
DWIDTH 19 0
BBX 16 32 3 -9
BITMAP
EC0000000004ED00
ED000000001EF300
ED00000000BF6000
ED00000008FA0000
ED0000004FD10000
ED000002EF300000
ED00000BF7000000
ED00008FB0000000
ED0004FE10000000
ED002EF400000000
ED00CFD100000000
ED08FDF900000000
ED4FB1CF40000000
EDDD102FD1000000
EFE20007F9000000
EF400000BF400000
ED0000002ED10000
ED00000006FA0000
ED00000000BF5000
ED000000002EE100
ED0000000005FA00
ED0000000000AF50
EC00000000001DE1
0000000000000000
0000005F70000000
0000006F80000000
0000006F70000000
0000006F40000000
0000006F10000000
0000006A00000000
0000006600000000
0000002100000000
ENDCHAR
STARTCHAR uni0137
ENCODING 311
SWIDTH 431 0
DWIDTH 16 0
BBX 13 33 2 -8
BITMAP
4F700000000000
4F800000000000
4F800000000000
4F800000000000
4F800000000000
4F800000000000
4F800000000000
4F80000000BF40
4F80000007FA00
4F8000002FE100
4F800000CF5000
4F800007FA0000
4F80002FE10000
4F8000CF500000
4F8007FA000000
4F801FE1000000
4F800BF4000000
4F8002EE100000
4F80005FB00000
4F80000AF60000
4F800001EE2000
4F8000004FC000
4F80000009F800
4F80000001DF40
4F700000003ED0
00000000000000
000005F8000000
000006F8000000
000006F7000000
000006F4000000
000006E0000000
00000690000000
00000540000000
ENDCHAR
STARTCHAR Lacute
ENCODING 313
SWIDTH 451 0
DWIDTH 16 0
BBX 13 30 3 0
BITMAP
00177100000000
00AF9000000000
05FB0000000000
1DD10000000000
7D200000000000
00000000000000
00000000000000
EC000000000000
ED000000000000
ED000000000000
ED000000000000
ED000000000000
ED000000000000
ED000000000000
ED000000000000
ED000000000000
ED000000000000
ED000000000000
ED000000000000
ED000000000000
ED000000000000
ED000000000000
ED000000000000
ED000000000000
ED000000000000
ED000000000000
ED000000000000
ED000000000000
EF999999999920
EFFFFFFFFFFF40
ENDCHAR
STARTCHAR lacute
ENCODING 314
SWIDTH 207 0
DWIDTH 7 0
BBX 6 31 2 0
BITMAP
0009FB
004FD1
00DE20
08F400
074000
000000
1FA000
2FA000
2FA000
2FA000
2FA000
2FA000
2FA000
2FA000
2FA000
2FA000
2FA000
2FA000
2FA000
2FA000
2FA000
2FA000
2FA000
2FA000
2FA000
2FA000
2FA000
2FA000
2FA000
2FA000
1FA000
ENDCHAR
STARTCHAR uni013B
ENCODING 315
SWIDTH 451 0
DWIDTH 16 0
BBX 13 31 3 -8
BITMAP
EC000000000000
ED000000000000
ED000000000000
ED000000000000
ED000000000000
ED000000000000
ED000000000000
ED000000000000
ED000000000000
ED000000000000
ED000000000000
ED000000000000
ED000000000000
ED000000000000
ED000000000000
ED000000000000
ED000000000000
ED000000000000
ED000000000000
ED000000000000
ED000000000000
EF999999999920
EFFFFFFFFFFF40
00000000000000
00000BF1000000
00000CF2000000
00000CF1000000
00000CC0000000
00000C80000000
00000C30000000
00000900000000
ENDCHAR
STARTCHAR uni013C
ENCODING 316
SWIDTH 211 0
DWIDTH 8 0
BBX 3 33 2 -8
BITMAP
1FA0
2FA0
2FA0
2FA0
2FA0
2FA0
2FA0
2FA0
2FA0
2FA0
2FA0
2FA0
2FA0
2FA0
2FA0
2FA0
2FA0
2FA0
2FA0
2FA0
2FA0
2FA0
2FA0
2FA0
1FA0
0000
2FB0
2FB0
2FA0
2F70
2F30
2D00
2800
ENDCHAR
STARTCHAR Lcaron
ENCODING 317
SWIDTH 451 0
DWIDTH 16 0
BBX 13 23 3 0
BITMAP
EC000000DF0000
ED000000DF0000
ED000000DF0000
ED000000DE0000
ED000000DA0000
ED000000D60000
ED000000D10000
ED000000900000
ED000000000000
ED000000000000
ED000000000000
ED000000000000
ED000000000000
ED000000000000
ED000000000000
ED000000000000
ED000000000000
ED000000000000
ED000000000000
ED000000000000
ED000000000000
EF999999999920
EFFFFFFFFFFF40
ENDCHAR
STARTCHAR lcaron
ENCODING 318
SWIDTH 274 0
DWIDTH 10 0
BBX 8 25 2 0
BITMAP
1FA009F4
2FA009F4
2FA009F4
2FA009F2
2FA009E0
2FA00990
2FA00950
2FA00810
2FA00000
2FA00000
2FA00000
2FA00000
2FA00000
2FA00000
2FA00000
2FA00000
2FA00000
2FA00000
2FA00000
2FA00000
2FA00000
2FA00000
2FA00000
2FA00000
1FA00000
ENDCHAR
STARTCHAR Ldot
ENCODING 319
SWIDTH 500 0
DWIDTH 18 0
BBX 13 23 3 0
BITMAP
DD000000000000
EE000000000000
EE000000000000
EE000000000000
EE000000000000
EE000000000000
EE000000000000
EE000000000000
EE000000000000
EE00000FE00000
EE00000FF00000
EE00000FF00000
EE00000FF00000
EE00000FE00000
EE000000000000
EE000000000000
EE000000000000
EE000000000000
EE000000000000
EE000000000000
EE000000000000
EF999999999920
DFFFFFFFFFFF50
ENDCHAR
STARTCHAR ldot
ENCODING 320
SWIDTH 314 0
DWIDTH 11 0
BBX 8 25 2 0
BITMAP
1FB00000
1FB00000
1FB00000
1FB00000
1FB00000
1FB00000
1FB00000
1FB00000
1FB00000
1FB00000
1FB00000
1FB003FB
1FB004FB
1FB004FB
1FB004FB
1FB003FB
1FB00000
1FB00000
1FB00000
1FB00000
1FB00000
1FB00000
1FB00000
1FB00000
1FB00000
ENDCHAR
STARTCHAR Lslash
ENCODING 321
SWIDTH 504 0
DWIDTH 18 0
BBX 16 23 0 0
BITMAP
000AF20000000000
000AF20000000000
000AF20000000000
000AF20000000000
000AF20010000000
000AF217E3000000
000AF7DFA1000000
000AFFC400000000
02AFF60000000000
6FEEF20000000000
A91AF20000000000
000AF20000000000
000AF20000000000
000AF20000000000
000AF20000000000
000AF20000000000
000AF20000000000
000AF20000000000
000AF20000000000
000AF20000000000
000AF20000000000
000AFA9999999994
000AFFFFFFFFFFF8
ENDCHAR
STARTCHAR lslash
ENCODING 322
SWIDTH 296 0
DWIDTH 11 0
BBX 10 25 0 0
BITMAP
00009F3000
00009F4000
00009F4000
00009F4000
00009F4000
00009F4000
00009F4000
00009F419A
00009F9EF6
0000AFFB20
003CFF6000
0AFECF4000
1F819F4000
01009F4000
00009F4000
00009F4000
00009F4000
00009F4000
00009F4000
00009F4000
00009F4000
00009F4000
00009F4000
00009F4000
00009F3000
ENDCHAR
STARTCHAR Nacute
ENCODING 323
SWIDTH 579 0
DWIDTH 21 0
BBX 15 30 3 0
BITMAP
0000000003770000
000000001EF50000
000000009F700000
00000003FA000000
0000000BB0000000
0000000000000000
0000000000000000
ED10000000000EC0
EF90000000000FC0
EFF3000000000FC0
EFFB000000000FC0
EDBF500000000FC0
ED3FD00000000FC0
ED09F70000000FC0
ED01EE2000000FC0
ED006FA000000FC0
ED000CF400000FC0
ED0003FC00000FC0
ED00009F60000FC0
ED00001EE1000FC0
ED000006F9000FC0
ED000000CF300FC0
ED0000003FB00FC0
ED00000009F50FC0
ED00000001ED1FC0
ED000000007F7FC0
ED000000000CFFC0
ED0000000004FFC0
ED0000000000AFC0
EC00000000002EC0
ENDCHAR
STARTCHAR nacute
ENCODING 324
SWIDTH 507 0
DWIDTH 18 0
BBX 14 25 2 0
BITMAP
000000002EF300
00000000BF7000
00000005FA0000
0000001DC00000
0000004A200000
00000000000000
00000000000000
4F729EFFFEB500
4F9DEB999BFF70
4FF91000003EF3
4FD000000006F8
4F9000000002FA
4F8000000001FB
4F8000000001FB
4F8000000001FB
4F8000000001FB
4F8000000001FB
4F8000000001FB
4F8000000001FB
4F8000000001FB
4F8000000001FB
4F8000000001FB
4F8000000001FB
4F8000000001FB
4F7000000001FA
ENDCHAR
STARTCHAR uni0145
ENCODING 325
SWIDTH 579 0
DWIDTH 21 0
BBX 15 31 3 -8
BITMAP
ED10000000000EC0
EF90000000000FC0
EFF3000000000FC0
EFFB000000000FC0
EDBF500000000FC0
ED3FD00000000FC0
ED09F70000000FC0
ED01EE2000000FC0
ED006FA000000FC0
ED000CF400000FC0
ED0003FC00000FC0
ED00009F60000FC0
ED00001EE1000FC0
ED000006F9000FC0
ED000000CF300FC0
ED0000003FB00FC0
ED00000009F50FC0
ED00000001ED1FC0
ED000000007F7FC0
ED000000000CFFC0
ED0000000004FFC0
ED0000000000AFC0
EC00000000002EC0
0000000000000000
0000006F60000000
0000006F70000000
0000006F60000000
0000006F20000000
0000006D00000000
0000006800000000
0000006300000000
ENDCHAR
STARTCHAR uni0146
ENCODING 326
SWIDTH 505 0
DWIDTH 18 0
BBX 14 26 2 -8
BITMAP
4F729EFFFEB500
4F9DEB999BFF70
4FF91000003EF3
4FD000000006F8
4F9000000002FA
4F8000000001FB
4F8000000001FB
4F8000000001FB
4F8000000001FB
4F8000000001FB
4F8000000001FB
4F8000000001FB
4F8000000001FB
4F8000000001FB
4F8000000001FB
4F8000000001FB
4F8000000001FB
4F7000000001FA
00000000000000
000000AF200000
000000BF300000
000000BF200000
000000BE000000
000000B9000000
000000B4000000
00000090000000
ENDCHAR
STARTCHAR Ncaron
ENCODING 327
SWIDTH 579 0
DWIDTH 21 0
BBX 15 30 3 0
BITMAP
0000740004700000
00008E101E800000
00001D909D100000
000005F5F5000000
000000AFA0000000
0000000000000000
0000000000000000
ED10000000000EC0
EF90000000000FC0
EFF3000000000FC0
EFFB000000000FC0
EDBF500000000FC0
ED3FD00000000FC0
ED09F70000000FC0
ED01EE2000000FC0
ED006FA000000FC0
ED000CF400000FC0
ED0003FC00000FC0
ED00009F60000FC0
ED00001EE1000FC0
ED000006F9000FC0
ED000000CF300FC0
ED0000003FB00FC0
ED00000009F50FC0
ED00000001ED1FC0
ED000000007F7FC0
ED000000000CFFC0
ED0000000004FFC0
ED0000000000AFC0
EC00000000002EC0
ENDCHAR
STARTCHAR ncaron
ENCODING 328
SWIDTH 507 0
DWIDTH 18 0
BBX 14 25 2 0
BITMAP
0001F6001E8000
00008E108E1000
00001E82F60000
000006EBC00000
0000009A300000
00000000000000
00000000000000
4F729EFFFEB500
4F9DEB999BFF70
4FF91000003EF3
4FD000000006F8
4F9000000002FA
4F8000000001FB
4F8000000001FB
4F8000000001FB
4F8000000001FB
4F8000000001FB
4F8000000001FB
4F8000000001FB
4F8000000001FB
4F8000000001FB
4F8000000001FB
4F8000000001FB
4F8000000001FB
4F7000000001FA
ENDCHAR
STARTCHAR Eng
ENCODING 330
SWIDTH 519 0
DWIDTH 19 0
BBX 15 28 3 -5
BITMAP
DE10000000000DC0
EFA0000000000ED0
EFF3000000000ED0
EFFC000000000ED0
EEAF600000000ED0
EE2FE10000000ED0
EE08F80000000ED0
EE01DF2000000ED0
EE005FB000000ED0
EE000BF400000ED0
EE0002FD00000ED0
EE00008F70000ED0
EE00001DE1000ED0
EE000005F9000ED0
EE000000BF300ED0
EE0000003FC00ED0
EE00000009F50ED0
EE00000001EE1ED0
EE000000006F8ED0
EE000000000CFFD0
EE0000000003FFD0
EE00000000009FD0
DD00000000001FD0
0000000000001FC0
0000000000004FA0
000000000002DF40
0000000059BFF900
000000009FEC5000
ENDCHAR
STARTCHAR eng
ENCODING 331
SWIDTH 507 0
DWIDTH 18 0
BBX 14 23 2 -5
BITMAP
4F729EFFFEB400
4F9DEB999BFF70
4FF91000003EF3
4FD000000006F8
4F9000000002FA
4F8000000001FB
4F8000000001FB
4F8000000001FB
4F8000000001FB
4F8000000001FB
4F8000000001FB
4F8000000001FB
4F8000000001FB
4F8000000001FB
4F8000000001FB
4F8000000001FB
4F8000000001FB
4F7000000001FB
000000000002FA
000000000006F8
00000000003DF3
000000069BFF70
0000000BFEB400
ENDCHAR
STARTCHAR Omacron
ENCODING 332
SWIDTH 553 0
DWIDTH 20 0
BBX 16 28 2 0
BITMAP
0001FFFFFFFE0000
0001999999980000
0000000000000000
0000000000000000
0000000000000000
0019DFFFFFFD8100
02EFDA9999ADFD10
0BF8000000009FA0
1FC0000000000DF0
4F90000000000AF2
4F800000000009F3
4F800000000009F3
4F800000000009F3
4F800000000009F3
4F800000000009F3
4F800000000009F3
4F800000000009F3
4F800000000009F3
4F800000000009F3
4F800000000009F3
4F800000000009F3
4F800000000009F3
4F800000000009F3
4F90000000000AF2
1FC0000000000DF0
0BF7000000009FA0
02EFDA9999ADFD10
0019DFFFFFFD8100
ENDCHAR
STARTCHAR omacron
ENCODING 333
SWIDTH 496 0
DWIDTH 18 0
BBX 14 23 2 0
BITMAP
002FFFFFFFE000
00199999998000
00000000000000
00000000000000
00000000000000
004BEFFFFEA300
06FFB9999CFF40
2FE30000004FE1
7F7000000008F5
9F3000000005F8
AF2000000004F8
AF2000000004F8
AF2000000004F8
AF2000000004F8
AF2000000004F8
AF2000000004F8
AF2000000004F8
AF2000000004F8
9F3000000005F8
7F7000000008F5
2FE30000004FE1
06FFB9999CFF50
004BEFFFFEA300
ENDCHAR
STARTCHAR Obreve
ENCODING 334
SWIDTH 553 0
DWIDTH 20 0
BBX 16 30 2 0
BITMAP
0000450000540000
00009B0000B70000
00007D0000D60000
00002F6007E10000
000005EFFD400000
0000000110000000
0000000000000000
0019DFFFFFFD8100
02EFDA9999ADFD10
0BF8000000009FA0
1FC0000000000DF0
4F90000000000AF2
4F800000000009F3
4F800000000009F3
4F800000000009F3
4F800000000009F3
4F800000000009F3
4F800000000009F3
4F800000000009F3
4F800000000009F3
4F800000000009F3
4F800000000009F3
4F800000000009F3
4F800000000009F3
4F800000000009F3
4F90000000000AF2
1FC0000000000DF0
0BF7000000009FA0
02EFDA9999ADFD10
0019DFFFFFFD8100
ENDCHAR
STARTCHAR obreve
ENCODING 335
SWIDTH 496 0
DWIDTH 18 0
BBX 14 25 2 0
BITMAP
000A90000B7000
000AA0000C7000
0008C0000E5000
0002F6018E1000
00005EFFD40000
00000022000000
00000000000000
004BEFFFFEA300
06FFB9999CFF40
2FE30000004FE1
7F7000000008F5
9F3000000005F8
AF2000000004F8
AF2000000004F8
AF2000000004F8
AF2000000004F8
AF2000000004F8
AF2000000004F8
AF2000000004F8
AF2000000004F8
9F3000000005F8
7F7000000008F5
2FE30000004FE1
06FFB9999CFF50
004BEFFFFEA300
ENDCHAR
STARTCHAR Ohungarumlaut
ENCODING 336
SWIDTH 553 0
DWIDTH 20 0
BBX 16 30 2 0
BITMAP
0000000BF304F900
0000004F800CD100
000000CC005F4000
000005F300D90000
00000D7006D10000
0000000000000000
0000000000000000
0019DFFFFFFD8100
02EFDA9999ADFD10
0BF8000000009FA0
1FC0000000000DF0
4F90000000000AF2
4F800000000009F3
4F800000000009F3
4F800000000009F3
4F800000000009F3
4F800000000009F3
4F800000000009F3
4F800000000009F3
4F800000000009F3
4F800000000009F3
4F800000000009F3
4F800000000009F3
4F800000000009F3
4F800000000009F3
4F90000000000AF2
1FC0000000000DF0
0BF7000000009FA0
02EFDA9999ADFD10
0019DFFFFFFD8100
ENDCHAR
STARTCHAR ohungarumlaut
ENCODING 337
SWIDTH 496 0
DWIDTH 18 0
BBX 14 25 2 0
BITMAP
0000008F502EC0
000002FA00AF20
00000AE103F700
00003F500BB000
0000A9004E2000
00000000000000
00000000000000
004BEFFFFEA300
06FFB9999CFF40
2FE30000004FE1
7F7000000008F5
9F3000000005F8
AF2000000004F8
AF2000000004F8
AF2000000004F8
AF2000000004F8
AF2000000004F8
AF2000000004F8
AF2000000004F8
AF2000000004F8
9F3000000005F8
7F7000000008F5
2FE30000004FE1
06FFB9999CFF50
004BEFFFFEA300
ENDCHAR
STARTCHAR OE
ENCODING 338
SWIDTH 775 0
DWIDTH 28 0
BBX 24 23 2 0
BITMAP
0018DFFFFFFFFFFFFFFFFFF3
02DFDA99999DFA9999999991
0AF80000000AF20000000000
1FD00000000AF20000000000
3FA00000000AF20000000000
4F900000000AF20000000000
4F900000000AF20000000000
4F900000000AF20000000000
4F900000000AF20000000000
4F900000000AF20000000000
4F900000000AFA9999999910
4F900000000AFFFFFFFFFF20
4F900000000AF30000000000
4F900000000AF20000000000
4F900000000AF20000000000
4F900000000AF20000000000
4F900000000AF20000000000
4F900000000AF20000000000
3FA00000000AF20000000000
1FD00000000AF20000000000
0AF80000000AF20000000000
02DFDA99999DFA9999999991
0018DFFFFFFFFFFFFFFFFFF3
ENDCHAR
STARTCHAR oe
ENCODING 339
SWIDTH 812 0
DWIDTH 29 0
BBX 25 18 2 0
BITMAP
004BEFFFFD81006CEFFFEC6000
06FFB9999CFD2AFDA999BEFA00
2FE30000004FDF80000001CF50
7F7000000009FD000000003FB0
9F3000000006F9000000000ED0
AF2000000004F8000000000DE0
AF2000000004F8000000000DE0
AF2000000004F8000000000DE0
AF2000000004FD999999999FE0
AF2000000004FFFFFFFFFFFFD0
AF2000000004F9000000000000
AF2000000004F8000000000000
AF2000000004F8000000000000
9F3000000006F9000000000000
7F7000000009FD000000000000
2FE30000004FEF800000000000
06FFB9999CFD1BFDA999999950
004BEFFFFD91007CEFFFFFFFA0
ENDCHAR
STARTCHAR Racute
ENCODING 340
SWIDTH 534 0
DWIDTH 19 0
BBX 15 30 3 0
BITMAP
0000000377000000
0000001DF6000000
0000008F80000000
000002FA00000000
00000BC100000000
0000000000000000
0000000000000000
EFFFFFFFFEB40000
EF9999999BFF6000
ED000000003EF200
ED0000000007F700
ED0000000003FA00
ED0000000001FB00
ED0000000001FB00
ED0000000001FB00
ED0000000002FA00
ED0000000004F900
ED000000000AF600
ED000000029FD000
EFFFFFFFFFFC1000
EF999999FF400000
ED000000AF500000
ED0000003FC00000
ED0000000BF40000
ED00000004FB0000
ED00000000CF3000
ED000000005FB000
ED000000000CF300
ED0000000005FA00
EC0000000000CF10
ENDCHAR
STARTCHAR racute
ENCODING 341
SWIDTH 313 0
DWIDTH 11 0
BBX 9 25 2 0
BITMAP
00001EF500
00009F9000
0003FB0000
000CD10000
002A300000
0000000000
0000000000
4F718DFF40
4F8CEA9920
4FFA100000
4FE1000000
4FA0000000
4F80000000
4F80000000
4F80000000
4F80000000
4F80000000
4F80000000
4F80000000
4F80000000
4F80000000
4F80000000
4F80000000
4F80000000
4F70000000
ENDCHAR
STARTCHAR uni0156
ENCODING 342
SWIDTH 534 0
DWIDTH 19 0
BBX 15 31 3 -8
BITMAP
EFFFFFFFFEB40000
EF9999999BFF6000
ED000000003EF200
ED0000000007F700
ED0000000003FA00
ED0000000001FB00
ED0000000001FB00
ED0000000001FB00
ED0000000002FA00
ED0000000004F900
ED000000000AF600
ED000000029FD000
EFFFFFFFFFFC1000
EF999999FF400000
ED000000AF500000
ED0000003FC00000
ED0000000BF40000
ED00000004FB0000
ED00000000CF3000
ED000000005FB000
ED000000000CF300
ED0000000005FA00
EC0000000000CF10
0000000000000000
000004F800000000
000005F800000000
000005F700000000
000005F400000000
000005E000000000
000005A000000000
0000055000000000
ENDCHAR
STARTCHAR uni0157
ENCODING 343
SWIDTH 313 0
DWIDTH 11 0
BBX 9 26 2 -8
BITMAP
4F718DFF40
4F8CEA9920
4FFA100000
4FE1000000
4FA0000000
4F80000000
4F80000000
4F80000000
4F80000000
4F80000000
4F80000000
4F80000000
4F80000000
4F80000000
4F80000000
4F80000000
4F80000000
4F70000000
0000000000
5F80000000
5F90000000
5F80000000
5F40000000
5E00000000
5A00000000
5500000000
ENDCHAR
STARTCHAR Rcaron
ENCODING 344
SWIDTH 534 0
DWIDTH 19 0
BBX 15 30 3 0
BITMAP
0027100074000000
001D9006F2000000
0005F31E80000000
0000BB8D10000000
00002EF400000000
0000000000000000
0000000000000000
EFFFFFFFFEB40000
EF9999999BFF6000
ED000000003EF200
ED0000000007F700
ED0000000003FA00
ED0000000001FB00
ED0000000001FB00
ED0000000001FB00
ED0000000002FA00
ED0000000004F900
ED000000000AF600
ED000000029FD000
EFFFFFFFFFFC1000
EF999999FF400000
ED000000AF500000
ED0000003FC00000
ED0000000BF40000
ED00000004FB0000
ED00000000CF3000
ED000000005FB000
ED000000000CF300
ED0000000005FA00
EC0000000000CF10
ENDCHAR
STARTCHAR rcaron
ENCODING 345
SWIDTH 313 0
DWIDTH 11 0
BBX 9 25 2 0
BITMAP
1E7001D900
07E107E100
00D91E7000
005FAD0000
0008A40000
0000000000
0000000000
4F718DFF40
4F8CEA9920
4FFA100000
4FE1000000
4FA0000000
4F80000000
4F80000000
4F80000000
4F80000000
4F80000000
4F80000000
4F80000000
4F80000000
4F80000000
4F80000000
4F80000000
4F80000000
4F70000000
ENDCHAR
STARTCHAR Sacute
ENCODING 346
SWIDTH 562 0
DWIDTH 20 0
BBX 16 30 2 0
BITMAP
0000000003770000
000000001DF60000
000000008F800000
00000003FA000000
0000000BC1000000
0000000000000000
0000000000000000
0007CEFFFFFD8100
00CFEB9999ADFD10
08FA100000008FA0
0DF1000000000DF1
1FD0000000000AF3
1FB00000000009F4
1FB0000000000471
1FC0000000000000
0DF4000000000000
05FF810000000000
005EFFC952000000
00016BEFFFD93000
000000036AEFF700
000000000007EF80
0000000000003EF1
0000000000000AF4
1B800000000008F5
1FB00000000008F5
1FD00000000009F4
0DF1000000000CF2
08FA100000008FB0
01CFEB9999ADFD20
0007CFFFFFFD9100
ENDCHAR
STARTCHAR sacute
ENCODING 347
SWIDTH 427 0
DWIDTH 15 0
BBX 13 25 1 0
BITMAP
00000006FD0000
0000001EE30000
0000009F500000
000003F8000000
00000780000000
00000000000000
00000000000000
005BEFFFFFF900
06FFB999999500
0EF40000000000
2FB00000000000
2FA00000000000
0FD00000000000
08FB3000000000
008FFB61000000
00028EFE930000
0000004AFFB200
0000000019FD00
0000000000AF40
00000000006F70
00000000004F80
00000000006F80
0000000001DF50
08999999BEFB00
0FFFFFFFEC7100
ENDCHAR
STARTCHAR Scircumflex
ENCODING 348
SWIDTH 562 0
DWIDTH 20 0
BBX 16 30 2 0
BITMAP
0000000671000000
0000006EDA000000
000001E84F400000
000009D10BC00000
00003F5002E60000
0000000000000000
0000000000000000
0007CEFFFFFD8100
00CFEB9999ADFD10
08FA100000008FA0
0DF1000000000DF1
1FD0000000000AF3
1FB00000000009F4
1FB0000000000471
1FC0000000000000
0DF4000000000000
05FF810000000000
005EFFC952000000
00016BEFFFD93000
000000036AEFF700
000000000007EF80
0000000000003EF1
0000000000000AF4
1B800000000008F5
1FB00000000008F5
1FD00000000009F4
0DF1000000000CF2
08FA100000008FB0
01CFEB9999ADFD20
0007CFFFFFFD9100
ENDCHAR
STARTCHAR scircumflex
ENCODING 349
SWIDTH 427 0
DWIDTH 15 0
BBX 13 25 1 0
BITMAP
000009FB000000
00003F7F500000
0000BC09D10000
0005F301E80000
000870005A0000
00000000000000
00000000000000
005BEFFFFFF900
06FFB999999500
0EF40000000000
2FB00000000000
2FA00000000000
0FD00000000000
08FB3000000000
008FFB61000000
00028EFE930000
0000004AFFB200
0000000019FD00
0000000000AF40
00000000006F70
00000000004F80
00000000006F80
0000000001DF50
08999999BEFB00
0FFFFFFFEC7100
ENDCHAR
STARTCHAR uni015E
ENCODING 350
SWIDTH 562 0
DWIDTH 20 0
BBX 16 30 2 -7
BITMAP
0007CEFFFFFD8100
00CFEB9999ADFD10
08FA100000008FA0
0DF1000000000DF1
1FD0000000000AF3
1FB00000000009F4
1FB0000000000471
1FC0000000000000
0DF4000000000000
05FF810000000000
005EFFC952000000
00016BEFFFD93000
000000036AEFF700
000000000007EF80
0000000000003EF1
0000000000000AF4
1B800000000008F5
1FB00000000008F5
1FD00000000009F4
0DF1000000000CF2
08FA100000008FB0
01CFEB9999ADFD20
0007CFFFFFFD9100
00000004E3000000
0000002EB5000000
0000005FFF900000
0000000018E00000
0000000018E00000
0000004FFF900000
0000002985000000
ENDCHAR
STARTCHAR uni015F
ENCODING 351
SWIDTH 427 0
DWIDTH 15 0
BBX 13 25 1 -7
BITMAP
005BEFFFFFF900
06FFB999999500
0EF40000000000
2FB00000000000
2FA00000000000
0FD00000000000
08FB2000000000
008FFB50000000
00028EFE820000
0000004AFFB200
0000000019FC00
0000000000AF40
00000000006F70
00000000004F80
00000000006F80
0000000001DF50
08999999BEFC00
0FFFFFFFFD9100
000001C9000000
00000AE7200000
00000DFFE20000
00000002E50000
00000003E50000
00000CFFE10000
00000797200000
ENDCHAR
STARTCHAR Scaron
ENCODING 352
SWIDTH 562 0
DWIDTH 20 0
BBX 16 30 2 0
BITMAP
0000371000730000
00001E9007E20000
000006F21E700000
000000BB9D000000
0000002EE4000000
0000000000000000
0000000000000000
0007CEFFFFFD8100
00CFEB9999ADFD10
08FA100000008FA0
0DF1000000000DF1
1FD0000000000AF3
1FB00000000009F4
1FB0000000000471
1FC0000000000000
0DF4000000000000
05FF810000000000
005EFFC952000000
00016BEFFFD93000
000000036AEFF700
000000000007EF80
0000000000003EF1
0000000000000AF4
1B800000000008F5
1FB00000000008F5
1FD00000000009F4
0DF1000000000CF2
08FA100000008FB0
01CFEB9999ADFD20
0007CFFFFFFD9100
ENDCHAR
STARTCHAR scaron
ENCODING 353
SWIDTH 427 0
DWIDTH 15 0
BBX 13 25 1 0
BITMAP
000AC0009D0000
0003F603F50000
00009D0BB00000
00001EAF300000
000005B7000000
00000000000000
00000000000000
005BEFFFFFF900
06FFB999999500
0EF40000000000
2FB00000000000
2FA00000000000
0FD00000000000
08FB3000000000
008FFB61000000
00028EFE930000
0000004AFFB200
0000000019FD00
0000000000AF40
00000000006F70
00000000004F80
00000000006F80
0000000001DF50
08999999BEFB00
0FFFFFFFEC7100
ENDCHAR
STARTCHAR uni0162
ENCODING 354
SWIDTH 420 0
DWIDTH 15 0
BBX 15 32 0 -9
BITMAP
5FFFFFFFFFFFFF60
399999BFC9999940
0000005F70000000
0000005F70000000
0000005F70000000
0000005F70000000
0000005F70000000
0000005F70000000
0000005F70000000
0000005F70000000
0000005F70000000
0000005F70000000
0000005F70000000
0000005F70000000
0000005F70000000
0000005F70000000
0000005F70000000
0000005F70000000
0000005F70000000
0000005F70000000
0000005F70000000
0000005F70000000
0000005F60000000
0000000000000000
0000005F70000000
0000006F80000000
0000006F70000000
0000006F40000000
0000006F10000000
0000006B00000000
0000006600000000
0000002100000000
ENDCHAR
STARTCHAR uni0163
ENCODING 355
SWIDTH 347 0
DWIDTH 12 0
BBX 11 31 0 -9
BITMAP
000174000000
0003FA000000
0003FA000000
0003FA000000
1FFFFFFFFF90
099AFD999950
0003FA000000
0003FA000000
0003FA000000
0003FA000000
0003FA000000
0003FA000000
0003FA000000
0003FA000000
0003FA000000
0003FA000000
0003FA000000
0002FB000000
0001FE100000
0000AFA10000
00001CFEA980
0000017CEFF0
000000000000
0000007F6000
0000007F6000
0000007F6000
0000007F3000
0000007E0000
000000790000
000000740000
000000200000
ENDCHAR
STARTCHAR Tcaron
ENCODING 356
SWIDTH 420 0
DWIDTH 15 0
BBX 15 30 0 0
BITMAP
0000650003700000
00006F200D900000
00000CA07E100000
000003F5E6000000
0000008FC0000000
0000000000000000
0000000000000000
5FFFFFFFFFFFFF60
399999BFC9999940
0000005F70000000
0000005F70000000
0000005F70000000
0000005F70000000
0000005F70000000
0000005F70000000
0000005F70000000
0000005F70000000
0000005F70000000
0000005F70000000
0000005F70000000
0000005F70000000
0000005F70000000
0000005F70000000
0000005F70000000
0000005F70000000
0000005F70000000
0000005F70000000
0000005F70000000
0000005F70000000
0000005F60000000
ENDCHAR
STARTCHAR tcaron
ENCODING 357
SWIDTH 396 0
DWIDTH 14 0
BBX 14 23 0 0
BITMAP
000000000000EE
0002C7000000EF
0003FA000000EE
0003FA000000EC
0003FA000000E9
1FFFFFFFFF90E5
099AFD999950E1
0003FA00000090
0003FA00000000
0003FA00000000
0003FA00000000
0003FA00000000
0003FA00000000
0003FA00000000
0003FA00000000
0003FA00000000
0003FA00000000
0003FA00000000
0002FB00000000
0001FE10000000
0000AFA1000000
00001CFEA98000
0000017CEFF000
ENDCHAR
STARTCHAR Tbar
ENCODING 358
SWIDTH 501 0
DWIDTH 18 0
BBX 15 23 0 0
BITMAP
3FFFFFFFFFFFFFA0
199999AFD9999960
0000002FA0000000
0000002FA0000000
0000002FA0000000
0000002FA0000000
0000002FA0000000
0000002FA0000000
0000002FA0000000
0000003FA0000000
004FFFFFFFFFF200
002999AFD9999100
0000002FA0000000
0000002FA0000000
0000002FA0000000
0000002FA0000000
0000002FA0000000
0000002FA0000000
0000002FA0000000
0000002FA0000000
0000002FA0000000
0000002FA0000000
0000002F90000000
ENDCHAR
STARTCHAR tbar
ENCODING 359
SWIDTH 350 0
DWIDTH 13 0
BBX 12 22 0 0
BITMAP
000175000000
0002FA000000
0002FA000000
0002FB000000
1FFFFFFFFFB0
099AFE999960
0002FA000000
0002FA000000
0002FA000000
0002FA000000
0002FB000000
1FFFFFFFFFB0
099AFE999960
0002FA000000
0002FA000000
0002FA000000
0002FA000000
0002FB000000
0000EE100000
00009FA10000
00001CFEB991
0000017CEFF1
ENDCHAR
STARTCHAR Utilde
ENCODING 360
SWIDTH 552 0
DWIDTH 20 0
BBX 15 30 2 0
BITMAP
0000810048600000
0000E302EFF60000
0000E308D19A0000
0000C72E605C0000
00008FFE105C0000
0000178300260000
0000000000000000
1FA0000000000CE0
2FA0000000000CF0
2FA0000000000CF0
2FA0000000000CF0
2FA0000000000CF0
2FA0000000000CF0
2FA0000000000CF0
2FA0000000000CF0
2FA0000000000CF0
2FA0000000000CF0
2FA0000000000CF0
2FA0000000000CF0
2FA0000000000CF0
2FA0000000000CF0
2FA0000000000CF0
2FA0000000000CF0
2FA0000000000CF0
2FA0000000000CF0
1FC0000000000EE0
0EE1000000002FC0
08FA10000001BF60
01CFDA9999BEFB00
0018DFFFFFEC7000
ENDCHAR
STARTCHAR utilde
ENCODING 361
SWIDTH 507 0
DWIDTH 18 0
BBX 14 25 2 0
BITMAP
000D3009ED2000
000D404FAD9000
000D50BA06C000
000ADAF405C000
0003DE8004C000
00000000000000
00000000000000
7F4000000003F8
7F5000000004F8
7F5000000004F8
7F5000000004F8
7F5000000004F8
7F5000000004F8
7F5000000004F8
7F5000000004F8
7F5000000004F8
7F5000000004F8
7F5000000004F8
7F5000000004F8
7F5000000004F8
7F6000000005F8
4F9000000009F8
0EF50000006FF8
04FFC999ADF9F8
003AEFFFEC53F8
ENDCHAR
STARTCHAR Umacron
ENCODING 362
SWIDTH 552 0
DWIDTH 20 0
BBX 15 28 2 0
BITMAP
0001FFFFFFFE0000
0001999999980000
0000000000000000
0000000000000000
0000000000000000
1FA0000000000CE0
2FA0000000000CF0
2FA0000000000CF0
2FA0000000000CF0
2FA0000000000CF0
2FA0000000000CF0
2FA0000000000CF0
2FA0000000000CF0
2FA0000000000CF0
2FA0000000000CF0
2FA0000000000CF0
2FA0000000000CF0
2FA0000000000CF0
2FA0000000000CF0
2FA0000000000CF0
2FA0000000000CF0
2FA0000000000CF0
2FA0000000000CF0
1FC0000000000EE0
0EE1000000002FC0
08FA10000001BF60
01CFDA9999BEFB00
0018DFFFFFEC7000
ENDCHAR
STARTCHAR umacron
ENCODING 363
SWIDTH 507 0
DWIDTH 18 0
BBX 14 23 2 0
BITMAP
000FFFFFFFF100
00089999999000
00000000000000
00000000000000
00000000000000
7F4000000003F8
7F5000000004F8
7F5000000004F8
7F5000000004F8
7F5000000004F8
7F5000000004F8
7F5000000004F8
7F5000000004F8
7F5000000004F8
7F5000000004F8
7F5000000004F8
7F5000000004F8
7F5000000004F8
7F6000000005F8
4F9000000009F8
0EF50000006FF8
04FFC999ADF9F8
003AEFFFEC53F8
ENDCHAR
STARTCHAR Ubreve
ENCODING 364
SWIDTH 552 0
DWIDTH 20 0
BBX 15 30 2 0
BITMAP
0000450000540000
00009B0000B70000
00007D0000D60000
00002F6007E10000
000005EFFD400000
0000000110000000
0000000000000000
1FA0000000000CE0
2FA0000000000CF0
2FA0000000000CF0
2FA0000000000CF0
2FA0000000000CF0
2FA0000000000CF0
2FA0000000000CF0
2FA0000000000CF0
2FA0000000000CF0
2FA0000000000CF0
2FA0000000000CF0
2FA0000000000CF0
2FA0000000000CF0
2FA0000000000CF0
2FA0000000000CF0
2FA0000000000CF0
2FA0000000000CF0
2FA0000000000CF0
1FC0000000000EE0
0EE1000000002FC0
08FA10000001BF60
01CFDA9999BEFB00
0018DFFFFFEC7000
ENDCHAR
STARTCHAR ubreve
ENCODING 365
SWIDTH 507 0
DWIDTH 18 0
BBX 14 25 2 0
BITMAP
0007B000099000
0008C0000A9000
0005E0000C7000
0001E8106F2000
00004DFFE50000
00000022000000
00000000000000
7F4000000003F8
7F5000000004F8
7F5000000004F8
7F5000000004F8
7F5000000004F8
7F5000000004F8
7F5000000004F8
7F5000000004F8
7F5000000004F8
7F5000000004F8
7F5000000004F8
7F5000000004F8
7F5000000004F8
7F6000000005F8
4F9000000009F8
0EF50000006FF8
04FFC999ADF9F8
003AEFFFEC53F8
ENDCHAR
STARTCHAR Uring
ENCODING 366
SWIDTH 552 0
DWIDTH 20 0
BBX 15 31 2 0
BITMAP
000002CFEA100000
00000BEAAF800000
00000E4007C00000
00000F1004D00000
00000F2004D00000
00000D811AB00000
000008FFFF500000
0000005984000000
1FA0000000000CE0
2FA0000000000CF0
2FA0000000000CF0
2FA0000000000CF0
2FA0000000000CF0
2FA0000000000CF0
2FA0000000000CF0
2FA0000000000CF0
2FA0000000000CF0
2FA0000000000CF0
2FA0000000000CF0
2FA0000000000CF0
2FA0000000000CF0
2FA0000000000CF0
2FA0000000000CF0
2FA0000000000CF0
2FA0000000000CF0
2FA0000000000CF0
1FC0000000000EE0
0EE1000000002FC0
08FA10000001BF60
01CFDA9999BEFB00
0018DFFFFFEC7000
ENDCHAR
STARTCHAR uring
ENCODING 367
SWIDTH 507 0
DWIDTH 18 0
BBX 14 26 2 0
BITMAP
0000AEFE800000
0005EA9AF40000
00079000B60000
00079000B60000
0005FA9AF40000
0000AEFE800000
00000000000000
00000000000000
7F4000000003F8
7F5000000004F8
7F5000000004F8
7F5000000004F8
7F5000000004F8
7F5000000004F8
7F5000000004F8
7F5000000004F8
7F5000000004F8
7F5000000004F8
7F5000000004F8
7F5000000004F8
7F5000000004F8
7F6000000005F8
4F9000000009F8
0EF50000006FF8
04FFC999ADF9F8
003AEFFFEC53F8
ENDCHAR
STARTCHAR Uhungarumlaut
ENCODING 368
SWIDTH 552 0
DWIDTH 20 0
BBX 15 30 2 0
BITMAP
0000000CE106F700
0000007F601EC000
000001EB008F3000
000008E201E70000
00001E5008B00000
0000000000000000
0000000000000000
1FA0000000000CE0
2FA0000000000CF0
2FA0000000000CF0
2FA0000000000CF0
2FA0000000000CF0
2FA0000000000CF0
2FA0000000000CF0
2FA0000000000CF0
2FA0000000000CF0
2FA0000000000CF0
2FA0000000000CF0
2FA0000000000CF0
2FA0000000000CF0
2FA0000000000CF0
2FA0000000000CF0
2FA0000000000CF0
2FA0000000000CF0
2FA0000000000CF0
1FC0000000000EE0
0EE1000000002FC0
08FA10000001BF60
01CFDA9999BEFB00
0018DFFFFFEC7000
ENDCHAR
STARTCHAR uhungarumlaut
ENCODING 369
SWIDTH 507 0
DWIDTH 18 0
BBX 14 25 2 0
BITMAP
0000008F502EC0
000002FA00AF30
00000AE103F700
00003F500BC000
0000A9004E2000
00000000000000
00000000000000
7F4000000003F8
7F5000000004F8
7F5000000004F8
7F5000000004F8
7F5000000004F8
7F5000000004F8
7F5000000004F8
7F5000000004F8
7F5000000004F8
7F5000000004F8
7F5000000004F8
7F5000000004F8
7F5000000004F8
7F6000000005F8
4F9000000009F8
0EF50000006FF8
04FFC999ADF9F8
003AEFFFEC53F8
ENDCHAR
STARTCHAR Uogonek
ENCODING 370
SWIDTH 552 0
DWIDTH 20 0
BBX 15 27 2 -4
BITMAP
1FA0000000000CE0
2FA0000000000CF0
2FA0000000000CF0
2FA0000000000CF0
2FA0000000000CF0
2FA0000000000CF0
2FA0000000000CF0
2FA0000000000CF0
2FA0000000000CF0
2FA0000000000CF0
2FA0000000000CF0
2FA0000000000CF0
2FA0000000000CF0
2FA0000000000CF0
2FA0000000000CF0
2FA0000000000CF0
2FA0000000000CF0
2FA0000000000CF0
1FC0000000000EE0
0EE1000000002FC0
08FA10000001BF60
01CFDA9999BEFB00
0018DFFFFFEC7000
00000005C1000000
0000002D20000000
000000CC96000000
000000CFD5000000
ENDCHAR
STARTCHAR uogonek
ENCODING 371
SWIDTH 503 0
DWIDTH 18 0
BBX 14 22 2 -4
BITMAP
7F4000000003F8
7F5000000004F8
7F5000000004F8
7F5000000004F8
7F5000000004F8
7F5000000004F8
7F5000000004F8
7F5000000004F8
7F5000000004F8
7F5000000004F8
7F5000000004F8
7F5000000004F8
7F5000000004F8
7F6000000005F8
4F9000000009F8
0EF50000006FF8
04FFC999ADF9F8
003AEFFFEC56F8
00000000002E30
0000000000C600
0000000007E980
0000000007ED60
ENDCHAR
STARTCHAR Wcircumflex
ENCODING 372
SWIDTH 795 0
DWIDTH 29 0
BBX 27 30 1 0
BITMAP
0000000000005720000000000000
000000000003FCC0000000000000
00000000000CB2E7000000000000
00000000006F208E100000000000
0000000001E8001D900000000000
0000000000000000000000000000
0000000000000000000000000000
CF2000000000DF60000000009F60
9F6000000003FFB000000000DF30
6F9000000007FEF000000001FE00
2FC00000000BE7F400000004FB00
0EF10000000EB2F800000007F800
0BF30000004F70DC0000000AF500
07F70000008F309F1000000DF100
04FA000000CE005F5000001FD000
01FD000001FA001F9000004FA000
00CF100005F6000CD000008F6000
009F400009F20008F20000BF3000
006F70000DD00004F60000EE0000
002FA0002F900001FA0002FB0000
000ED0006F400000BE0005F80000
000BF100AF1000007F3008F40000
0007F500EB0000003F700BF10000
0004F803F70000000EB00ED00000
0001FB07F30000000AF12F900000
0000CE0BE000000006F45F600000
00009F2EA000000002F89F300000
00006F9F6000000000DCCE000000
00002FFF20000000009FFB000000
00000DFD00000000004FF7000000
ENDCHAR
STARTCHAR wcircumflex
ENCODING 373
SWIDTH 682 0
DWIDTH 25 0
BBX 24 25 0 0
BITMAP
00000000001DF60000000000
00000000008E8E1000000000
0000000002F70D9000000000
000000000AD005F300000000
000000001A40009700000000
000000000000000000000000
000000000000000000000000
3FA00000000BF500000002FB
0EE00000001FF900000006F7
0AF30000005FFD0000000AF3
05F80000009F8F2000000ED0
01FC000000DB3F6000004F90
00BF100002F70EA000008F50
007F500006F30AE00000CF10
003F90000AE006F30001FB00
000DD0000EA002F70005F700
0009F2003F6000DB000AF200
0004F7007F20009F000ED000
0000EB00BD00005F403F9000
0000BE01F900001F807F4000
00006F44F500000CC0BE0000
00002F88F1000007F2FA0000
00000CDDB0000003FAF60000
000008FF70000000EFF20000
000003FF30000000AFC00000
ENDCHAR
STARTCHAR Ycircumflex
ENCODING 374
SWIDTH 493 0
DWIDTH 18 0
BBX 16 30 1 0
BITMAP
0000001760000000
000000ADF5000000
000004F48E100000
00000DA01E800000
00007E2006F20000
0000000000000000
0000000000000000
EE100000000005FA
8F80000000000CF4
1EE1000000005FB0
08F800000000CF40
01EE10000004FB00
008F7000000BF300
001EE100004FB000
0008F70000BF3000
0001EE1003FB0000
00008F700AF30000
00001ED03FB00000
000008F6AF300000
000001EEFB000000
0000008FF3000000
0000001FC0000000
0000001FB0000000
0000001FB0000000
0000001FB0000000
0000001FB0000000
0000001FB0000000
0000001FB0000000
0000001FB0000000
0000000FB0000000
ENDCHAR
STARTCHAR ycircumflex
ENCODING 375
SWIDTH 459 0
DWIDTH 17 0
BBX 15 30 1 -5
BITMAP
0000009FA0000000
000004F7F5000000
00000CB0AD000000
00006F302E700000
0000970006900000
0000000000000000
0000000000000000
DD00000000005F60
9F5000000000BF20
3FA000000002FC00
0DE100000007F600
07F50000000CF100
02FB0000002FB000
00CF1000008F5000
006F600000DE1000
001FC00003FA0000
000BF20009F40000
0005F7000EE00000
0001ED004F900000
00009F30AF300000
00004F81ED000000
00000DD5F8000000
000008FEF2000000
000002CFC0000000
0000005F70000000
000000CF10000000
000004FA00000000
00003EE200000000
199BFF5000000000
2FFEA30000000000
ENDCHAR
STARTCHAR Ydieresis
ENCODING 376
SWIDTH 493 0
DWIDTH 18 0
BBX 16 30 1 0
BITMAP
0000EB0001FA0000
0000EC0001FA0000
0000EC0001FA0000
0000EC0001FA0000
0000EB0001F90000
0000000000000000
0000000000000000
EE100000000005FA
8F80000000000CF4
1EE1000000005FB0
08F800000000CF40
01EE10000004FB00
008F7000000BF300
001EE100004FB000
0008F70000BF3000
0001EE1003FB0000
00008F700AF30000
00001ED03FB00000
000008F6AF300000
000001EEFB000000
0000008FF3000000
0000001FC0000000
0000001FB0000000
0000001FB0000000
0000001FB0000000
0000001FB0000000
0000001FB0000000
0000001FB0000000
0000001FB0000000
0000000FB0000000
ENDCHAR
STARTCHAR Zacute
ENCODING 377
SWIDTH 482 0
DWIDTH 17 0
BBX 15 30 1 0
BITMAP
0000000001782000
0000000009FB0000
000000003FC10000
00000000CE200000
00000006E3000000
0000000000000000
0000000000000000
1FFFFFFFFFFFFF70
099999999999DF70
000000000002FF20
00000000000BF800
00000000005FD000
0000000001DF4000
0000000008FA0000
000000003FE20000
00000000BF700000
00000005FD000000
0000001EF4000000
0000009FA0000000
000003FE10000000
00000CF700000000
00006FC000000000
0001EF3000000000
0009F90000000000
003FE10000000000
00CF600000000000
06FC000000000000
1EF3000000000000
7FE9999999999970
7FFFFFFFFFFFFFC0
ENDCHAR
STARTCHAR zacute
ENCODING 378
SWIDTH 405 0
DWIDTH 15 0
BBX 13 25 1 0
BITMAP
000000006FD000
00000001EE3000
0000000AF50000
0000004F800000
00000078000000
00000000000000
00000000000000
7FFFFFFFFFFF10
499999999AFE10
000000000BF700
000000005FC000
00000001EF3000
00000009F80000
0000004FD10000
000000DF400000
000008FA000000
00003FE1000000
0000CF60000000
0006FB00000000
002EF200000000
00AF7000000000
05FC0000000000
1EF30000000000
8FE99999999930
BFFFFFFFFFFF50
ENDCHAR
STARTCHAR Zdotaccent
ENCODING 379
SWIDTH 482 0
DWIDTH 17 0
BBX 15 29 1 0
BITMAP
00000007F4000000
00000008F4000000
00000008F4000000
00000007F4000000
0000000000000000
0000000000000000
1FFFFFFFFFFFFF70
099999999999DF70
000000000002FF20
00000000000BF800
00000000005FD000
0000000001DF4000
0000000008FA0000
000000003FE20000
00000000BF700000
00000005FD000000
0000001EF4000000
0000009FA0000000
000003FE10000000
00000CF700000000
00006FC000000000
0001EF3000000000
0009F90000000000
003FE10000000000
00CF600000000000
06FC000000000000
1EF3000000000000
7FE9999999999970
7FFFFFFFFFFFFFC0
ENDCHAR
STARTCHAR zdotaccent
ENCODING 380
SWIDTH 405 0
DWIDTH 15 0
BBX 13 25 1 0
BITMAP
000000ED000000
000000ED000000
000000ED000000
000000ED000000
00000000000000
00000000000000
00000000000000
7FFFFFFFFFFF10
499999999AFE10
000000000BF700
000000005FC000
00000001EF3000
00000009F80000
0000004FD10000
000000DF400000
000008FA000000
00003FE1000000
0000CF60000000
0006FB00000000
002EF200000000
00AF7000000000
05FC0000000000
1EF30000000000
8FE99999999930
BFFFFFFFFFFF50
ENDCHAR
STARTCHAR Zcaron
ENCODING 381
SWIDTH 482 0
DWIDTH 17 0
BBX 15 30 1 0
BITMAP
0000173000650000
00000BC004F40000
000003F50CA00000
0000008D6E200000
0000001DF7000000
0000000000000000
0000000000000000
1FFFFFFFFFFFFF70
099999999999DF70
000000000002FF20
00000000000BF800
00000000005FD000
0000000001DF4000
0000000008FA0000
000000003FE20000
00000000BF700000
00000005FD000000
0000001EF4000000
0000009FA0000000
000003FE10000000
00000CF700000000
00006FC000000000
0001EF3000000000
0009F90000000000
003FE10000000000
00CF600000000000
06FC000000000000
1EF3000000000000
7FE9999999999970
7FFFFFFFFFFFFFC0
ENDCHAR
STARTCHAR zcaron
ENCODING 382
SWIDTH 405 0
DWIDTH 15 0
BBX 13 25 1 0
BITMAP
0004F4003F5000
0000BC00BC0000
00002F54F40000
000008DCA00000
000001AA100000
00000000000000
00000000000000
7FFFFFFFFFFF10
499999999AFE10
000000000BF700
000000005FC000
00000001EF3000
00000009F80000
0000004FD10000
000000DF400000
000008FA000000
00003FE1000000
0000CF60000000
0006FB00000000
002EF200000000
00AF7000000000
05FC0000000000
1EF30000000000
8FE99999999930
BFFFFFFFFFFF50
ENDCHAR
STARTCHAR florin
ENCODING 402
SWIDTH 494 0
DWIDTH 18 0
BBX 18 30 0 -5
BITMAP
00000000000029DFF2
000000000003EFC991
00000000000DF50000
00000000006F800000
0000000000BF200000
0000000000ED000000
0000000003F9000000
0000000006F6000000
0000000009F3000000
000000000CF0000000
000000001FC0000000
00001FFFFFFFFFD000
00000999DFB9998000
00000000AF20000000
00000000EE00000000
00000002FB00000000
00000005F700000000
00000008F400000000
0000000BF100000000
0000000ED000000000
0000003F9000000000
0000006F6000000000
0000009F3000000000
000000CE0000000000
000001FB0000000000
000005F80000000000
00000BF30000000000
00007FB00000000000
39ADFD200000000000
5FFD81000000000000
ENDCHAR
STARTCHAR AEacute
ENCODING 508
SWIDTH 773 0
DWIDTH 28 0
BBX 26 30 0 0
BITMAP
00000000000000001782000000
00000000000000008FB0000000
0000000000000003FC10000000
000000000000000CE200000000
000000000000005E3000000000
00000000000000000000000000
00000000000000000000000000
000000000000BFFFFFFFFFFFF7
000000000005FFFC9999999994
00000000000DF9F60000000000
00000000006F96F60000000000
0000000001EE16F60000000000
0000000008F806F60000000000
000000002EE106F60000000000
000000009F6006F60000000000
00000003FD0006F60000000000
0000000BF50006F60000000000
0000004FC00006FC9999999940
000000CF400006FFFFFFFFFF70
000006FB000006F60000000000
00001DF3000006F60000000000
00007F90000006F60000000000
0001EFA999999BF60000000000
0009FFFFFFFFFFF60000000000
002FE100000006F60000000000
00AF6000000006F60000000000
03FD0000000006F60000000000
0CF40000000006F60000000000
5FB00000000006FC9999999994
CE200000000006FFFFFFFFFFF7
ENDCHAR
STARTCHAR aeacute
ENCODING 509
SWIDTH 795 0
DWIDTH 29 0
BBX 25 25 2 0
BITMAP
00000000000000BF9000000000
00000000000006FC0000000000
0000000000001EE20000000000
0000000000008F300000000000
000000000000A5000000000000
00000000000000000000000000
00000000000000000000000000
00DFFFFFEC81018DEFFFD92000
00799999ADFC2DFCA99ACFE200
00000000007FEF50000005FC00
00000000000CF900000000AF20
000000000009F5000000006F40
000000000008F4000000005F50
000000000008F4000000005F50
004BEFFFFFFFF4000000005F50
07FFB999999CF5000000006F50
2FD200000008FFFFFFFFFFFF50
8F5000000008FB999999999920
AF2000000008F4000000000000
BF1000000008F4000000000000
AF2000000009F6000000000000
8F500000000DF9000000000000
2FD20000009FEF400000000000
07FFB999AEF84FFC9999999920
004BEFFFEB5003AEFFFFFFFF40
ENDCHAR
STARTCHAR Oslashacute
ENCODING 510
SWIDTH 558 0
DWIDTH 20 0
BBX 18 30 1 0
BITMAP
000000000037700000
0000000001DF600000
0000000008F8000000
000000003FA0000000
00000000BC10000000
000000000000000000
000000000000000000
00018DFFFFFFD81061
001DFDA9999ACFC6F4
00AF9000000006FF90
01FD0000000001EF20
03FA000000000BFF40
03F9000000007FCF50
04F900000003FA7F50
04F90000001DD17F50
04F90000009F307F50
04F9000005F7007F50
04F900002EB0007F50
04F90000BE10007F50
04F90007F400007F50
04F9003F8000007F50
04F901DC0000007F50
04F909E20000007F50
04F95F500000007F50
03FAE9000000007F50
03FFC0000000009F50
01FF3000000000CF20
04FF8000000007FC00
1EBDFDA9999ADFE200
2B118DFFFFFFD92000
ENDCHAR
STARTCHAR oslashacute
ENCODING 511
SWIDTH 521 0
DWIDTH 19 0
BBX 17 25 1 0
BITMAP
0000000000CF800000
0000000006FC000000
000000001ED1000000
000000009E30000000
00000000A400000000
000000000000000000
000000000000000000
00018DFFFFEC600000
001DFDA999AEF90B90
00AF80000001CFDE30
01FD000000003FE300
03FA00000001CFE000
04F90000001CEEF000
04F9000001CD2DF000
04F900001DD20DF000
04F90002DD200DF000
04F9002DD1000DF000
04F902DC10000DF000
04F93EC100000DF000
04FBEC1000000DF000
03FFB10000000EE000
04FE100000002FC000
4EEF80000001BF7000
DB2DFDA999BEFB0000
20018DFFFFEC700000
ENDCHAR
STARTCHAR uni0218
ENCODING 536
SWIDTH 562 0
DWIDTH 20 0
BBX 16 31 2 -8
BITMAP
0007CEFFFFFD8100
00CFEB9999ADFD10
08FA100000008FA0
0DF1000000000DF1
1FD0000000000AF3
1FB00000000009F4
1FB0000000000471
1FC0000000000000
0DF4000000000000
05FF810000000000
005EFFC952000000
00016BEFFFD93000
000000036AEFF700
000000000007EF80
0000000000003EF1
0000000000000AF4
1B800000000008F5
1FB00000000008F5
1FD00000000009F4
0DF1000000000CF2
08FA100000008FB0
01CFEB9999ADFD20
0007CFFFFFFD9100
0000000000000000
00000006F6000000
00000007F7000000
00000007F6000000
00000007F2000000
00000007D0000000
0000000780000000
0000000630000000
ENDCHAR
STARTCHAR uni0219
ENCODING 537
SWIDTH 427 0
DWIDTH 15 0
BBX 13 27 1 -9
BITMAP
005BEFFFFFF900
06FFB999999500
0EF40000000000
2FB00000000000
2FA00000000000
0FD00000000000
08FB3000000000
008FFB61000000
00028EFE930000
0000004AFFB200
0000000019FD00
0000000000AF40
00000000006F70
00000000004F80
00000000006F80
0000000001DF50
08999999BEFB00
0FFFFFFFEC7100
00000000000000
000000CF100000
000000DF100000
000000DF000000
000000DC000000
000000D8000000
000000D4000000
000000B0000000
00000030000000
ENDCHAR
STARTCHAR circumflex
ENCODING 710
SWIDTH 326 0
DWIDTH 12 0
BBX 8 5 2 20
BITMAP
005FE200
01E8CA00
09E14F40
3F600AD0
47000272
ENDCHAR
STARTCHAR caron
ENCODING 711
SWIDTH 326 0
DWIDTH 12 0
BBX 8 5 2 20
BITMAP
7E2006F2
0DA01E90
04F48E10
00ACE500
00176000
ENDCHAR
STARTCHAR uni02C9
ENCODING 713
SWIDTH 358 0
DWIDTH 13 0
BBX 9 2 2 21
BITMAP
9FFFFFFF70
5999999940
ENDCHAR
STARTCHAR breve
ENCODING 728
SWIDTH 332 0
DWIDTH 12 0
BBX 8 5 2 20
BITMAP
9A0000A8
8C0000C7
4F5005F3
06EFFE60
00011000
ENDCHAR
STARTCHAR dotaccent
ENCODING 729
SWIDTH 183 0
DWIDTH 7 0
BBX 3 4 2 21
BITMAP
9F30
9F30
9F30
9F30
ENDCHAR
STARTCHAR ring
ENCODING 730
SWIDTH 297 0
DWIDTH 11 0
BBX 7 7 1 20
BITMAP
01798500
0CFFFF60
1F3019A0
2D0005B0
2E0006A0
0EC9AE80
05DFEB10
ENDCHAR
STARTCHAR ogonek
ENCODING 731
SWIDTH 243 0
DWIDTH 9 0
BBX 5 5 2 -4
BITMAP
004A00
01D400
0B7000
5F9810
5ED800
ENDCHAR
STARTCHAR tilde
ENCODING 732
SWIDTH 369 0
DWIDTH 13 0
BBX 9 6 2 19
BITMAP
97005EE500
9700DCCD00
9805E12F00
8B1BA01F10
4FFF300F10
0584000800
ENDCHAR
STARTCHAR hungarumlaut
ENCODING 733
SWIDTH 377 0
DWIDTH 14 0
BBX 10 5 2 20
BITMAP
005F800CE1
00DD107F50
06F401EA00
1E8008E100
7C101E5000
ENDCHAR
STARTCHAR Mu
ENCODING 924
SWIDTH 527 0
DWIDTH 19 0
BBX 14 24 2 -5
BITMAP
0FB000000000BE
1FC000000000CF
1FC000000000CF
1FC000000000CF
1FC000000000CF
1FC000000000CF
1FC000000000CF
1FC000000000CF
1FC000000000CF
1FC000000000CF
1FC000000000CF
1FC000000000CF
1FC000000000CF
1FC000000000CF
1FD000000000EF
1FF200000003FF
1FFB1000002CFF
1FFFEA999BECCF
1FC5CEFFFD81BE
1FC00000000000
1FC00000000000
1FC00000000000
1FC00000000000
0EB00000000000
ENDCHAR
STARTCHAR Pi
ENCODING 928
SWIDTH 605 0
DWIDTH 22 0
BBX 20 24 1 0
BITMAP
59999999999999999993
9FFFFFFFFFFFFFFFFFF6
0000BF20000005F80000
0000BF10000005F80000
0000BF10000005F80000
0000BF10000005F80000
0000BF10000005F80000
0000BF10000005F80000
0000BF10000005F80000
0000BF10000005F80000
0000BF10000005F80000
0000BF10000005F80000
0000BF10000005F80000
0000BF10000005F80000
0000BF10000005F80000
0000BF10000005F80000
0000BF10000005F80000
0000BF10000005F80000
0000BF10000005F80000
0000BF10000005F80000
0000BF10000005F80000
0000BF10000005F80000
0000BF10000005F80000
0000AF10000004F70000
ENDCHAR
STARTCHAR Sigma
ENCODING 931
SWIDTH 481 0
DWIDTH 17 0
BBX 14 24 2 0
BITMAP
69999999999992
CFFFFFFFFFFFF3
8F900000000000
1DF30000000000
05FC0000000000
00BF6000000000
002FE100000000
0008F900000000
0000DF40000000
00004FC0000000
00000AF7000000
000002EE100000
000000BF400000
000004FD000000
00000DF4000000
00007F90000000
0002EE10000000
000BF600000000
005FB000000000
01EF2000000000
09F80000000000
3FD00000000000
BFB99999999991
BFFFFFFFFFFFF3
ENDCHAR
STARTCHAR uni0901
ENCODING 2305
SWIDTH 0 0
DWIDTH 0 0
BBX 12 7 -10 25
BITMAP
00000EC00000
340008700042
BD00000001F9
AF00000002F8
7F60000009F4
1DFB9889CFC0
029EFFFFD810
ENDCHAR
STARTCHAR uni0902
ENCODING 2306
SWIDTH 0 0
DWIDTH 0 0
BBX 3 3 -6 27
BITMAP
0210
4FA0
3FA0
ENDCHAR
STARTCHAR uni0903
ENCODING 2307
SWIDTH 247 0
DWIDTH 9 0
BBX 3 14 3 3
BITMAP
1200
8F60
7F60
0000
0000
0000
0000
0000
0000
0000
0000
1200
8F60
7F60
ENDCHAR
STARTCHAR uni0905
ENCODING 2309
SWIDTH 598 0
DWIDTH 22 0
BBX 21 24 1 -1
BITMAP
06FFFFD920000005FFFFF0
039999CFE2000008FB9980
00000006FC000008F30000
00000000BF200008F30000
000000007F500008F30000
000000006F600008F30000
000000006F500008F30000
000000008F400008F30000
00000000DE100008F30000
0000013BF7000008F30000
007FFFFF60000008F30000
004999CFD2000008F30000
00000005FD99999CF30000
00000000AFFFFFFFF30000
000000007F500008F30000
000000005F600008F30000
000000006F500008F30000
000000008F400008F30000
00000000DE100008F30000
0000013BF8000008F30000
AFFFFFFF90000008F30000
5999987200000008F30000
0000000000000007F30000
0000000000000000100000
ENDCHAR
STARTCHAR uni0906
ENCODING 2310
SWIDTH 828 0
DWIDTH 30 0
BBX 30 24 1 -1
BITMAP
07FFFFD810000006FFFFFFFFFFFFF4
04999ADFD2000009FA99999BFC9992
00000007FA000009F2000004F80000
00000000CF100009F2000004F80000
000000008F300009F2000004F80000
000000006F400009F2000004F80000
000000007F400009F2000004F80000
000000009F300009F2000004F80000
00000001EE000009F2000004F80000
0000014CF6000009F2000004F80000
008FFFFF50000009F2000004F80000
00499ACFC2000009F2000004F80000
00000005FC99999DF2000004F80000
00000000BFFFFFFFF2000004F80000
000000008F400009F2000004F80000
000000006F400009F2000004F80000
000000007F400009F2000004F80000
000000009F300009F2000004F80000
00000001EE000009F2000004F80000
0000014CF7000009F2000004F80000
BFFFFFFF80000009F2000004F80000
6999987200000009F2000004F80000
0000000000000008F2000003F70000
000000000000000010000000100000
ENDCHAR
STARTCHAR uni0907
ENCODING 2311
SWIDTH 478 0
DWIDTH 17 0
BBX 19 25 -1 -2
BITMAP
7FFFFFFFFFFFFFFFFFA0
4999999999999EF99950
0000000000000CD00000
0000000000000CD00000
0000000000000CD00000
0000016899999ED00000
00004EFFFFFFFFA00000
0001EE51000000000000
0004F800000000000000
0006F500000000000000
0006F500000000000000
0004F800000000000000
0001EE51000000000000
00004EFFFFFFEB400000
000001689999BFF40000
00000000000003FB0000
00000000000000DE0000
0007F200000000CE0000
0008F300000000CE0000
0008F700000000ED0000
0008FE61000029F80000
0008FBFFFFFFFFC10000
0008F348999974000000
0008F300000000000000
0007F200000000000000
ENDCHAR
STARTCHAR uni0908
ENCODING 2312
SWIDTH 478 0
DWIDTH 17 0
BBX 19 34 -1 -2
BITMAP
0000000000018DFFF500
00000000001CFDA99200
00000000008F90000000
0000000000CF10000000
0000000000FD00000000
0000000000FC00000000
0000000000FC00000000
0000000000EC00000000
00000000009F30000000
7FFFFFFFFFFFFFFFFFA0
4999999999999EF99950
0000000000000CD00000
0000000000000CD00000
0000000000000CD00000
0000016899999ED00000
00004EFFFFFFFFA00000
0001EE51000000000000
0004F800000000000000
0006F500000000000000
0006F500000000000000
0004F800000000000000
0001EE51000000000000
00004EFFFFFFEB400000
000001689999BFF40000
00000000000003FB0000
00000000000000DE0000
0007F200000000CE0000
0008F300000000CE0000
0008F700000000ED0000
0008FE61000029F80000
0008FBFFFFFFFFC10000
0008F348999974000000
0008F300000000000000
0007F200000000000000
ENDCHAR
STARTCHAR uni0909
ENCODING 2313
SWIDTH 471 0
DWIDTH 17 0
BBX 19 23 -1 0
BITMAP
7FFFFFFFFFFFFFFFFF60
49999999999CFE999930
0000000000007F800000
0000000000000BF10000
00000000000008F40000
00000000000006F50000
00000000000006F50000
00000000000008F40000
0000000000000BF20000
0000000000006FC00000
00000002999CFD200000
00000004FFFFF8000000
000000000013AF900000
0000000000000BF30000
00000000000006F60000
003E6000000004F80000
004F7000000003F80000
004F7000000003F80000
003F9000000005F70000
001FC000000009F40000
000AF80000005FD00000
0001DFDA999CFE300000
000018DFFFFD92000000
ENDCHAR
STARTCHAR uni090A
ENCODING 2314
SWIDTH 661 0
DWIDTH 24 0
BBX 26 23 -1 0
BITMAP
7FFFFFFFFFFFFFFFFFFFFFFFF4
49999999999CFE999999999992
0000000000007F800000000000
0000000000000BF10000000000
00000000000008F40000000000
00000000000006F50000000000
00000000000006F50000000000
00000000000008F40000000000
0000000000000BF20000000000
0000000000006FB00000000000
00000002999CFB100000000000
00000004FFFFFFFFFFFEB50000
000000000013AFF9999BEF7000
0000000000000BF400002DF200
00021000000006F7000006F700
004F7000000004F8000002F900
004F7000000003F8000001F900
004F7000000003F8000001F900
003F9000000005F7000003F800
001FD000000009F3000009F500
0009F80000005FC000028FD000
0001CFDA999CFE3005FFFD2000
000018DFFFFD92000398500000
ENDCHAR
STARTCHAR uni090B
ENCODING 2315
SWIDTH 753 0
DWIDTH 27 0
BBX 29 23 -1 0
BITMAP
7FFFFFFFFFFFFFFFFFFFFFFFFFFF90
4999999999999BFC99999999999950
00000000000004F700000000000000
00000000000004F700000000000000
00000000000004F700000000000000
00000000000004F700000000000000
00000000000004F700000000000000
000005BEFFEC75F7000002BFF50000
00008FEB999CFDF700004EFAF60000
0003FD2000004FF70007FE44F60000
0008F400000009F700AFC204F60000
000AF100000006F72CFA1004F60000
000BF000000005FAEF800004F60000
000BF000000005FFE5000016F60000
00068000000007FD30006DFFF50000
0000000000009FF70007FD75410000
00000000002CFDF7000DE100000000
0000000004EF74F7000FB000000000
000000007FE404F7000FA000000000
0000001AFC2004F7000FC000000000
000002CF900004F7000CF300000000
00005EE6000004F70005FFB9970000
0003FD30000004F600004BEFFC0000
ENDCHAR
STARTCHAR uni090C
ENCODING 2316
SWIDTH 676 0
DWIDTH 24 0
BBX 26 31 -1 -8
BITMAP
7FFFFFFFFFFFFFFFFFFFFFFFFC
49999999999999999999EF9997
00000000000000000000BF1000
00000000000000000000BF1000
00000000000000000000BF1000
00000000000000000000BF1000
00000000000000000000BF1000
000003AEFEA3007CEEB4BF1000
00005FFB9BEF39FDAADFDF1000
0000EE30001CDF700007FF1000
0004F8000004FD000000EF1000
0006F5000001FB000000BF1000
0007F4000001FA000000BF1000
0007F4000001FA000000BF1000
0007F4000001FA000000BF1000
0007F4000000A6000000BF1000
0006F400000000000000BF1000
0005F600000000000000BF1000
0002FB00000000000000BF1000
0000BFA3100000000000BF1000
00001BFFFFE000000000BF1000
000000378980000006CEFF1000
00000000000000008FEA980000
0000000000000001FD10000000
0000000000000004F700000000
0000000000000006F500000000
0000000000000005F600000000
0000000000000002FA00000076
0000000000000000BF82014BFB
00000000000000002CFFFFFF91
00000000000000000047886200
ENDCHAR
STARTCHAR uni090D
ENCODING 2317
SWIDTH 521 0
DWIDTH 19 0
BBX 21 31 -1 1
BITMAP
00000AD00000003F600000
00000AF10000005F600000
000007F6000000AF300000
000001DFB9889CFA000000
00000029EFFFFD80000000
0000000000000000000000
0000000000000000000000
0000000000000000000000
0000000000000000000000
7FFFFFFFFFFFFFFFFFFF60
4999DF999999999BFC9930
0000AF0000000005F60000
0000AF0000000005F60000
0000AF0000000005F60000
0000AF0000000005F60000
0000AF0000000005F60000
0000AF0000000005F60000
0000AF0000000007F50000
0000AF000000000CF20000
0000AF000000029FB00000
0000AF00005FFFFC100000
0000AF0000399840000000
0000AF0000000000000000
0000AF0000000000000000
0000AF0000000000000000
0000AF0000000000000000
00009F2000000000000000
00006F7000000000000000
00001EE300000000000000
000004EFB9999999300000
00000029DFFFFFFF600000
ENDCHAR
STARTCHAR uni090E
ENCODING 2318
SWIDTH 522 0
DWIDTH 19 0
BBX 21 31 -1 1
BITMAP
00000000CC000000000000
00000000CE000000000000
000000009F500000000000
000000002EE60000000000
0000000003CFD600000000
000000000006DFD4000000
00000000000007EF800000
000000000000001CF30000
0000000000000005F70000
7FFFFFFFFFFFFFFFFFFF60
4999DF999999999BFC9930
0000AF0000000005F60000
0000AF0000000005F60000
0000AF0000000005F60000
0000AF0000000005F60000
0000AF0000000005F60000
0000AF0000000005F60000
0000AF0000000007F50000
0000AF000000000CF20000
0000AF000000029FB00000
0000AF00005FFFFC100000
0000AF0000399840000000
0000AF0000000000000000
0000AF0000000000000000
0000AF0000000000000000
0000AF0000000000000000
00009F2000000000000000
00006F7000000000000000
00001EE300000000000000
000004EFB9999999300000
00000029DFFFFFFF600000
ENDCHAR
STARTCHAR uni090F
ENCODING 2319
SWIDTH 526 0
DWIDTH 19 0
BBX 21 22 -1 1
BITMAP
7FFFFFFFFFFFFFFFFFFF60
4999DF999999999BFC9930
0000AF0000000005F60000
0000AF0000000005F60000
0000AF0000000005F60000
0000AF0000000005F60000
0000AF0000000005F60000
0000AF0000000005F60000
0000AF0000000007F50000
0000AF000000000CF20000
0000AF000000029FB00000
0000AF00005FFFFC100000
0000AF0000399840000000
0000AF0000000000000000
0000AF0000000000000000
0000AF0000000000000000
0000AF0000000000000000
00009F2000000000000000
00006F7000000000000000
00001EE300000000000000
000004EFB9999999300000
00000029DFFFFFFF600000
ENDCHAR
STARTCHAR uni0910
ENCODING 2320
SWIDTH 526 0
DWIDTH 19 0
BBX 21 31 -1 1
BITMAP
0000000003FB0000000000
0000000000AF6000000000
00000000001EE200000000
000000000005FB00000000
0000000000009F50000000
0000000000001DE1000000
00000000000003FA000000
000000000000006F500000
0000000000000009E20000
7FFFFFFFFFFFFFFFFFFF60
4999DF999999999BFC9930
0000AF0000000005F60000
0000AF0000000005F60000
0000AF0000000005F60000
0000AF0000000005F60000
0000AF0000000005F60000
0000AF0000000005F60000
0000AF0000000007F50000
0000AF000000000CF20000
0000AF000000029FB00000
0000AF00005FFFFC100000
0000AF0000399840000000
0000AF0000000000000000
0000AF0000000000000000
0000AF0000000000000000
0000AF0000000000000000
00009F2000000000000000
00006F7000000000000000
00001EE300000000000000
000004EFB9999999300000
00000029DFFFFFFF600000
ENDCHAR
STARTCHAR uni0911
ENCODING 2321
SWIDTH 829 0
DWIDTH 30 0
BBX 30 32 1 -1
BITMAP
000000000000000540000000261000
000000000000000DC00000006F4000
000000000000000BE00000009F2000
0000000000000007FA200015ED0000
0000000000000000BFFFFFFFE30000
000000000000000004788886100000
000000000000000000000000000000
000000000000000000000000000000
06FFFFD920000005FFFFFFFFFFFFF5
039999CFE2000008FB99999AFD9993
00000006FC000008F3000002F80000
00000000BF200008F3000002F80000
000000007F500008F3000002F80000
000000006F600008F3000002F80000
000000006F500008F3000002F80000
000000008F400008F3000002F80000
00000000DE100008F3000002F80000
0000013BF7000008F3000002F80000
007FFFFF60000008F3000002F80000
004999CFD2000008F3000002F80000
00000005FD99999CF3000002F80000
00000000AFFFFFFFF3000002F80000
000000007F500008F3000002F80000
000000005F600008F3000002F80000
000000006F500008F3000002F80000
000000008F400008F3000002F80000
00000000DE100008F3000002F80000
0000013BF8000008F3000002F80000
AFFFFFFF90000008F3000002F80000
5999987200000008F3000002F80000
0000000000000007F3000002F80000
000000000000000010000000100000
ENDCHAR
STARTCHAR uni0912
ENCODING 2322
SWIDTH 828 0
DWIDTH 30 0
BBX 30 33 1 -1
BITMAP
0000000000000000BE000000000000
0000000000000000AF100000000000
00000000000000007F600000000000
00000000000000001DF71000000000
000000000000000002CFD600000000
00000000000000000005DFD5000000
0000000000000000000006EF900000
00000000000000000000001BF50000
000000000000000000000003F80000
06FFFFD920000005FFFFFFFFFFFFF4
039999CFE2000008FB99999BFC9992
00000006FC000008F3000004F80000
00000000BF200008F3000004F80000
000000007F500008F3000004F80000
000000006F600008F3000004F80000
000000006F500008F3000004F80000
000000008F400008F3000004F80000
00000000DE100008F3000004F80000
0000013BF7000008F3000004F80000
007FFFFF60000008F3000004F80000
004999CFD2000008F3000004F80000
00000005FD99999CF3000004F80000
00000000AFFFFFFFF3000004F80000
000000007F500008F3000004F80000
000000005F600008F3000004F80000
000000006F500008F3000004F80000
000000008F400008F3000004F80000
00000000DE100008F3000004F80000
0000013BF8000008F3000004F80000
AFFFFFFF90000008F3000004F80000
5999987200000008F3000004F80000
0000000000000007F3000003F70000
000000000000000010000000100000
ENDCHAR
STARTCHAR uni0913
ENCODING 2323
SWIDTH 829 0
DWIDTH 30 0
BBX 30 33 1 -1
BITMAP
000000000000000002FD1000000000
0000000000000000009F9000000000
0000000000000000001DF400000000
00000000000000000003FD10000000
000000000000000000008F80000000
000000000000000000000CF3000000
0000000000000000000002ED000000
00000000000000000000005F800000
000000000000000000000007F40000
06FFFFD920000005FFFFFFFFFFFFF5
039999CFE2000008FB99999AFD9993
00000006FC000008F3000002F80000
00000000BF200008F3000002F80000
000000007F500008F3000002F80000
000000006F600008F3000002F80000
000000006F500008F3000002F80000
000000008F400008F3000002F80000
00000000DE100008F3000002F80000
0000013BF7000008F3000002F80000
007FFFFF60000008F3000002F80000
004999CFD2000008F3000002F80000
00000005FD99999CF3000002F80000
00000000AFFFFFFFF3000002F80000
000000007F500008F3000002F80000
000000005F600008F3000002F80000
000000006F500008F3000002F80000
000000008F400008F3000002F80000
00000000DE100008F3000002F80000
0000013BF8000008F3000002F80000
AFFFFFFF90000008F3000002F80000
5999987200000008F3000002F80000
0000000000000007F3000002F80000
000000000000000010000000100000
ENDCHAR
STARTCHAR uni0914
ENCODING 2324
SWIDTH 829 0
DWIDTH 30 0
BBX 30 33 1 -1
BITMAP
000000000000000006F70001F80000
000000000000000001DF3002F80000
0000000000000000003FC002F80000
00000000000000000008F702F80000
00000000000000000000CE21F80000
000000000000000000002EB0F80000
0000000000000000000005F6D80000
00000000000000000000008EB80000
000000000000000000000009F90000
06FFFFD920000005FFFFFFFFFFFFF5
039999CFE2000008FB99999AFD9993
00000006FC000008F3000002F80000
00000000BF200008F3000002F80000
000000007F500008F3000002F80000
000000006F600008F3000002F80000
000000006F500008F3000002F80000
000000008F400008F3000002F80000
00000000DE100008F3000002F80000
0000013BF7000008F3000002F80000
007FFFFF60000008F3000002F80000
004999CFD2000008F3000002F80000
00000005FD99999CF3000002F80000
00000000AFFFFFFFF3000002F80000
000000007F500008F3000002F80000
000000005F600008F3000002F80000
000000006F500008F3000002F80000
000000008F400008F3000002F80000
00000000DE100008F3000002F80000
0000013BF8000008F3000002F80000
AFFFFFFF90000008F3000002F80000
5999987200000008F3000002F80000
0000000000000007F3000002F80000
000000000000000010000000100000
ENDCHAR
STARTCHAR uni0915
ENCODING 2325
SWIDTH 725 0
DWIDTH 26 0
BBX 28 24 -1 -1
BITMAP
7FFFFFFFFFFFFFFFFFFFFFFFFFF9
4999999999999EF9999999999995
0000000000000CD0000000000000
0000000000000CD0000000000000
0000000000000CD0000000000000
0000005899400CD0378985100000
00002DFFFF800CD6FFFFFFE40000
0001DF8200000CFE720027EE2000
0007F80000000CF60000006F8000
000AF10000000CF10000000FC000
000CE00000000CE00000000DD000
000CE00000000CD00000000CE000
000CE00000000CD00000000CE000
000CE00000000CD00000000CE000
000CE00000000CD00000000DD000
000BF10000000ED00000000FC000
0007F80000005FD00000006F8000
0001EF820026EFD0000027EE2000
00003DFFFFFF8CD005FFFFE40000
0000005899730CD0039985100000
0000000000000CD0000000000000
0000000000000CD0000000000000
0000000000000CD0000000000000
0000000000000010000000000000
ENDCHAR
STARTCHAR uni0916
ENCODING 2326
SWIDTH 696 0
DWIDTH 25 0
BBX 27 24 -1 -1
BITMAP
7FFFFFFFFFFFFFFFFFFFFFFFFF80
49999999CFA9999999999FE99940
000000008F30000000000EB00000
000000008F30000000000EB00000
000000008F30000000000EB00000
000000008F30000000000EB00000
000000008F30003AEF600EB00000
000000008F3005FFB9300EB00000
000000009F201EE300000EB00000
00000000DF005F8000000EB00000
0000002AF9007F5000000EB00000
00BFFFFFC1008F3000000EB00000
00BFC98400008F3000000EB00000
002ED10000007F5000001FB00000
0007F90000005F8000004FB00000
0000CF4000001EE30002CFB00000
00002FD1000005FFB9BEBFB00000
000007F80000004BEFD81EB00000
000000CF3000000000000EB00000
0000002FD000000000000EB00000
00000007F800000000000EB00000
00000000CF30000000000EB00000
000000003EC0000000000EB00000
0000000001100000000001000000
ENDCHAR
STARTCHAR uni0917
ENCODING 2327
SWIDTH 494 0
DWIDTH 18 0
BBX 20 24 -1 -1
BITMAP
7FFFFFFFFFFFFFFFFFF4
49999AFD99999BFC9992
000003F8000004F70000
000003F8000004F70000
000003F8000004F70000
000003F8000004F70000
000003F8000004F70000
000003F8000004F70000
000003F8000004F70000
000003F8000004F70000
000005F8000004F70000
000007F6000004F70000
00002EF1000004F70000
029BFF70000004F70000
04FEB500000004F70000
00000000000004F70000
00000000000004F70000
00000000000004F70000
00000000000004F70000
00000000000004F70000
00000000000004F70000
00000000000004F70000
00000000000003F70000
00000000000000100000
ENDCHAR
STARTCHAR uni0918
ENCODING 2328
SWIDTH 559 0
DWIDTH 20 0
BBX 22 24 -1 -1
BITMAP
7FFFFFFFFFFFFFFFFFFFF9
4999BFEA99999999FE9995
0001EE2000000000ED0000
0004F70000000000ED0000
0006F50000000000ED0000
0006F50000000000ED0000
0005F60000000000ED0000
0002FA0000000000ED0000
0000AF7200000000ED0000
000008FFFFD00000ED0000
00004EEA99700000ED0000
0000EE2000000000ED0000
0004F70000000000ED0000
0006F50000000000ED0000
0006F50000000000ED0000
0006F60000000001FD0000
0004F80000000005FD0000
0001EE300000002DFD0000
00005FFB99999BFBED0000
000003AEFFFFFD91ED0000
0000000000000000ED0000
0000000000000000ED0000
0000000000000000DC0000
0000000000000000100000
ENDCHAR
STARTCHAR uni0919
ENCODING 2329
SWIDTH 505 0
DWIDTH 18 0
BBX 20 23 -1 0
BITMAP
7FFFFFFFFFFFFFFFFFFA
4999999999999FE99995
0000000000000EC00000
0000000000000EC00000
0000000000000EC00000
0000000000000EC00000
000006CEFFFFFFB00000
00009FDA999999400000
0001FC00000000000000
0004F700000000000000
0004F70000000000DE00
0003F900000000007800
0000EE51000000000000
00004EFFFFFFEA300000
000001689999BFE30000
00000000000005FA0000
00000000000000FD0000
00015000000000DD0000
0007F300000000DD0000
0006F500000000FC0000
0003FA00000006F90000
0000BFDA9999BFE20000
000018DFFFFFEA300000
ENDCHAR
STARTCHAR uni091A
ENCODING 2330
SWIDTH 563 0
DWIDTH 20 0
BBX 22 24 -1 -1
BITMAP
7FFFFFFFFFFFFFFFFFFFFB
4999999999999999EF9996
0000000000000000CF0000
0000000000000000CF0000
0000000000000000CF0000
0000000000000000CF0000
0000000000000000CF0000
03FFFFFFFFFF9000CF0000
019999EFDA995000CF0000
000007F800000000CF0000
00000ED000000000CF0000
00002FA000000000CF0000
00003F8000000000CF0000
00003F8000000000CF0000
00002FA000000000DF0000
00000ED000000002FF0000
000009F80000001BFF0000
000001CFDA999BEDCF0000
00000018DFFFFEA2CF0000
0000000000000000CF0000
0000000000000000CF0000
0000000000000000CF0000
0000000000000000BE0000
0000000000000000010000
ENDCHAR
STARTCHAR uni091B
ENCODING 2331
SWIDTH 581 0
DWIDTH 21 0
BBX 23 22 -1 1
BITMAP
7FFFFFFFFFFFFFFFFFFFFF60
4999AFFB99999999CFB99930
0000CF30000000006F500000
0002FA00000000006F500000
0004F800000000006F500000
0004F800000000006F500000
0004F800000000007F400000
0003F90000001FFEEE100000
0001FC000000089AEF500000
00009F92000000002EE00000
000007FFFF50000009F30000
00002DFB9920000007F40000
0000CF400000000006F40000
0002FB000000000006F40000
0003F8000000000006F40000
0004F8000000000006F40000
0004F8000000000007F40000
0003F9000000000009F30000
0001FD00000000001EE00000
00009FA300000014CF600000
00001BFFFFFFFFFFF8000000
000000379999998720000000
ENDCHAR
STARTCHAR uni091C
ENCODING 2332
SWIDTH 547 0
DWIDTH 20 0
BBX 22 24 -1 -1
BITMAP
7FFFFFFFFFFFFFFFFFFFF2
499999999999999BFC9991
0000000000000005F60000
0000000000000005F60000
0000000000000005F60000
0000000000000005F60000
0000000000000005F60000
000399999999999BF60000
0006FFFFFFFFFFFFF60000
00000015DD200006F60000
000000003FA00005F60000
000000000DE00005F60000
000000000BF00005F60000
000000000BF00005F60000
000000000BF00005F60000
000000000BF00005F60000
000000000DE00005F60000
000000003FB00005F60000
00000014DF500005F60000
00DFFFFFF8000005F60000
0079998720000005F60000
0000000000000005F60000
0000000000000005F50000
0000000000000000100000
ENDCHAR
STARTCHAR uni091D
ENCODING 2333
SWIDTH 664 0
DWIDTH 24 0
BBX 26 24 -1 -1
BITMAP
7FFFFFFFFFFFFFFFFFFFFFFFF5
49999999999AFD99999AFD9993
000000000001FA000002F90000
000000000001FA000002F90000
000000000002FA000002F90000
000007CEFFFFF9000002F90000
0000AFDA999983000002F90000
0002FC00000000000002F90000
0005F700000000000002F90000
0006F600000000000002F90000
0004F800000000000002F90000
0001EE51000000000003F90000
00004EFFFFFFFFFFFFFFF90000
00000168999BFF99999AF90000
0000000000007F700002F90000
0000000000001FA00002F90000
0008F20000000FB00002F90000
0008F30000001FB00002F90000
0008F60000003F900002F90000
0008FE510013CF400002F90000
0008FBFFFFFFF8000002F90000
0008F248998730000002F90000
0008F200000000000002F90000
0008F200000000000000100000
ENDCHAR
STARTCHAR uni091E
ENCODING 2334
SWIDTH 592 0
DWIDTH 21 0
BBX 23 24 -1 -1
BITMAP
7FFFFFFFFFFFFFFFFFFFFFC0
49999999999999999EF99960
00000000000000000BF00000
00000000000000000BF00000
00000000000000000BF00000
00000000000000000BF00000
000CFFFEB40000000BF00000
0007999BEF6000000BF00000
000000002DE100000BF00000
0000000006F400000BF00000
0000000003F600000BF00000
0000000002F700000BF00000
0000000002FFFFFFFFF00000
0000000002FC99999EF00000
0000000002F700000BF00000
0000000004F600000BF00000
0000000009F300000BF00000
000000028FD000000BF00000
006FFFFFFD2000000BF00000
00399998500000000BF00000
00000000000000000BF00000
00000000000000000BF00000
00000000000000000BF00000
000000000000000000100000
ENDCHAR
STARTCHAR uni091F
ENCODING 2335
SWIDTH 485 0
DWIDTH 17 0
BBX 19 22 -1 1
BITMAP
7FFFFFFFFFFFFFFFFFE0
499999999999AFD99980
0000000000001FA00000
0000000000001FA00000
0000000000001FA00000
0000000000001FA00000
0000000000002FA00000
000003AEFFFFFF900000
00004FFB999999300000
0001EE30000000000000
0006F700000000000000
0008F400000000000000
0009F200000000000000
0009F200000000000000
0009F200000000085000
0009F2000000000FA000
0009F3000000001FA000
0007F5000000003F8000
0004FB000000009F5000
0000BFA3000028FC0000
00001BFFFFFFFFC20000
00000047999974000000
ENDCHAR
STARTCHAR uni0920
ENCODING 2336
SWIDTH 512 0
DWIDTH 18 0
BBX 20 22 -1 1
BITMAP
7FFFFFFFFFFFFFFFFFFE
4999999999999DFA9998
00000000000009F20000
00000000000009F20000
0000000000000AF10000
0000000000000CE00000
0000000000018F900000
000003AEFFFFFD100000
00005FFB9999BFE40000
0001EE30000003DF2000
0006F7000000006F8000
0009F3000000002FA000
0009F2000000000FB000
0009F2000000000FB000
0009F2000000000FB000
0009F2000000000FB000
0009F2000000000FB000
0008F4000000003F9000
0004FB000000009F6000
0000CFA3000029FD0000
00001CFFFFFFFFC20000
00000047999984000000
ENDCHAR
STARTCHAR uni0921
ENCODING 2337
SWIDTH 475 0
DWIDTH 17 0
BBX 19 23 -1 0
BITMAP
7FFFFFFFFFFFFFFFFF90
4999999999999FE99950
0000000000000EC00000
0000000000000EC00000
0000000000000EC00000
0000000000000EC00000
000006CEFFFFFFB00000
00009FDA999999400000
0001FC00000000000000
0004F700000000000000
0004F600000000000000
0003F800000000000000
0000EE51000000000000
00004EFFFFFFDA300000
000001689999CFE30000
00000000000006FA0000
00000000000000FD0000
00026100000000DD0000
0007F300000000DD0000
0006F500000000FC0000
0002FB00000008F90000
00009FDA9999CFE20000
000007CFFFFFD9200000
ENDCHAR
STARTCHAR uni0922
ENCODING 2338
SWIDTH 485 0
DWIDTH 17 0
BBX 19 22 -1 1
BITMAP
7FFFFFFFFFFFFFFFFFE0
4999999999999FE99980
0000000000000DD00000
0000000000000DD00000
0000000000000DD00000
0000000000000DD00000
0000003799999FD00000
00001AFFFFFFFFA00000
0000AFA3000000000000
0002FC00000000000000
0006F500000000000000
0007F300000000000000
0008F300003BEFC50000
0008F30000DFAAEF3000
0008F30004F6003F8000
0008F30006F3000EA000
0007F30006F2000DB000
0006F5000020000FA000
0002FB000000004F8000
0000AFA3000014DF2000
00001AFFFFFFFFF60000
00000037899986200000
ENDCHAR
STARTCHAR uni0923
ENCODING 2339
SWIDTH 681 0
DWIDTH 25 0
BBX 27 24 -1 -1
BITMAP
7FFFFFFFFFFFFFFFFFFFFFFFFF10
4999FD999999CFB99999CFB99800
0001FA0000006F5000007F400000
0001FA0000006F5000007F400000
0001FA0000006F5000007F400000
0001FA0000006F5000007F400000
0001FA0000006F5000007F400000
0001FA0000006F5000007F400000
0001FA0000006F5000007F400000
0001FA0000006F5000007F400000
0001FA0000006F5000007F400000
0001FA0000006F5000007F400000
0000FB0000008F4000007F400000
0000CE200000CF1000007F400000
00005FC3102AFA0000007F400000
000008FFFFFFB10000007F400000
000000278974000000007F400000
000000000000000000007F400000
000000000000000000007F400000
000000000000000000007F400000
000000000000000000007F400000
000000000000000000007F400000
000000000000000000007F300000
0000000000000000000001000000
ENDCHAR
STARTCHAR uni0924
ENCODING 2340
SWIDTH 496 0
DWIDTH 18 0
BBX 20 23 -1 0
BITMAP
7FFFFFFFFFFFFFFFFFF5
4999999999999AFD9992
00000000000003F80000
00000000000003F80000
00000000000003F80000
00000000000003F80000
00000000000003F80000
00000000000003F80000
000005BEFFFFFFF80000
00008FEB99999AF80000
0002FD20000003F80000
0007F500000003F80000
0009F300000003F80000
0009F200000003F80000
0009F200000003F80000
0009F200000003F80000
0009F200000003F80000
0009F200000003F80000
0009F300000003F80000
0007F600000003F80000
0002FD20000003F80000
00007FFB940003F80000
000004BEF70002F80000
ENDCHAR
STARTCHAR uni0925
ENCODING 2341
SWIDTH 593 0
DWIDTH 21 0
BBX 20 24 2 -1
BITMAP
002AEFD92000008FFFFC
02EFB9BFE20000AFA997
09F50006F80000AF1000
0CE00000EC0000AF1000
0CC00000DD0000AF1000
0CC00000DD0000AF1000
02200000EC0000AF1000
00000001FB0000AF1000
0000000AF60000AF1000
69999ADFC00000AF1000
CFFFFFD8100000AF1000
CE000000000000AF1000
CE000000000000AF1000
CE000000000000BF1000
AF100000000000DF1000
7F600000000003FF1000
1EE3000000003DFF1000
04EFC999999BFCBF1000
0029DFFFFFFD81AF1000
00000000000000AF1000
00000000000000AF1000
00000000000000AF1000
00000000000000AF1000
00000000000000010000
ENDCHAR
STARTCHAR uni0926
ENCODING 2342
SWIDTH 489 0
DWIDTH 18 0
BBX 20 23 -1 0
BITMAP
7FFFFFFFFFFFFFFFFFF1
4999999999999BFB9980
00000000000005F50000
00000000000005F50000
00000000000005F50000
00000000000006F50000
000003AEFFFFFFF50000
00004EFC999999810000
0000EF40000000000000
0005F800000000000000
0007F400000000000000
0008F300000000000000
0008F300000000000000
0008F300000000000000
0008F300000000BD0000
0007F400000000BE0000
0005F800000000DE0000
0000DE40000006FE0000
00004EFB9999CFEE0000
000003AEFFFFC5BE0000
00000000000000BE0000
00000000000000BE0000
00000000000000BD0000
ENDCHAR
STARTCHAR uni0927
ENCODING 2343
SWIDTH 560 0
DWIDTH 20 0
BBX 22 24 -1 -1
BITMAP
7FFFFFFFF5007FFFFFFFF9
4999BFEA92004999FE9995
0000DD1000000000DD0000
0004F80000000000DD0000
0005F60000000000DD0000
0006F50000000000DD0000
0005F60000000000DD0000
0002FA0000000000DD0000
0000AF8200000000DD0000
000008FFFFE00000DD0000
00003EFB99800000DD0000
0000DE2000000000DD0000
0003F90000000000DD0000
0005F60000000000DD0000
0006F50000000000DD0000
0006F60000000000ED0000
0005F70000000001FD0000
0001FC0000000008FD0000
0000AFA30000028FFD0000
00001BFFFFFFFFF7DD0000
0000004799999730DD0000
0000000000000000DD0000
0000000000000000DC0000
0000000000000000100000
ENDCHAR
STARTCHAR uni0928
ENCODING 2344
SWIDTH 473 0
DWIDTH 17 0
BBX 19 24 -1 -1
BITMAP
7FFFFFFFFFFFFFFFFF70
4999999999999FE99940
0000000000000FB00000
0000000000000FB00000
0000000000000FB00000
0000000000000FB00000
0000000000000FB00000
0000000000000FB00000
0000000000001FB00000
0001AEFFFFFFFFB00000
000CFC9999999FB00000
003FA00000000FB00000
005F600000000FB00000
004F700000000FB00000
001F900000000FB00000
0009800000000FB00000
0000000000000FB00000
0000000000000FB00000
0000000000000FB00000
0000000000000FB00000
0000000000000FB00000
0000000000000FB00000
0000000000000FA00000
00000000000001000000
ENDCHAR
STARTCHAR uni0928093C
ENCODING 2345
SWIDTH 473 0
DWIDTH 17 0
BBX 19 24 -1 -1
BITMAP
7FFFFFFFFFFFFFFFFF70
4999999999999FE99940
0000000000000FB00000
0000000000000FB00000
0000000000000FB00000
0000000000000FB00000
0000000000000FB00000
0000000000000FB00000
0000000000001FB00000
0001AEFFFFFFFFB00000
000CFC9999999FB00000
003FA00000000FB00000
005F600000000FB00000
004F700000000FB00000
002F900000000FB00000
0009900000000FB00000
0000000000000FB00000
0000000000000FB00000
0000000000000FB00000
0000000000000FB00000
0000000000000FB00000
0000000000000FB00000
000000AF30000C800000
00000059100000000000
ENDCHAR
STARTCHAR uni092A
ENCODING 2346
SWIDTH 503 0
DWIDTH 18 0
BBX 20 24 -1 -1
BITMAP
7FFFFFFFFFFFFFFFFFF9
499AFE99999999FE9995
0001FA00000000DC0000
0001FA00000000DC0000
0001FA00000000DC0000
0001FA00000000DC0000
0001FA00000000DC0000
0001FA00000000DC0000
0001FA00000000DC0000
0001FA00000000DC0000
0001FA00000000DC0000
0001FB00000000EC0000
0000ED00000001FC0000
0000BF30000007FC0000
00003FD510028FFC0000
000005EFFFFFF7DC0000
00000016898730DC0000
00000000000000DC0000
00000000000000DC0000
00000000000000DC0000
00000000000000DC0000
00000000000000DC0000
00000000000000DC0000
00000000000000100000
ENDCHAR
STARTCHAR uni092B
ENCODING 2347
SWIDTH 739 0
DWIDTH 27 0
BBX 29 24 -1 -1
BITMAP
7FFFFFFFFFFFFFFFFFFFFFFFFFFF10
4999FD9999999BFC99999999999800
0001FA00000005F600000000000000
0001FA00000005F600000000000000
0001FA00000005F600000000000000
0001FA00000005F616898720000000
0001FA00000005F8DFFFFFF9000000
0001FA00000005FFB31014CF800000
0001FA00000005FD1000001DF10000
0001FA00000005F800000008F40000
0001FA00000005F600000006F50000
0000FC00000006F600000005F60000
0000DE1000000AF600000005F60000
00008F9000005FF600000005F60000
00000CFDA99CFBF600000006F50000
0000007CFFEC65F600000008F40000
00000000000005F60000001DF10000
00000000000005F6000014CF800000
00000000000005F600DFFFF9000000
00000000000005F600798730000000
00000000000005F600000000000000
00000000000005F600000000000000
00000000000004F600000000000000
000000000000001000000000000000
ENDCHAR
STARTCHAR uni092C
ENCODING 2348
SWIDTH 491 0
DWIDTH 18 0
BBX 20 24 -1 -1
BITMAP
7FFFFFFFFFFFFFFFFFF2
4999999999999BFB9991
00000000000005F50000
00000000000005F50000
00000000000005F50000
000003AEFFD005F50000
00005FFB997005F50000
0002FF50000005F50000
0007FED2000005F50000
000AF2CD100005F50000
000BF01DC10005F50000
000BF002DB1005F50000
000BF0002EB005F50000
000BF00003EA05F50000
000BF000003E95F50000
000AF2000004FDF50000
0007F50000005FF50000
0002FD2000006FF50000
00006FFB999CFBF50000
000004AEFFEC55F50000
00000000000005F50000
00000000000005F50000
00000000000005F50000
00000000000000100000
ENDCHAR
STARTCHAR uni092D
ENCODING 2349
SWIDTH 491 0
DWIDTH 18 0
BBX 20 24 -1 -1
BITMAP
7FD8100000EFFFFFFFF2
49DFB00000899BFB9991
000AF500000005F50000
0004F800000005F50000
0002F900000005F50000
0002F900000005F50000
0002F900000005F50000
0002F900000005F50000
0002F900000005F50000
0002F900000005F50000
0002FD9999999BF50000
0002FFFFFFFFFFF50000
0002FA00000006F50000
0002F900000005F50000
0002F900000005F50000
0002F900000005F50000
00008400000005F50000
00000000000005F50000
00000000000005F50000
00000000000005F50000
00000000000005F50000
00000000000005F50000
00000000000005F50000
00000000000000100000
ENDCHAR
STARTCHAR uni092E
ENCODING 2350
SWIDTH 490 0
DWIDTH 18 0
BBX 20 24 -1 -1
BITMAP
7FFFFFFFFFFFFFFFFFF2
499AFD9999999CFB9981
0002F900000006F50000
0002F900000006F50000
0002F900000006F50000
0002F900000006F50000
0002F900000006F50000
0002F900000006F50000
0002F900000006F50000
0002F900000006F50000
0002FD9999999CF50000
0002FFFFFFFFFFF50000
0002F900000007F50000
0002F900000006F50000
0002F900000006F50000
0002F900000006F50000
00018400000006F50000
00000000000006F50000
00000000000006F50000
00000000000006F50000
00000000000006F50000
00000000000006F50000
00000000000006F50000
00000000000000100000
ENDCHAR
STARTCHAR uni092F
ENCODING 2351
SWIDTH 564 0
DWIDTH 20 0
BBX 22 24 -1 -1
BITMAP
7FFFFFFFFFFFFFFFFFFFFC
499999AEFB999999EF9996
00000001CE100000BF0000
000000005F600000BF0000
000000003F800000BF0000
000000003F800000BF0000
000000005F700000BF0000
00000001BF300000BF0000
000499AEFA000000BF0000
0008FFEC70000000BF0000
0008F30000000000BF0000
0008F30000000000BF0000
0008F30000000000BF0000
0008F30000000000BF0000
0006F50000000000DF0000
0003FA0000000004FF0000
0000AF600000003DFF0000
00001CFDA9999BFCBF0000
0000017CEFFFFD81BF0000
0000000000000000BF0000
0000000000000000BF0000
0000000000000000BF0000
0000000000000000BE0000
0000000000000000010000
ENDCHAR
STARTCHAR uni0930
ENCODING 2352
SWIDTH 337 0
DWIDTH 12 0
BBX 14 24 -1 -1
BITMAP
7FFFFFFFFFFFF9
49999999CFB995
000000008F3000
000000008F3000
000000008F3000
000000008F3000
000000008F3000
000000008F3000
000000009F2000
00000000DF0000
0000002AF90000
00BFFFFFC10000
00BFC984000000
002ED100000000
0007F800000000
0000CF30000000
00002FC0000000
000007F8000000
000000CF300000
0000003FC00000
00000008F70000
00000000DE2000
000000003FA000
00000000010000
ENDCHAR
STARTCHAR uni0930093C
ENCODING 2353
SWIDTH 347 0
DWIDTH 12 0
BBX 14 24 -1 -1
BITMAP
7FFFFFFFFFFFFE
49999999AFD998
000000003F8000
000000003F8000
000000003F8000
000000003F8000
000000003F8000
000000003F8000
000000004F7000
000000008F5000
00000016FD0000
006FFFFFE30000
006FE986100000
000CF400000000
0002FD10000000
00007F80000000
00000CF3000000
000003FC000000
0000008F700000
0000000DE20000
00000003FB0000
000000008F5000
039400001DE000
05F70000001000
ENDCHAR
STARTCHAR uni0932
ENCODING 2354
SWIDTH 676 0
DWIDTH 24 0
BBX 26 24 -1 -1
BITMAP
7FFFFFFFFFFFFFFFFFFFFFFFFC
49999999999999999999EF9997
00000000000000000000BF1000
00000000000000000000BF1000
00000000000000000000BF1000
00000000000000000000BF1000
00000000000000000000BF1000
000003AEFEA3007CEEB4BF1000
00005FFB9BEE39FDAADFDF1000
0000EE30001CDF700008FF1000
0004F8000004FD000000EF1000
0006F5000001FA000000BF1000
0007F4000001FA000000BF1000
0007F4000001FA000000BF1000
0007F4000001FA000000BF1000
0007F4000000A6000000BF1000
0006F400000000000000BF1000
0005F600000000000000BF1000
0002FB00000000000000BF1000
0000BFA3100000000000BF1000
00001BFFFFE000000000BF1000
00000037898000000000BF1000
00000000000000000000AF1000
00000000000000000000010000
ENDCHAR
STARTCHAR uni0933
ENCODING 2355
SWIDTH 672 0
DWIDTH 24 0
BBX 26 22 -1 1
BITMAP
7FFFFFFFFFFFFFFFFFFFFFFFFA
4999999999999999BFB9999996
00000000000000005F50000000
00000000000000005F50000000
00000000000000005F50000000
00000000000000005F50000000
0000004788500003AF92000000
00001CFFFFFD32CFFFFFB10000
0000CF92026EDCE62028FC0000
0004F9000005FF6000009F4000
0007F4000000FF1000003F7000
0009F2000000DE0000001F9000
0009F2000000DD0000001FA000
0009F2000000DD0000001FA000
0009F2000000DD0000001FA000
0009F2000000DD0000001FA000
0009F2000000DE0000001F9000
0008F4000000FF1000003F8000
0004F9000005FF6000009F5000
0000CF82026EDDE62028FC0000
00002CFFFFFD33DFFFFFC20000
00000047985100058984000000
ENDCHAR
STARTCHAR uni0933093C
ENCODING 2356
SWIDTH 672 0
DWIDTH 24 0
BBX 26 25 -1 -2
BITMAP
7FFFFFFFFFFFFFFFFFFFFFFFFA
4999999999999999BFB9999996
00000000000000005F50000000
00000000000000005F50000000
00000000000000005F50000000
00000000000000005F50000000
0000004788500003AF92000000
00001CFFFFFD32CFFFFFB10000
0000CF92026EDCE62028FC0000
0004F9000005FF6000009F4000
0007F4000000FF1000003F7000
0009F2000000DE0000001F9000
0009F2000000DD0000001FA000
0009F2000000DD0000001FA000
0009F2000000DD0000001FA000
0009F2000000DD0000001FA000
0009F2000000DE0000001F9000
0008F4000000FF1000003F8000
0004F9000005FF6000009F5000
0000CF82026EDDE62028FC0000
00002CFFFFFD33DFFFFFC20000
00000047985100058984000000
00000000000000000000000000
00000004930000000000000000
00000007F50000000000000000
ENDCHAR
STARTCHAR uni0935
ENCODING 2357
SWIDTH 484 0
DWIDTH 17 0
BBX 19 24 -1 -1
BITMAP
7FFFFFFFFFFFFFFFFFD0
4999999999999DFA9970
00000000000009F20000
00000000000009F20000
00000000000009F20000
00000048996009F20000
00002CFFFFB009F20000
0000DF92000009F20000
0006F900000009F20000
0009F300000009F20000
000BF100000009F20000
000BF000000009F20000
000BF000000009F20000
000BF000000009F20000
000BF100000009F20000
000AF30000000BF20000
0006F80000003FF20000
0001DF820015DFF20000
00002CFFFFFFB9F20000
00000048998509F20000
00000000000009F20000
00000000000009F20000
00000000000008F10000
00000000000000100000
ENDCHAR
STARTCHAR uni0936
ENCODING 2358
SWIDTH 614 0
DWIDTH 22 0
BBX 22 24 1 -1
BITMAP
0005BEFDA3000000BFFFF8
006FEA9BFE300000EE9995
01EE10004FB00000EC0000
04F800000CE00000EC0000
05F600000AF10000EC0000
05F600000AF10000EC0000
04E500000AF10000EC0000
000000000AF10000EC0000
000000000BF00000EC0000
000000000ED00000EC0000
000000008F900000EC0000
399999ADFD100000EC0000
6FFFFFFD81000000EC0000
2EE1000000000000EC0000
05FA000000000000EC0000
00AF500000000000EC0000
001EE10000000000EC0000
0005FA0000000000EC0000
0000AF5000000000EC0000
00001EE100000000EC0000
000005FA00000000EC0000
000000AF50000000EC0000
0000001DE0000000EC0000
0000000010000000100000
ENDCHAR
STARTCHAR uni0937
ENCODING 2359
SWIDTH 505 0
DWIDTH 18 0
BBX 20 24 -1 -1
BITMAP
7FFFFFFFFFFFFFFFFFFA
4999FE99999999EF9995
0001FF60000000CE0000
0001FEF4000000CE0000
0001FA8E200000CE0000
0001FA0BD10000CE0000
0001FA01CC0000CE0000
0001FA002EA000CE0000
0001FA0003E800CE0000
0001FA00005F60CE0000
0001FA000007F4CE0000
0001FB0000009EEE0000
0000ED0000000BFE0000
0000BF30000006FE0000
00004FD510017FFE0000
000005EFFFFFF8CE0000
00000016899730CE0000
00000000000000CE0000
00000000000000CE0000
00000000000000CE0000
00000000000000CE0000
00000000000000CE0000
00000000000000CD0000
00000000000000010000
ENDCHAR
STARTCHAR uni0938
ENCODING 2360
SWIDTH 575 0
DWIDTH 21 0
BBX 23 24 -1 -1
BITMAP
7FFFFFFFFFFFFFFFFFFFFF30
4999999BFC999999BFC99910
00000004F70000005F600000
00000004F70000005F600000
00000004F70000005F600000
00000004F70000005F600000
00000004F70000005F600000
00000005F70000005F600000
00000006F60000005F600000
0000000AF20000005F600000
0000028F900000006F600000
00BFFFFFFFFFFFFFFF600000
00BFB99999999999BF600000
003FC000000000005F600000
0008F600000000005F600000
0001EE10000000005F600000
00006F80000000005F600000
00000CF2000000005F600000
000004FA000000005F600000
000000BF400000005F600000
0000002FC00000005F600000
00000009F60000005F600000
00000001ED0000005F600000
000000000100000001000000
ENDCHAR
STARTCHAR uni0939
ENCODING 2361
SWIDTH 481 0
DWIDTH 17 0
BBX 19 25 -1 -2
BITMAP
7FFFFFFFFFFFFFFFFFC0
4999999999999DFA9960
00000000000009F20000
00000000000009F20000
00000000000009F20000
0000004899999DF20000
00001CFFFFFFFFD00000
0000AF92000000000000
0000FD00000000000000
0002FA00000000000000
0002FA00000000000000
0000ED00000000000000
00008F92000000000000
000008FFFFFFD9100000
00001BFC999ADFD10000
0000AF60000009F60000
0002FB00000002FA0000
0004F700000000FB0000
0005F600000000D90000
0005F600000000000000
0004F800000000000000
0001EE10000000000000
00007FC4100000000000
000008FFFFFFFFF40000
00000026899999920000
ENDCHAR
STARTCHAR uni093C
ENCODING 2364
SWIDTH 0 0
DWIDTH 0 0
BBX 3 2 -6 -3
BITMAP
6910
BF20
ENDCHAR
STARTCHAR uni093D
ENCODING 2365
SWIDTH 529 0
DWIDTH 19 0
BBX 13 23 3 0
BITMAP
0029DFFFFFF500
00DFC999999300
04FA0000000000
07F40000000000
08F30000000000
06F50000000000
04FB0000000000
00DF6000000000
005FF910000000
0005EFD5000000
00002AFFC30000
0000004CFF9000
000000006EFB00
0000000001CF70
00000000002FC0
00000000000ED0
00000000000DE0
00000000000DE0
7A000000000ED0
7F900000002FB0
09FA1000009F70
008FFB999DFC10
0003AEFFFD8100
ENDCHAR
STARTCHAR uni093E
ENCODING 2366
SWIDTH 231 0
DWIDTH 8 0
BBX 10 24 -1 -1
BITMAP
6FFFFFFFFC
3999DF9997
0000AF1000
0000AF1000
0000AF1000
0000AF1000
0000AF1000
0000AF1000
0000AF1000
0000AF1000
0000AF1000
0000AF1000
0000AF1000
0000AF1000
0000AF1000
0000AF1000
0000AF1000
0000AF1000
0000AF1000
0000AF1000
0000AF1000
0000AF1000
0000AF0000
0000010000
ENDCHAR
STARTCHAR uni093F
ENCODING 2367
SWIDTH 231 0
DWIDTH 8 0
BBX 24 33 -1 -1
BITMAP
0000006CEFFFFFFFFFFEB500
00000BFEA9999999999BEF80
00005FB10000000000001DF2
00009F3000000000000006F6
0000AF1000000000000003F8
0000AF1000000000000003F8
0000AF100000000000000194
0000AF100000000000000000
0000BF100000000000000000
6FFFFFFFFC00000000000000
3999DF999700000000000000
0000AF100000000000000000
0000AF100000000000000000
0000AF100000000000000000
0000AF100000000000000000
0000AF100000000000000000
0000AF100000000000000000
0000AF100000000000000000
0000AF100000000000000000
0000AF100000000000000000
0000AF100000000000000000
0000AF100000000000000000
0000AF100000000000000000
0000AF100000000000000000
0000AF100000000000000000
0000AF100000000000000000
0000AF100000000000000000
0000AF100000000000000000
0000AF100000000000000000
0000AF100000000000000000
0000AF100000000000000000
0000AF000000000000000000
000001000000000000000000
ENDCHAR
STARTCHAR uni0940
ENCODING 2368
SWIDTH 231 0
DWIDTH 8 0
BBX 15 33 -6 -1
BITMAP
0029DFFD92000000
02EFCAACFE200000
0BF500007FA00000
0FC000000DE00000
1FA000000BF10000
2F9000000AF10000
195000000AF10000
000000000AF10000
000000000BF10000
000006FFFFFFFFC0
000003999DF99970
000000000AF10000
000000000AF10000
000000000AF10000
000000000AF10000
000000000AF10000
000000000AF10000
000000000AF10000
000000000AF10000
000000000AF10000
000000000AF10000
000000000AF10000
000000000AF10000
000000000AF10000
000000000AF10000
000000000AF10000
000000000AF10000
000000000AF10000
000000000AF10000
000000000AF10000
000000000AF10000
000000000AF00000
0000000000100000
ENDCHAR
STARTCHAR uni0941
ENCODING 2369
SWIDTH 0 0
DWIDTH 0 0
BBX 15 10 -13 -9
BITMAP
0000000089861000
00000000FFFFE200
160000000015FA00
6F5000000000BE00
1ED0000000009F10
06F5000000009F10
00DE10000000BE00
004FC2000002EB00
0005EEB999AEF300
000029DFFFEB4000
ENDCHAR
STARTCHAR uni0942
ENCODING 2370
SWIDTH 0 0
DWIDTH 0 0
BBX 14 10 -10 -9
BITMAP
00168986300000
03EFFFFFFA1000
0DE510039FC100
3F90000006F800
5F60000000BE10
5F500000004F80
4F600000000CD0
1FB000000006F5
0AFC99400001EA
018DFF80000031
ENDCHAR
STARTCHAR uni0943
ENCODING 2371
SWIDTH 0 0
DWIDTH 0 0
BBX 11 10 -10 -9
BITMAP
004799500000
0AFFFFA00000
5FA200000000
9F2000000000
BE0000000000
BE0000000000
AF1000000580
6F8000018FC0
0CFC99ADFA10
019DFFEB5000
ENDCHAR
STARTCHAR uni0945
ENCODING 2373
SWIDTH 0 0
DWIDTH 0 0
BBX 12 6 -10 25
BITMAP
470000000073
9F10000003F7
8F20000004F6
5F9000000BF2
0CFC999ADFA0
018DFFFFD700
ENDCHAR
STARTCHAR uni0946
ENCODING 2374
SWIDTH 0 0
DWIDTH 0 0
BBX 11 11 -13 21
BITMAP
9F1000000000
9F3000000000
6F8000000000
1DF810000000
01BFE7100000
0004CFE60000
000005DFB000
0000001AF600
00000002FA00
0000000AFF40
000000069930
ENDCHAR
STARTCHAR uni0947
ENCODING 2375
SWIDTH 0 0
DWIDTH 0 0
BBX 9 11 -11 21
BITMAP
ED10000000
7FA0000000
0CF5000000
03FE100000
009F900000
001DF40000
0004FD1000
00009F9000
00000CF500
000002EF40
0000003930
ENDCHAR
STARTCHAR uni0948
ENCODING 2376
SWIDTH 0 0
DWIDTH 0 0
BBX 10 11 -12 21
BITMAP
4FA0000EA0
0CF5000FA0
02FE100FA0
008F900FA0
000DF40EA0
0004FD1DA0
00008F8BA0
00000CFAA0
000002EFB0
0000005FF4
0000000693
ENDCHAR
STARTCHAR uni0949
ENCODING 2377
SWIDTH 231 0
DWIDTH 8 0
BBX 12 32 -2 -1
BITMAP
261000000054
6F40000000EB
4F60000002F9
1ED410003BF4
05EFFFFFFF90
001688887300
000000000000
000000000000
06FFFFFFFFC0
03999DF99970
00000AF10000
00000AF10000
00000AF10000
00000AF10000
00000AF10000
00000AF10000
00000AF10000
00000AF10000
00000AF10000
00000AF10000
00000AF10000
00000AF10000
00000AF10000
00000AF10000
00000AF10000
00000AF10000
00000AF10000
00000AF10000
00000AF10000
00000AF10000
00000AF00000
000000100000
ENDCHAR
STARTCHAR uni094A
ENCODING 2378
SWIDTH 231 0
DWIDTH 8 0
BBX 14 33 -5 -1
BITMAP
4F500000000000
4F700000000000
1FD00000000000
08FC3000000000
008FFA20000000
0002AFF8100000
000003BFD20000
00000005FC0000
00000000CF1000
00006FFFFFFFFC
00003999DF9997
00000000AF1000
00000000AF1000
00000000AF1000
00000000AF1000
00000000AF1000
00000000AF1000
00000000AF1000
00000000AF1000
00000000AF1000
00000000AF1000
00000000AF1000
00000000AF1000
00000000AF1000
00000000AF1000
00000000AF1000
00000000AF1000
00000000AF1000
00000000AF1000
00000000AF1000
00000000AF1000
00000000AF0000
00000000010000
ENDCHAR
STARTCHAR uni094B
ENCODING 2379
SWIDTH 231 0
DWIDTH 8 0
BBX 12 33 -3 -1
BITMAP
AF5000000000
2FE100000000
07FA00000000
00BF50000000
002ED1000000
0005F9000000
00009F400000
00000BD10000
000001D90000
006FFFFFFFFC
003999DF9997
000000AF1000
000000AF1000
000000AF1000
000000AF1000
000000AF1000
000000AF1000
000000AF1000
000000AF1000
000000AF1000
000000AF1000
000000AF1000
000000AF1000
000000AF1000
000000AF1000
000000AF1000
000000AF1000
000000AF1000
000000AF1000
000000AF1000
000000AF1000
000000AF0000
000000010000
ENDCHAR
STARTCHAR uni094C
ENCODING 2380
SWIDTH 231 0
DWIDTH 8 0
BBX 12 33 -3 -1
BITMAP
DD10009F0000
5FA000AF1000
0AF400AF1000
01DD109F1000
004F909F1000
0008F38F1000
0000BC6F1000
00001DAF1000
000002EF1000
006FFFFFFFFC
003999DF9997
000000AF1000
000000AF1000
000000AF1000
000000AF1000
000000AF1000
000000AF1000
000000AF1000
000000AF1000
000000AF1000
000000AF1000
000000AF1000
000000AF1000
000000AF1000
000000AF1000
000000AF1000
000000AF1000
000000AF1000
000000AF1000
000000AF1000
000000AF1000
000000AF0000
000000010000
ENDCHAR
STARTCHAR uni094D
ENCODING 2381
SWIDTH 0 0
DWIDTH 0 0
BBX 6 6 -5 -8
BITMAP
DC0000
6F8000
0BF300
02FC00
008F70
000CE1
ENDCHAR
STARTCHAR uni0950
ENCODING 2384
SWIDTH 847 0
DWIDTH 30 0
BBX 26 28 2 1
BITMAP
00000000000000005920000000
00000000000000009F40000000
00000000000000000000000000
00000000000000000000000000
00000000000000000000000192
00000000000000000000016DF3
003FFFFEA40000009FFFFFFD40
0029999BFF6000005999985000
000000002EF100000000000000
0000000006F600000000000000
0000000003F900000000000000
0000000002F900000000000000
0000000003F800005999985000
0000000006F600009FFFFFFD20
000000002EE100000000028FD0
0001899BFE40000000000009F4
0002FFFFF800000000000004F7
000000039F80000000000002F9
000000000AF9999971000002F9
0000000004FFFFFFF7000002F9
3200000002F90002F8000002F9
FB00000002F90002F8000002F9
FC00000003F90002F8000002F9
DE00000005F80002F9000002F8
AF4000000BF40000FC000005F7
2EE62003AFC00000AF82014DF2
04EFFFFFFC1000002DFFFFFF60
00158997400000000058986200
ENDCHAR
STARTCHAR uni0951
ENCODING 2385
SWIDTH 0 0
DWIDTH 0 0
BBX 3 7 -6 25
BITMAP
0FA0
1FA0
1FA0
1FA0
1FA0
1FA0
0FA0
ENDCHAR
STARTCHAR uni0952
ENCODING 2386
SWIDTH 0 0
DWIDTH 0 0
BBX 12 2 -15 -4
BITMAP
899999999996
EFFFFFFFFFFB
ENDCHAR
STARTCHAR uni0953
ENCODING 2387
SWIDTH 0 0
DWIDTH 0 0
BBX 7 7 -10 25
BITMAP
2FB00000
09F60000
01DE1000
005FA000
000AF400
0001ED10
00005F60
ENDCHAR
STARTCHAR uni0954
ENCODING 2388
SWIDTH 0 0
DWIDTH 0 0
BBX 6 7 -5 25
BITMAP
0003F9
000DE2
008F70
02FC00
0CF300
6F8000
EC1000
ENDCHAR
STARTCHAR uni0915093C
ENCODING 2392
SWIDTH 725 0
DWIDTH 26 0
BBX 28 25 -1 -2
BITMAP
7FFFFFFFFFFFFFFFFFFFFFFFFFF9
4999999999999EF9999999999995
0000000000000CD0000000000000
0000000000000CD0000000000000
0000000000000CD0000000000000
0000005899400CD0378985100000
00002DFFFF800CD6FFFFFFE40000
0001DF8200000CFE720027EE2000
0007F80000000CF60000006F8000
000AF10000000CF10000000FC000
000CE00000000CE00000000DD000
000CE00000000CD00000000CE000
000CE00000000CD00000000CE000
000CE00000000CD00000000CE000
000CE00000000CD00000000DD000
000BF10000000ED00000000FC000
0007F80000005FD00000006F8000
0001EF820026EFD0000027EE2000
00003DFFFFFF8CD005FFFFE40000
0000005899730CD0039985100000
0000000000000CD0000000000000
0000000000000CD0000000000000
0000000000000CD0000000000000
000000CF10000330000000000000
0000007800000000000000000000
ENDCHAR
STARTCHAR uni0916093C
ENCODING 2393
SWIDTH 696 0
DWIDTH 25 0
BBX 27 25 -1 -2
BITMAP
7FFFFFFFFFFFFFFFFFFFFFFFFF80
49999999CFA9999999999FE99940
000000008F30000000000EB00000
000000008F30000000000EB00000
000000008F30000000000EB00000
000000008F30000000000EB00000
000000008F30003AEF600EB00000
000000008F3005FFB9300EB00000
000000009F201EE300000EB00000
00000000DF005F8000000EB00000
0000002AF9007F5000000EB00000
00BFFFFFC1008F3000000EB00000
00BFC98400008F3000000EB00000
002FD10000007F5000001FB00000
0007F80000005F8000004FB00000
0000CF3000001EE30002CFB00000
00003FC0000005FFB9BEBFB00000
000008F70000004BEFD81EB00000
000001DF2000000000000EB00000
0000004FB000000000000EB00000
00000009F600000000000EB00000
00000001EE20000000000EB00000
000000005FA0000000000EB00000
005F800004400000000004300000
0029400000000000000000000000
ENDCHAR
STARTCHAR uni0917093C
ENCODING 2394
SWIDTH 494 0
DWIDTH 18 0
BBX 20 24 -1 -1
BITMAP
7FFFFFFFFFFFFFFFFFF4
49999AFD99999BFC9992
000003F8000004F70000
000003F8000004F70000
000003F8000004F70000
000003F8000004F70000
000003F8000004F70000
000003F8000004F70000
000003F8000004F70000
000003F8000004F70000
000005F8000004F70000
000007F6000004F70000
00002EF1000004F70000
029BFF70000004F70000
04FEB500000004F70000
00000000000004F70000
00000000000004F70000
00000000000004F70000
00000000000004F70000
00000000000004F70000
00000000000004F70000
00000000000004F70000
00004930000003E60000
00007F60000000000000
ENDCHAR
STARTCHAR uni091C093C
ENCODING 2395
SWIDTH 547 0
DWIDTH 20 0
BBX 22 25 -1 -2
BITMAP
7FFFFFFFFFFFFFFFFFFFF2
499999999999999BFC9991
0000000000000005F60000
0000000000000005F60000
0000000000000005F60000
0000000000000005F60000
0000000000000005F60000
000399999999999BF60000
0006FFFFFFFFFFFFF60000
00000015DD200006F60000
000000003FA00005F60000
000000000DE00005F60000
000000000BF00005F60000
000000000BF00005F60000
000000000BF00005F60000
000000000BF00005F60000
000000000DE00005F60000
000000003FB00005F60000
00000014DF500005F60000
00DFFFFFF8000005F60000
0079998720000005F60000
0000000000000005F60000
0000000000000005F50000
0000EE0000000000100000
0000880000000000000000
ENDCHAR
STARTCHAR uni0921093C
ENCODING 2396
SWIDTH 475 0
DWIDTH 17 0
BBX 19 28 -1 -5
BITMAP
7FFFFFFFFFFFFFFFFF90
4999999999999FE99950
0000000000000EC00000
0000000000000EC00000
0000000000000EC00000
0000000000000EC00000
000006CEFFFFFFB00000
00009FDA999999400000
0001FC00000000000000
0004F700000000000000
0004F600000000000000
0003F800000000000000
0000EE51000000000000
00004EFFFFFFDA300000
000001689999CFE30000
00000000000006FA0000
00000000000000FD0000
00026100000000DD0000
0007F300000000DD0000
0006F500000000FC0000
0002FB00000008F90000
00009FDA9999CFE20000
000007CFFFFFD9200000
00000000000000000000
00000000000000000000
00000000000000000000
000000003FA000000000
00000000195000000000
ENDCHAR
STARTCHAR uni0922093C
ENCODING 2397
SWIDTH 485 0
DWIDTH 17 0
BBX 19 27 -1 -4
BITMAP
7FFFFFFFFFFFFFFFFFE0
4999999999999FE99980
0000000000000DD00000
0000000000000DD00000
0000000000000DD00000
0000000000000DD00000
0000003799999FD00000
00001AFFFFFFFFA00000
0000AFA3000000000000
0002FC00000000000000
0006F500000000000000
0007F300000000000000
0008F300003BEFC50000
0008F30000DFAAEF3000
0008F30004F6003F8000
0008F30006F3000EA000
0007F30006F2000DB000
0006F5000020000FA000
0002FB000000004F8000
0000AFA3000014DF2000
00001AFFFFFFFFF60000
00000037899986200000
00000000000000000000
00000000000000000000
00000000000000000000
000000000EE000000000
00000000088000000000
ENDCHAR
STARTCHAR uni092B093C
ENCODING 2398
SWIDTH 739 0
DWIDTH 27 0
BBX 29 24 -1 -1
BITMAP
7FFFFFFFFFFFFFFFFFFFFFFFFFFF10
4999FD9999999BFC99999999999800
0001FA00000005F600000000000000
0001FA00000005F600000000000000
0001FA00000005F600000000000000
0001FA00000005F616898720000000
0001FA00000005F8DFFFFFF9000000
0001FA00000005FFB31014CF800000
0001FA00000005FD0000001DF10000
0001FA00000005F800000008F40000
0001FA00000005F600000006F50000
0000FC00000006F600000005F60000
0000DE1000000AF600000005F60000
00008F9000005FF600000005F60000
00000CFDA99CFBF600000006F50000
0000007CFFEC65F600000008F40000
00000000000005F60000001DF10000
00000000000005F6000014CF800000
00000000000005F600DFFFF9000000
00000000000005F600798730000000
00000000000005F600000000000000
00000000000005F600000000000000
00000186000004E500000000000000
000001FB0000000000000000000000
ENDCHAR
STARTCHAR uni092F093C
ENCODING 2399
SWIDTH 564 0
DWIDTH 20 0
BBX 22 25 -1 -2
BITMAP
7FFFFFFFFFFFFFFFFFFFFC
499999AEFB999999EF9996
00000001CE100000BF0000
000000005F600000BF0000
000000003F800000BF0000
000000003F800000BF0000
000000005F700000BF0000
00000001BF300000BF0000
000499AEFA000000BF0000
0008FFEC70000000BF0000
0008F30000000000BF0000
0008F30000000000BF0000
0008F30000000000BF0000
0008F30000000000BF0000
0006F50000000000DF0000
0003FA0000000004FF0000
0000AF600000003DFF0000
00001CFDA9999BFCBF0000
0000017CEFFFFD81BF0000
0000000000000000BF0000
0000000000000000BF0000
0000000000000000BF0000
0000000000000000BF0000
00003F9000000000340000
0000295000000000000000
ENDCHAR
STARTCHAR uni0960
ENCODING 2400
SWIDTH 753 0
DWIDTH 27 0
BBX 29 28 -1 -5
BITMAP
7FFFFFFFFFFFFFFFFFFFFFFFFFFF90
4999999999999BFC99999999999950
00000000000004F700000000000000
00000000000004F700000000000000
00000000000004F700000000000000
00000000000004F700000000000000
00000000000004F700000000000000
000005BEFFEC75F7000002BFF50000
00008FEB999CFDF700003EFAF60000
0003FD2000004FF70006FE44F60000
0008F500000009F7008FD204F60000
000AF200000006F71AFB1004F60000
000BF000000005F8CF900016F60000
000BF000000005FFF6008EFFF50000
0007A000000006FE4008FC65410000
0000000000007FF7000ED000000000
00000000001AFDF7000FB000000000
0000000003DF74F7000EC000000000
000000006EE404F7000AF720000000
00000009FC2004F70001CFFFFC0000
000002CF900004F70003EFB9970000
00004EF6000004F7000BF200000000
0003FD30000004F6000FC000000000
0000100000000010000FB000000000
0000000000000000000ED000000000
0000000000000000000AF820000000
00000000000000000002DFFFFF4000
000000000000000000000589992000
ENDCHAR
STARTCHAR uni0961
ENCODING 2401
SWIDTH 676 0
DWIDTH 24 0
BBX 26 31 -1 -8
BITMAP
7FFFFFFFFFFFFFFFFFFFFFFFFC
49999999999999999999EF9997
00000000000000000000BF1000
00000000000000000000BF1000
00000000000000000000BF1000
00000000000000000000BF1000
00000000000000000000BF1000
000003AEFEA3007CEEB4BF1000
00005FFB9BEE39FCAADFDF1000
0000EE30001CDF600007FF1000
0004F8000004FD000000EF1000
0006F5000001FA000000BF1000
0007F4000001FA000000BF1000
0007F4000001FA000000BF1000
0007F4000001FA000000BF1000
0007F400000074000000BF1000
0006F400000000000278EF1000
0005F600000000006FFFFE0000
0002FB0000000001FE51000000
0000BFA310000004F700000000
00001BFFFFE00005F500000000
0000003789800004F700000000
0000000000000001EE51000000
00000000000000004EFFFF7000
00000000000000007FDA994000
0000000000000002FB00000000
0000000000000005F600000000
0000000000000005F600000000
0000000000000003FB00000000
0000000000000000BFDA997000
000000000000000018DFFFE000
ENDCHAR
STARTCHAR uni0964
ENCODING 2404
SWIDTH 286 0
DWIDTH 10 0
BBX 2 23 5 0
BITMAP
CD
DD
DD
DD
DD
DD
DD
DD
DD
DD
DD
DD
DD
DD
DD
DD
DD
DD
DD
DD
DD
DD
CC
ENDCHAR
STARTCHAR uni0965
ENCODING 2405
SWIDTH 518 0
DWIDTH 19 0
BBX 11 23 5 0
BITMAP
CD0000007F30
DD0000008F40
DD0000008F40
DD0000008F40
DD0000008F40
DD0000008F40
DD0000008F40
DD0000008F40
DD0000008F40
DD0000008F40
DD0000008F40
DD0000008F40
DD0000008F40
DD0000008F40
DD0000008F40
DD0000008F40
DD0000008F40
DD0000008F40
DD0000008F40
DD0000008F40
DD0000008F40
DD0000008F40
CC0000007F30
ENDCHAR
STARTCHAR uni0966
ENCODING 2406
SWIDTH 519 0
DWIDTH 19 0
BBX 15 24 2 0
BITMAP
0003789998620000
01AFFFFFFFFF7000
0AFA3100014DF500
2FC000000002FC00
6F6000000000BF10
8F40000000009F20
8F40000000009F20
8F40000000009F20
8F40000000009F20
8F40000000009F20
8F40000000009F20
8F40000000009F20
8F40000000009F20
8F40000000009F20
8F40000000009F20
8F40000000009F20
8F40000000009F20
8F40000000009F20
8F40000000009F20
7F5000000000AF20
4F9000000000DE00
0DF400000008F800
04EFC9999ADFC100
002AEFFFFFD81000
ENDCHAR
STARTCHAR uni0967
ENCODING 2407
SWIDTH 288 0
DWIDTH 10 0
BBX 8 24 0 0
BITMAP
00000473
0002AFF8
007EFCF8
3DFC44F8
7E6004F8
210004F8
000004F8
000004F8
000004F8
000004F8
000004F8
000004F8
000004F8
000004F8
000004F8
000004F8
000004F8
000004F8
000004F8
000004F8
000004F8
000004F8
000004F8
000003F7
ENDCHAR
STARTCHAR uni0968
ENCODING 2408
SWIDTH 453 0
DWIDTH 16 0
BBX 14 24 1 0
BITMAP
00026899985000
007FFFFFFFFD30
06FC4100027EE1
0DE200000007F7
2FB000000001FB
3F9000000000EC
3F8000000000EC
195000000000FB
000000000003F9
00000000000BF4
00000000009FA0
000000001BFA00
00000004EF8000
0000007FE40000
00001AFC200000
0003DFA1000000
004EF600000000
03FE4000000000
0AF50000000000
0EE00000000000
1FC00000000000
1FC00000000000
1FE99999999998
1FFFFFFFFFFFFD
ENDCHAR
STARTCHAR uni0969
ENCODING 2409
SWIDTH 489 0
DWIDTH 18 0
BBX 15 24 1 0
BITMAP
0001689998610000
006EFFFFFFFE6000
04FD5100015DF400
0BF300000003FB00
0FC000000000CF00
1FA000000000AF10
1FA000000000AF10
043000000000AF10
000000000000BF00
000000000000EC00
000000000009F600
000000599ADE7000
0000009FFFFA2000
00000000015DE300
000000000002FB00
000000000000CE00
021000000000AF10
1FA000000000AF10
1FA000000000AF10
0FB000000000BF00
0DE100000000ED00
08F900000009F800
01CFDA999ADFC100
0007CFFFFFC71000
ENDCHAR
STARTCHAR uni096A
ENCODING 2410
SWIDTH 453 0
DWIDTH 16 0
BBX 17 24 0 0
BITMAP
00000000009FF30000
0000000004FEF40000
000000000CE8F40000
000000006F76F40000
00000001ED06F40000
00000008F506F40000
0000002FB006F40000
000000BF3006F40000
000004F90006F40000
00000DE10006F40000
00006F700006F40000
0001ED000006F40000
0009F4000006F40000
003FB0000006F40000
00BF20000006F40000
05F800000006F40000
0DE100000006F40000
4FC99999999BFA9930
5FFFFFFFFFFFFFFF50
000000000006F40000
000000000006F40000
000000000006F40000
000000000006F40000
000000000005F40000
ENDCHAR
STARTCHAR uni096B
ENCODING 2411
SWIDTH 480 0
DWIDTH 17 0
BBX 14 24 2 0
BITMAP
49999999999980
8FFFFFFFFFFFE0
8F400000000000
8F400000000000
8F400000000000
8F400000000000
8F400000000000
8F400000000000
8F400000000000
8F48EFFFFD9200
8FCEA9999CFE30
8FD10000005FD0
37200000000AF3
000000000007F5
000000000005F6
000000000005F6
000000000005F6
7F3000000005F6
8F3000000005F6
7F5000000007F5
5F800000000BF3
1EF40000006FC0
04FFB9999CFE20
003AEFFFFD9200
ENDCHAR
STARTCHAR uni096C
ENCODING 2412
SWIDTH 495 0
DWIDTH 18 0
BBX 14 24 2 0
BITMAP
00037899999970
01AFFFFFFFFFC0
0AFA3100000000
2FC00000000000
6F600000000000
8F400000000000
8F400000000000
8F400000000000
8F400000000000
8F405899985100
8F5DFFFFFFFE40
8FCB3100027FE2
8FC000000006F9
8F6000000000FD
8F4000000000DE
8F4000000000CE
8F4000000000CE
8F4000000000CE
8F4000000000CE
7F5000000000ED
4F9000000003FB
0DF50000001CF5
04EFC9999BEF90
002AEFFFFEC600
ENDCHAR
STARTCHAR uni096D
ENCODING 2413
SWIDTH 380 0
DWIDTH 14 0
BBX 13 24 0 0
BITMAP
39999999999980
5FFFFFFFFFFFF0
00000000002FC0
00000000008F70
0000000000DF10
0000000004FB00
0000000009F500
000000001EE000
000000005F9000
00000000BF4000
00000002FD0000
00000007F70000
0000000DF20000
0000003FB00000
0000009F600000
000000EF100000
000005FA000000
00000AF4000000
00001FE0000000
00006F80000000
0000CF30000000
0002FC00000000
0008F700000000
000CE100000000
ENDCHAR
STARTCHAR uni096E
ENCODING 2414
SWIDTH 523 0
DWIDTH 19 0
BBX 15 24 2 0
BITMAP
0003799998720000
01BFFFFFFFFF8000
0AFA3000014CF700
3FB000000001DE00
6F60000000009F30
8F40000000007F40
8F40000000006F50
8F40000000006F50
7F50000000008F40
4F9000000000BF10
0DF400000006FA00
02DFC9999ACFB100
007FFFFFFFFE5000
08FA3100014BF500
2FC000000001DE00
6F60000000009F30
7F40000000007F40
8F40000000006F50
8F40000000006F50
7F50000000008F40
5F8000000000BF20
1EE300000006FB00
04FFB9999ACFE200
003AEFFFFFD92000
ENDCHAR
STARTCHAR uni096F
ENCODING 2415
SWIDTH 493 0
DWIDTH 18 0
BBX 15 24 1 0
BITMAP
0002689998620000
007FFFFFFFFF7000
05FD5100014DF600
0DF200000002ED00
2FB000000000AF20
3F90000000008F30
3F80000000008F40
3F80000000008F40
3F80000000008F40
3F90000000008F40
2FB0000000008F40
0DF2000000008F40
05FD510000008F40
007FFFFFFFFFFF40
000268999999CF40
0000000000008F40
0000000000008F40
0000000000008F40
0000000000008F30
0000000000009F30
000000000000CF10
000000000008FA00
008999999ADFD100
01FFFFFFFFD81000
ENDCHAR
STARTCHAR uni0970
ENCODING 2416
SWIDTH 391 0
DWIDTH 14 0
BBX 12 12 1 5
BITMAP
003AEFFEA300
05FFB99BFF50
1EE300003EE1
5F70000007F6
8F40000003F8
8F30000002F9
8F30000002F9
8F40000003F8
5F70000007F6
1EE300003EE1
05FFB99BFF50
003AEFFEA300
ENDCHAR
ENDFONT
